<svg width="60" height="60" viewBox="0 0 60 60" fill="none" xmlns="http://www.w3.org/2000/svg">
<circle cx="30" cy="30" r="30" fill="#A1224E"/>
<g clip-path="url(#clip0)">
<path d="M34.9895 29.5002L44.8234 19.6659C45.0595 19.4298 45.0595 19.0472 44.8234 18.8111L41.1904 15.1771C41.077 15.0638 40.9228 15 40.7629 15C40.6027 15 40.4489 15.0638 40.3355 15.1771L30.501 25.0117L20.6665 15.1771C20.4398 14.9504 20.0383 14.9504 19.8116 15.1771L16.1783 18.8111C15.9422 19.0472 15.9422 19.4298 16.1783 19.6659L26.0125 29.5002L16.1783 39.3344C15.9422 39.5705 15.9422 39.9531 16.1783 40.1892L19.8116 43.8229C19.925 43.9362 20.0788 44 20.239 44C20.3993 44 20.5531 43.9362 20.6665 43.8229L30.501 33.9883L40.3355 43.8229C40.4489 43.9362 40.6027 44 40.7629 44C40.9228 44 41.077 43.9362 41.1904 43.8229L44.8237 40.1892C45.0598 39.9531 45.0598 39.5702 44.8237 39.3344L34.9895 29.5002Z" fill="white"/>
</g>
<defs>
<clipPath id="clip0">
<rect width="29" height="29" fill="white" transform="translate(16 15)"/>
</clipPath>
</defs>
</svg>
