<svg width="37" height="36" viewBox="0 0 37 36" fill="none" xmlns="http://www.w3.org/2000/svg">
<path d="M37 17.9907C37 8.0597 28.7122 0 18.5 0C8.28785 0 0 8.0597 0 17.9907C0 26.9768 6.76365 34.4251 15.6231 35.7591V23.1786H10.898V17.9907H15.6231V14.0257C15.6231 9.52342 18.3666 7.02213 22.5963 7.02213C24.6159 7.02213 26.7116 7.39269 26.7116 7.39269V11.7838H24.3872C22.0819 11.7838 21.3579 13.192 21.3579 14.6001V17.9722H26.5021L25.6828 23.1601H21.3579V35.7406C30.2364 34.4251 37 26.9768 37 17.9907Z" fill="#1877F2"/>
<path d="M25.702 23.1972L26.5212 18.0094H21.3771V14.6373C21.3771 13.2106 22.1201 11.821 24.4064 11.821H26.7308V7.41133C26.7308 7.41133 24.6351 7.04077 22.6155 7.04077C18.3858 7.04077 15.6423 9.54206 15.6423 14.0444V18.0094H10.9172V23.1972H15.6423V35.7778C16.5758 35.926 17.5475 36.0001 18.5192 36.0001C19.4909 36.0001 20.4626 35.926 21.3961 35.7778V23.1972H25.702Z" fill="white"/>
</svg>
