<svg width="20" height="24" viewBox="0 0 20 24" fill="none" xmlns="http://www.w3.org/2000/svg">
<path d="M19.5325 4.71748L15.0325 0.217482C14.9624 0.147971 14.8793 0.092977 14.7879 0.0556536C14.6966 0.0183301 14.5987 -0.000588652 14.5 -1.79819e-05H2.5C1.90326 -1.79819e-05 1.33097 0.237035 0.90901 0.658992C0.487053 1.08095 0.25 1.65324 0.25 2.24998V21.75C0.25 22.3467 0.487053 22.919 0.90901 23.341C1.33097 23.7629 1.90326 24 2.5 24H17.5C18.0967 24 18.669 23.7629 19.091 23.341C19.5129 22.919 19.75 22.3467 19.75 21.75V5.24998C19.7506 5.15128 19.7317 5.05343 19.6943 4.96205C19.657 4.87067 19.602 4.78756 19.5325 4.71748ZM18.25 21.75C18.25 21.9489 18.171 22.1397 18.0303 22.2803C17.8897 22.421 17.6989 22.5 17.5 22.5H2.5C2.30109 22.5 2.11032 22.421 1.96967 22.2803C1.82902 22.1397 1.75 21.9489 1.75 21.75V2.24998C1.75 2.05107 1.82902 1.8603 1.96967 1.71965C2.11032 1.579 2.30109 1.49998 2.5 1.49998H13.75V4.49998C13.75 4.89781 13.908 5.27934 14.1893 5.56064C14.4706 5.84195 14.8522 5.99998 15.25 5.99998H18.25V21.75Z" fill="white"/>
<path d="M10.75 16.9425V8.24997H9.24998V16.9425L7.53248 15.225L6.47498 16.2825L9.47498 19.2825C9.6155 19.4222 9.80559 19.5006 10.0037 19.5006C10.2019 19.5006 10.392 19.4222 10.5325 19.2825L13.5325 16.2825L12.475 15.225L10.75 16.9425Z" fill="white"/>
</svg>
