<svg width="22" height="22" viewBox="0 0 22 22" fill="none" xmlns="http://www.w3.org/2000/svg">
<path d="M21.0652 4.31912C20.7945 3.62185 20.4335 3.03123 19.8429 2.4406C19.2523 1.84998 18.6617 1.48904 17.9644 1.21833C17.2917 0.955834 16.5125 0.775365 15.3886 0.726146C14.2566 0.676928 13.8957 0.660522 11.0082 0.660522C8.12066 0.660522 7.75972 0.668725 6.62769 0.726146C5.49565 0.775365 4.72456 0.955834 4.0519 1.21833C3.35464 1.48904 2.76401 1.84998 2.17339 2.4406C1.58276 3.03123 1.22183 3.62185 0.951123 4.31912C0.688623 4.99177 0.508155 5.77107 0.458936 6.8949C0.409717 8.02693 0.393311 8.38787 0.393311 11.2754C0.393311 14.1629 0.401514 14.5238 0.458936 15.6558C0.508155 16.7879 0.688623 17.559 0.951123 18.2316C1.22183 18.9289 1.58276 19.5195 2.17339 20.1101C2.76401 20.7008 3.35464 21.0617 4.0519 21.3324C4.72456 21.5949 5.50386 21.7754 6.62769 21.8246C7.75972 21.8738 8.12066 21.8902 11.0082 21.8902C13.8957 21.8902 14.2566 21.882 15.3886 21.8246C16.5207 21.7754 17.2917 21.5949 17.9644 21.3324C18.6617 21.0617 19.2523 20.7008 19.8429 20.1101C20.4335 19.5195 20.7945 18.9289 21.0652 18.2316C21.3277 17.559 21.5082 16.7797 21.5574 15.6558C21.6066 14.5238 21.623 14.1629 21.623 11.2754C21.623 8.38787 21.6148 8.02693 21.5574 6.8949C21.5082 5.76287 21.3277 4.99177 21.0652 4.31912ZM19.646 15.5656C19.5968 16.5992 19.4246 17.1652 19.2769 17.5343C19.0882 18.0265 18.8503 18.3875 18.4812 18.7566C18.1121 19.1258 17.7593 19.3554 17.2589 19.5523C16.8816 19.7 16.3238 19.8722 15.2902 19.9215C14.1664 19.9707 13.8382 19.9871 11 19.9871C8.16167 19.9871 7.82534 19.9789 6.70972 19.9215C5.67612 19.8722 5.11011 19.7 4.74097 19.5523C4.24878 19.3636 3.88784 19.1258 3.5187 18.7566C3.14956 18.3875 2.91987 18.0347 2.723 17.5343C2.57534 17.157 2.40308 16.5992 2.35386 15.5656C2.30464 14.4418 2.28823 14.1054 2.28823 11.2754C2.28823 8.44529 2.29644 8.10076 2.35386 6.98513C2.40308 5.95154 2.57534 5.38552 2.723 5.01638C2.91167 4.52419 3.14956 4.16326 3.5187 3.79412C3.88784 3.42498 4.24058 3.19529 4.74097 2.99841C5.11831 2.85076 5.67612 2.67849 6.70972 2.62927C7.83354 2.58005 8.16987 2.56365 11 2.56365C13.83 2.56365 14.1746 2.57185 15.2902 2.62927C16.3238 2.67849 16.8898 2.85076 17.2589 2.99841C17.7511 3.18708 18.1121 3.42498 18.4812 3.79412C18.8503 4.16326 19.08 4.51599 19.2769 5.01638C19.4246 5.39373 19.5968 5.95154 19.646 6.98513C19.6953 8.10896 19.7117 8.44529 19.7117 11.2754C19.7117 14.1054 19.6953 14.45 19.646 15.5656Z" fill="white"/>
<path d="M10.9999 5.82031C7.98939 5.82031 5.54486 8.26484 5.54486 11.2754C5.54486 14.2859 7.98939 16.7305 10.9999 16.7305C14.0105 16.7305 16.455 14.2859 16.455 11.2754C16.455 8.26484 14.0105 5.82031 10.9999 5.82031ZM10.9999 14.8191C9.0476 14.8191 7.45619 13.2359 7.45619 11.2754C7.45619 9.32305 9.03939 7.73164 10.9999 7.73164C12.9605 7.73164 14.5437 9.31484 14.5437 11.2754C14.5437 13.2277 12.9523 14.8191 10.9999 14.8191Z" fill="white"/>
<path d="M16.6683 6.87854C17.3705 6.87854 17.9398 6.30928 17.9398 5.60706C17.9398 4.90483 17.3705 4.33557 16.6683 4.33557C15.9661 4.33557 15.3968 4.90483 15.3968 5.60706C15.3968 6.30928 15.9661 6.87854 16.6683 6.87854Z" fill="white"/>
</svg>
