<svg width="48" height="48" viewBox="0 0 48 48" fill="none" xmlns="http://www.w3.org/2000/svg">
<circle cx="24" cy="24" r="24" fill="#F6912C"/>
<g clip-path="url(#clip0)">
<path fill-rule="evenodd" clip-rule="evenodd" d="M23.5975 15.7813C22.0923 15.7813 20.8684 16.9796 20.8684 18.453C20.8684 19.9248 22.0923 21.1232 23.5975 21.1232C25.1011 21.1232 26.3265 19.9248 26.3265 18.453C26.3265 16.9796 25.1011 15.7813 23.5975 15.7813ZM23.5975 24.903C19.9618 24.903 17.0063 22.0099 17.0063 18.453C17.0063 14.8943 19.9618 12 23.5975 12C27.2324 12 30.1887 14.8943 30.1887 18.453C30.1887 22.0099 27.2324 24.903 23.5975 24.903ZM20.9308 30.1664C19.589 29.8671 18.2949 29.3476 17.1033 28.6145C16.2013 28.058 15.9294 26.891 16.4979 26.0081C17.0656 25.1232 18.2572 24.857 19.1607 25.4134C21.8605 27.0756 25.3367 27.0749 28.035 25.4134C28.9385 24.857 30.1301 25.1232 30.6971 26.0081C31.2655 26.8916 30.9944 28.058 30.0924 28.6145C28.9008 29.3466 27.6067 29.8671 26.2649 30.1664L29.9499 33.7734C30.7032 34.5116 30.7032 35.7082 29.9491 36.4463C29.5717 36.8151 29.0779 36.9998 28.5842 36.9998C28.0897 36.9998 27.5952 36.8151 27.2177 36.4463L23.5982 32.9018L19.9757 36.4463C19.2223 37.1846 17.9999 37.1846 17.2458 36.4463C16.4909 35.7082 16.4909 34.511 17.2458 33.7734L20.9308 30.1664Z" fill="white"/>
</g>
<defs>
<clipPath id="clip0">
<rect width="14.8148" height="25" fill="white" transform="matrix(-1 0 0 1 31 12)"/>
</clipPath>
</defs>
</svg>
