<svg width="16" height="16" viewBox="0 0 16 16" fill="none" xmlns="http://www.w3.org/2000/svg">
<path d="M15.9976 0.468789C15.9976 0.20996 15.7878 0.00012207 15.529 0.00012207H0.470761C0.211932 0.00012207 0.00209383 0.20996 0.00209383 0.468789C0.001094 4.72704 0.00578068 11.2696 0.00490583 15.5252C0.00490583 15.7841 0.214744 15.9939 0.473573 15.9939H15.5318C15.7906 15.9939 16.0005 15.7841 16.0005 15.5252L15.9976 0.468789ZM15.0632 15.0566H0.94224C0.943053 11.1569 0.938491 4.83308 0.939428 0.937457H15.0603C15.0595 4.83708 15.0641 11.161 15.0632 15.0566Z" fill="black"/>
<path d="M13.5317 1.94476H9.74186C9.48303 1.94476 9.27319 2.1546 9.27319 2.41343V6.11831C9.27319 6.37714 9.48303 6.58698 9.74186 6.58698H13.5317C13.7906 6.58698 14.0004 6.37714 14.0004 6.11831V2.41343C14.0004 2.1546 13.7906 1.94476 13.5317 1.94476ZM13.0631 5.64964H10.2105V2.8821H13.0631V5.64964Z" fill="black"/>
<path d="M7.99845 6.62125C8.25728 6.62125 8.46712 6.41141 8.46712 6.15258V2.41343C8.46712 2.1546 8.25728 1.94476 7.99845 1.94476C7.73962 1.94476 7.52979 2.1546 7.52979 2.41343V6.15258C7.52979 6.41141 7.73962 6.62125 7.99845 6.62125Z" fill="black"/>
<path d="M6.2495 7.47974H2.45963C2.2008 7.47974 1.99097 7.68957 1.99097 7.9484C1.99097 8.20723 2.2008 8.41707 2.45963 8.41707H6.2495C6.50833 8.41707 6.71816 8.20723 6.71816 7.9484C6.71816 7.68957 6.50833 7.47974 6.2495 7.47974Z" fill="black"/>
<path d="M9.95633 11.2487H11.3415C11.6003 11.2487 11.8102 11.0389 11.8102 10.7801C11.8102 10.5212 11.6003 10.3114 11.3415 10.3114H10.425V8.41707H11.4281V9.14894C11.4281 9.40777 11.638 9.61761 11.8968 9.61761C12.1556 9.61761 12.3655 9.40777 12.3655 9.14894V8.41707H13.5107C13.7695 8.41707 13.9794 8.20723 13.9794 7.9484C13.9794 7.68957 13.7695 7.47974 13.5107 7.47974H7.99845C7.73962 7.47974 7.52979 7.68957 7.52979 7.9484V13.4902C7.52979 13.749 7.73962 13.9588 7.99845 13.9588H9.9936C10.2524 13.9588 10.4623 13.749 10.4623 13.4902C10.4623 13.2313 10.2524 13.0215 9.9936 13.0215H8.46712V8.41704H9.48766V10.78C9.48766 11.0389 9.6975 11.2487 9.95633 11.2487Z" fill="black"/>
<path d="M6.2495 1.94476H2.45963C2.2008 1.94476 1.99097 2.1546 1.99097 2.41343V6.11831C1.99097 6.37714 2.2008 6.58698 2.45963 6.58698H6.2495C6.50833 6.58698 6.71816 6.37714 6.71816 6.11831V2.41343C6.71816 2.1546 6.50833 1.94476 6.2495 1.94476ZM5.78083 5.64964H2.9283V2.8821H5.78083V5.64964Z" fill="black"/>
<path d="M6.2495 9.31665H2.45963C2.2008 9.31665 1.99097 9.52649 1.99097 9.78532V13.4902C1.99097 13.749 2.2008 13.9589 2.45963 13.9589H6.2495C6.50833 13.9589 6.71816 13.749 6.71816 13.4902V9.78532C6.71816 9.52649 6.50833 9.31665 6.2495 9.31665ZM5.78083 13.0215H2.9283V10.254H5.78083V13.0215Z" fill="black"/>
<path d="M13.5316 10.9919C13.2727 10.9919 13.0629 11.2018 13.0629 11.4606V13.0216H11.913C11.6542 13.0216 11.4443 13.2314 11.4443 13.4902C11.4443 13.7491 11.6542 13.9589 11.913 13.9589H13.5299C13.5302 13.9589 13.5305 13.9589 13.5307 13.9589C13.531 13.9589 13.5313 13.9589 13.5316 13.9589C13.7904 13.9589 14.0002 13.7491 14.0002 13.4902V11.4606C14.0002 11.2018 13.7904 10.9919 13.5316 10.9919Z" fill="black"/>
<path d="M4.35442 4.72421C4.60759 4.72421 4.81283 4.51897 4.81283 4.26579C4.81283 4.01262 4.60759 3.80737 4.35442 3.80737C4.10124 3.80737 3.896 4.01262 3.896 4.26579C3.896 4.51897 4.10124 4.72421 4.35442 4.72421Z" fill="black"/>
<path d="M11.6369 4.72421C11.8901 4.72421 12.0953 4.51897 12.0953 4.26579C12.0953 4.01262 11.8901 3.80737 11.6369 3.80737C11.3837 3.80737 11.1785 4.01262 11.1785 4.26579C11.1785 4.51897 11.3837 4.72421 11.6369 4.72421Z" fill="black"/>
<path d="M4.35442 12.0963C4.60759 12.0963 4.81283 11.891 4.81283 11.6379C4.81283 11.3847 4.60759 11.1794 4.35442 11.1794C4.10124 11.1794 3.896 11.3847 3.896 11.6379C3.896 11.891 4.10124 12.0963 4.35442 12.0963Z" fill="black"/>
<path d="M13.8534 10.0329C14.0324 9.85391 14.0324 9.5637 13.8534 9.3847C13.6744 9.2057 13.3842 9.2057 13.2052 9.3847C13.0262 9.5637 13.0262 9.85391 13.2052 10.0329C13.3842 10.2119 13.6744 10.2119 13.8534 10.0329Z" fill="black"/>
</svg>
