<svg width="16" height="16" viewBox="0 0 16 16" fill="none" xmlns="http://www.w3.org/2000/svg">
<path d="M7.4697 12.0303C7.53935 12.1 7.62203 12.1552 7.71303 12.1929C7.80402 12.2306 7.90155 12.25 8.00005 12.25C8.09854 12.25 8.19607 12.2306 8.28707 12.1929C8.37807 12.1552 8.46075 12.1 8.53039 12.0303L11.3588 9.20191C11.4994 9.06125 11.5785 8.87049 11.5785 8.67158C11.5785 8.47267 11.4994 8.2819 11.3588 8.14125C11.2181 8.0006 11.0274 7.92158 10.8285 7.92158C10.6296 7.92158 10.4388 8.0006 10.2981 8.14125L8.75005 9.68934V1.5C8.75005 1.30109 8.67103 1.11032 8.53038 0.96967C8.38973 0.829018 8.19896 0.75 8.00005 0.75C7.80114 0.75 7.61037 0.829018 7.46972 0.96967C7.32907 1.11032 7.25005 1.30109 7.25005 1.5V9.68934L5.70195 8.14125C5.5613 8.0006 5.37054 7.92158 5.17163 7.92158C4.97272 7.92158 4.78195 8.0006 4.6413 8.14125C4.50065 8.2819 4.42163 8.47267 4.42163 8.67158C4.42163 8.87049 4.50065 9.06125 4.6413 9.20191L7.4697 12.0303Z" fill="black"/>
<path d="M14.5 7.25C14.3011 7.25 14.1103 7.32902 13.9697 7.46967C13.829 7.61032 13.75 7.80109 13.75 8V13.75H2.25V8C2.25 7.80109 2.17098 7.61032 2.03033 7.46967C1.88968 7.32902 1.69891 7.25 1.5 7.25C1.30109 7.25 1.11032 7.32902 0.96967 7.46967C0.829018 7.61032 0.75 7.80109 0.75 8V14C0.75 14.3315 0.881696 14.6495 1.11612 14.8839C1.35054 15.1183 1.66848 15.25 2 15.25H14C14.3315 15.25 14.6495 15.1183 14.8839 14.8839C15.1183 14.6495 15.25 14.3315 15.25 14V8C15.25 7.80109 15.171 7.61032 15.0303 7.46967C14.8897 7.32902 14.6989 7.25 14.5 7.25Z" fill="black"/>
</svg>
