<svg width="36" height="36" viewBox="0 0 36 36" fill="none" xmlns="http://www.w3.org/2000/svg">
<path d="M23.357 0C33.367 0 35.75 2.383 35.75 12.393V23.357C35.75 33.367 33.367 35.75 23.357 35.75H12.393C2.383 35.75 0 33.367 0 23.357V12.393C0 2.383 2.383 0 12.393 0H23.357ZM9.31 11.172H6.703C5.958 11.172 5.809 11.522 5.809 11.909C5.809 12.599 6.693 16.024 9.924 20.553C12.078 23.646 15.114 25.323 17.875 25.323C19.532 25.323 19.737 24.951 19.737 24.309V21.971C19.737 21.227 19.894 21.078 20.419 21.078C20.805 21.078 21.469 21.271 23.015 22.762C24.782 24.53 25.074 25.322 26.068 25.322H28.675C29.419 25.322 29.792 24.951 29.577 24.216C29.342 23.483 28.497 22.42 27.378 21.161C26.771 20.443 25.859 19.669 25.583 19.283C25.196 18.786 25.307 18.565 25.583 18.123L25.63 18.057C26.022 17.499 28.783 13.541 29.09 12.13C29.256 11.578 29.09 11.172 28.302 11.172H25.695C25.032 11.172 24.727 11.522 24.561 11.909C24.561 11.909 23.236 15.14 21.358 17.239C20.75 17.847 20.474 18.04 20.142 18.04C19.977 18.04 19.737 17.847 19.737 17.294V12.13C19.737 11.467 19.545 11.172 18.992 11.172H14.896C14.482 11.172 14.233 11.479 14.233 11.772C14.233 12.399 15.172 12.544 15.268 14.312V18.151C15.268 18.992 15.116 19.145 14.785 19.145C13.901 19.145 11.751 15.899 10.477 12.185C10.227 11.464 9.977 11.172 9.31 11.172Z" fill="#008CFF"/>
</svg>
