<?xml version="1.0" standalone="no"?>
<!DOCTYPE svg PUBLIC "-//W3C//DTD SVG 1.1//EN" "http://www.w3.org/Graphics/SVG/1.1/DTD/svg11.dtd" >
<svg xmlns="http://www.w3.org/2000/svg" xmlns:xlink="http://www.w3.org/1999/xlink" version="1.1">
<metadata>
Created by FontForge 20201107 at Fri Mar 28 12:40:13 2014
 By Unknown
Copyright (c) 2014 by Fontsmith Ltd.. All rights reserved.
</metadata>
<defs>
<font id="ColgateReadyCyrillic" horiz-adv-x="358" >
  <font-face 
    font-family="Colgate Ready Cyrillic"
    font-weight="400"
    font-stretch="normal"
    units-per-em="1000"
    panose-1="2 0 5 3 4 0 0 2 0 4"
    ascent="742"
    descent="-258"
    x-height="522"
    cap-height="676"
    bbox="-83 -298 1180 1117"
    underline-thickness="20"
    underline-position="-133"
    unicode-range="U+000D-FB04"
  />
<missing-glyph horiz-adv-x="600" 
d="M68 650h464v-650h-464v650zM458 604h-316l159 -237zM486 88v474l-158 -237zM458 47l-157 236l-159 -236h316zM115 88l157 237l-157 237v-474z" />
    <glyph glyph-name="f_f" unicode="ff" horiz-adv-x="817" 
d="M177 427v-427h-103v534q0 103 56 155.5t161 52.5q32 0 63 -4.5t54 -10.5l-13 -83q-48 14 -96 14q-65 0 -93.5 -29t-28.5 -95v-21h209l-30 -86h-179zM582 427v-427h-103v534q0 103 56 155.5t161 52.5q32 0 63 -4.5t54 -10.5l-13 -83q-48 14 -96 14q-65 0 -93.5 -29
t-28.5 -95v-21h209l-30 -86h-179z" />
    <glyph glyph-name="fi" unicode="fi" horiz-adv-x="662" 
d="M177 427v-427h-103v534q0 103 56 155.5t161 52.5q32 0 63 -4.5t54 -10.5l-13 -83q-48 14 -96 14q-65 0 -93.5 -29t-28.5 -95v-21h209l-30 -86h-179zM479 522h103v-522h-103v522zM584 611h-107v101l107 28v-129z" />
    <glyph glyph-name="fl" unicode="fl" horiz-adv-x="662" 
d="M177 427v-427h-103v534q0 103 56 155.5t161 52.5q32 0 63 -4.5t54 -10.5l-13 -83q-48 14 -96 14q-65 0 -93.5 -29t-28.5 -95v-21h209l-30 -86h-179zM582 0h-103v705l103 28v-733z" />
    <glyph glyph-name="f_f_i" unicode="ffi" horiz-adv-x="1067" 
d="M177 427v-427h-103v534q0 103 56 155.5t161 52.5q32 0 63 -4.5t54 -10.5l-13 -83q-48 14 -96 14q-65 0 -93.5 -29t-28.5 -95v-21h209l-30 -86h-179zM582 427v-427h-103v534q0 103 56 155.5t161 52.5q32 0 63 -4.5t54 -10.5l-13 -83q-48 14 -96 14q-65 0 -93.5 -29
t-28.5 -95v-21h209l-30 -86h-179zM884 522h103v-522h-103v522zM989 611h-107v101l107 28v-129z" />
    <glyph glyph-name="f_f_l" unicode="ffl" horiz-adv-x="1067" 
d="M177 427v-427h-103v534q0 103 56 155.5t161 52.5q32 0 63 -4.5t54 -10.5l-13 -83q-48 14 -96 14q-65 0 -93.5 -29t-28.5 -95v-21h209l-30 -86h-179zM582 427v-427h-103v534q0 103 56 155.5t161 52.5q32 0 63 -4.5t54 -10.5l-13 -83q-48 14 -96 14q-65 0 -93.5 -29
t-28.5 -95v-21h209l-30 -86h-179zM987 0h-103v705l103 28v-733z" />
    <glyph glyph-name=".notdef" horiz-adv-x="600" 
d="M68 650h464v-650h-464v650zM458 604h-316l159 -237zM486 88v474l-158 -237zM458 47l-157 236l-159 -236h316zM115 88l157 237l-157 237v-474z" />
    <glyph glyph-name=".null" horiz-adv-x="0" 
 />
    <glyph glyph-name=".null" horiz-adv-x="0" 
 />
    <glyph glyph-name="nonmarkingreturn" unicode="&#xd;" horiz-adv-x="222" 
 />
    <glyph glyph-name="space" unicode=" " horiz-adv-x="222" 
 />
    <glyph glyph-name="exclam" unicode="!" horiz-adv-x="278" 
d="M178 188h-79l-14 497h108zM89 86l99 22v-108h-99v86z" />
    <glyph glyph-name="quotedbl" unicode="&#x22;" horiz-adv-x="386" 
d="M72 494l-10 231l95 22l-10 -253h-75zM239 494l-10 231l95 22l-10 -253h-75z" />
    <glyph glyph-name="numbersign" unicode="#" horiz-adv-x="610" 
d="M586 413h-113l-24 -145h128l-26 -79h-116l-32 -189h-89l32 189h-156l-32 -189h-88l32 189h-103v79h117l25 145h-107v80h120l32 183h88l-31 -183h155l32 183h89l-32 -183h124zM204 268h155l26 145h-156z" />
    <glyph glyph-name="dollar" unicode="$" horiz-adv-x="610" 
d="M273 -94v84q-53 2 -106.5 14.5t-96.5 32.5l12 95q45 -23 94 -37t97 -16v229q-32 10 -65 23t-60 34t-44 52.5t-17 79.5q0 43 15 76.5t41.5 56.5t63.5 36.5t82 17.5v95h69v-94q40 -2 77.5 -10t72.5 -17l-7 -91q-77 25 -143 29v-209q38 -12 71.5 -25.5t59 -34t40.5 -51
t15 -76.5q0 -45 -14.5 -81t-41.5 -62t-64 -41.5t-82 -21.5v-88h-69zM436 189q0 41 -25.5 62t-68.5 36v-203q48 11 71 39t23 66zM195 504q0 -40 24 -60t70 -35v185q-94 -13 -94 -90z" />
    <glyph glyph-name="percent" unicode="%" horiz-adv-x="857" 
d="M231 -17l-80 52l473 668l81 -48zM215 359q-83 0 -124 45t-41 118t41 118.5t124 45.5q82 0 123 -45.5t41 -118.5t-41 -118t-123 -45zM215 431q35 0 54 22.5t19 68.5t-19 69t-54 23t-54.5 -23.5t-19.5 -68.5t19.5 -68t54.5 -23zM643 -10q-83 0 -124 45t-41 118t41 118.5
t124 45.5q82 0 123 -45.5t41 -118.5t-41 -118t-123 -45zM643 62q35 0 54 22.5t19 68.5t-19 69t-54 23t-54.5 -23.5t-19.5 -68.5t19.5 -68t54.5 -23z" />
    <glyph glyph-name="ampersand" unicode="&#x26;" horiz-adv-x="729" 
d="M296 686q48 0 84.5 -11.5t61 -32.5t37.5 -49.5t13 -62.5q0 -30 -10 -54t-30 -45t-50 -41t-69 -41l157 -152q32 38 53.5 82.5t35.5 88.5h105q-24 -67 -55.5 -125t-73.5 -110q28 -28 50.5 -36.5t55.5 -8.5h50l-26 -88h-42q-49 0 -84.5 13.5t-64.5 42.5l-11 11
q-44 -35 -97 -56t-122 -21q-51 0 -93.5 12t-73 35.5t-48 57.5t-17.5 79q0 28 7.5 53.5t25 48.5t45 45t67.5 43q-45 44 -62.5 82.5t-17.5 77.5q0 74 52 118t147 44zM269 74q47 0 84 14.5t68 38.5l-178 173q-60 -32 -83 -60.5t-23 -63.5q0 -48 34.5 -75t97.5 -27zM202 527
q0 -31 18.5 -59t53.5 -61q28 16 50.5 29t37.5 26.5t23 28.5t8 35q0 35 -24.5 57t-71.5 22q-46 0 -70.5 -21.5t-24.5 -56.5z" />
    <glyph glyph-name="quotesingle" unicode="'" horiz-adv-x="219" 
d="M72 494l-10 231l95 22l-10 -253h-75z" />
    <glyph glyph-name="parenleft" unicode="(" horiz-adv-x="376" 
d="M146 276q0 -109 49 -217.5t157 -208.5h-113q-94 92 -143.5 199t-49.5 227q0 125 51.5 234t142.5 195h112q-103 -90 -154.5 -202t-51.5 -227z" />
    <glyph glyph-name="parenright" unicode=")" horiz-adv-x="377" 
d="M230 276q0 115 -51.5 227t-154.5 202h112q91 -86 143 -195t52 -234q0 -120 -50 -227t-144 -199h-113q108 100 157 208.5t49 217.5z" />
    <glyph glyph-name="asterisk" unicode="*" horiz-adv-x="397" 
d="M199 483l-76 -108l-71 51l93 99l-123 40l34 78l108 -52l-9 120h88l-10 -120l108 53l34 -79l-122 -40l91 -100l-70 -50z" />
    <glyph glyph-name="plus" unicode="+" horiz-adv-x="563" 
d="M468 220h-148v-159h-89v159h-157v83h157v158h89v-158h175z" />
    <glyph glyph-name="comma" unicode="," horiz-adv-x="235" 
d="M18 -125q37 26 59 55.5t25 69.5h-52v111l125 27v-111q0 -37 -5.5 -60.5t-16.5 -44.5q-15 -28 -38.5 -49t-53.5 -41z" />
    <glyph glyph-name="hyphen" unicode="-" horiz-adv-x="303" 
d="M244 218h-208v86h239z" />
    <glyph glyph-name="period" unicode="." horiz-adv-x="241" 
d="M60 108l121 27v-135h-121v108z" />
    <glyph glyph-name="slash" unicode="/" horiz-adv-x="394" 
d="M125 -20h-103l247 717h103z" />
    <glyph glyph-name="zero" unicode="0" horiz-adv-x="610" 
d="M305 686q64 0 114 -24t84.5 -69.5t52.5 -110.5t18 -147t-18 -146t-52.5 -108.5t-84.5 -67.5t-114 -23t-114 23t-84.5 67.5t-52.5 108.5t-18 146t18 147t52.5 110.5t84.5 69.5t114 24zM305 79q72 0 116.5 61.5t44.5 194.5t-45 197.5t-116 64.5t-116 -64.5t-45 -197.5
t44.5 -194.5t116.5 -61.5z" />
    <glyph glyph-name="one" unicode="1" horiz-adv-x="447" 
d="M341 0h-104v547l-167 -100l-36 90l225 139h82v-676z" />
    <glyph glyph-name="two" unicode="2" horiz-adv-x="610" 
d="M526 0h-466v54q0 64 14 108.5t42 76.5q31 36 73 57.5t97 44.5q31 13 57.5 24.5t46 27t30.5 36t11 51.5q0 60 -38.5 88t-102.5 28q-48 0 -98 -13t-94 -33l-19 87q47 20 102.5 34.5t118.5 14.5q55 0 99 -12.5t75 -38t47.5 -63.5t16.5 -89q0 -47 -14 -80t-39 -58
t-59.5 -43.5t-76.5 -35.5q-40 -17 -66 -29t-43 -21.5t-27 -17.5t-16 -16q-14 -17 -22.5 -37.5t-9.5 -53.5h392z" />
    <glyph glyph-name="three" unicode="3" horiz-adv-x="610" 
d="M517 516q0 -56 -29 -97t-85 -59v-3q63 -12 99.5 -52.5t36.5 -106.5q0 -48 -20 -86.5t-56 -65.5t-85.5 -41.5t-108.5 -14.5q-68 0 -125 12.5t-99 32.5l14 91q96 -48 197 -48q82 0 128 33t46 90q0 106 -173 106h-57v83h46q76 0 118.5 28.5t42.5 82.5q0 43 -34.5 69
t-97.5 26q-44 0 -95 -11.5t-93 -30.5l-17 85q44 19 102 33t121 14q53 0 95 -12.5t70.5 -35t43.5 -54t15 -68.5z" />
    <glyph glyph-name="four" unicode="4" horiz-adv-x="610" 
d="M573 167h-89v-167h-104v167h-367v60l369 449h102v-419h119zM380 257v283l-232 -283h232z" />
    <glyph glyph-name="five" unicode="5" horiz-adv-x="610" 
d="M558 218q0 -56 -19 -98.5t-55 -71t-87 -43.5t-114 -15t-117 13.5t-101 39.5l17 87q48 -26 99.5 -39t98.5 -13q78 0 124 34.5t46 101.5q0 64 -43.5 90.5t-122.5 26.5h-182l24 345h395l-31 -91h-275l-11 -163h92q133 0 197.5 -52t64.5 -152z" />
    <glyph glyph-name="six" unicode="6" horiz-adv-x="610" 
d="M398 597q-51 0 -93 -16.5t-73 -46t-50.5 -71t-26.5 -91.5q35 29 83 49t108 20q51 0 93 -15.5t72.5 -44t47.5 -68.5t17 -89q0 -54 -20 -97.5t-55.5 -73.5t-82.5 -46.5t-101 -16.5q-63 0 -114 22.5t-86.5 63.5t-54.5 100t-19 132q0 81 23.5 150.5t68.5 120t110.5 79
t148.5 28.5q35 0 64.5 -5t59.5 -15l-12 -90q-24 10 -51 15.5t-57 5.5zM326 352q-48 0 -93.5 -20t-80.5 -54q8 -96 51.5 -147.5t116.5 -51.5q65 0 106.5 38.5t41.5 103.5q0 64 -40.5 97.5t-101.5 33.5z" />
    <glyph glyph-name="seven" unicode="7" horiz-adv-x="610" 
d="M565 613l-340 -613h-115l327 585h-374l-29 91h531v-63z" />
    <glyph glyph-name="eight" unicode="8" horiz-adv-x="610" 
d="M548 498q0 -88 -82 -148q57 -26 82 -66t25 -91q0 -44 -18.5 -81.5t-53.5 -64.5t-85 -42t-114 -15q-57 0 -104.5 12.5t-82.5 37t-54.5 60t-19.5 81.5q0 53 25.5 93t71.5 66q-44 24 -62.5 64.5t-18.5 82.5q0 44 18 80.5t51 63t79 41t103 14.5q54 0 98.5 -13.5t76 -38.5
t48.5 -59.5t17 -76.5zM219 311q-37 -21 -55 -51.5t-18 -64.5q0 -29 12 -51t33.5 -37t51.5 -22.5t65 -7.5q75 0 116 31.5t41 82.5q0 45 -30 67t-81 30zM162 493q0 -40 24.5 -63t70.5 -31l129 -23q61 46 61 113q0 54 -39.5 82.5t-103.5 28.5q-66 0 -104 -28.5t-38 -78.5z" />
    <glyph glyph-name="nine" unicode="9" horiz-adv-x="610" 
d="M239 79q99 0 151 56t64 157q-35 -26 -81 -42t-101 -16q-53 0 -96.5 15.5t-74.5 44t-48 69.5t-17 91q0 55 19.5 98t54 73t81.5 45.5t101 15.5q65 0 116 -22.5t86.5 -65t54 -104t18.5 -138.5q0 -76 -19 -143t-58.5 -116.5t-101.5 -78t-147 -28.5q-38 0 -76 6t-73 20l12 90
q32 -14 67 -20.5t68 -6.5zM291 324q47 0 90 16.5t77 45.5q-6 102 -50 156t-120 54q-31 0 -57 -9t-45.5 -26.5t-30.5 -43t-11 -58.5q0 -63 39 -99t108 -36z" />
    <glyph glyph-name="colon" unicode=":" horiz-adv-x="241" 
d="M60 108l121 27v-135h-121v108zM60 519l121 27v-135h-121v108z" />
    <glyph glyph-name="semicolon" unicode=";" horiz-adv-x="241" 
d="M20 -125q37 26 59 55.5t25 69.5h-52v111l125 27v-111q0 -37 -5.5 -60.5t-16.5 -44.5q-15 -28 -38.5 -49t-53.5 -41zM60 519l121 27v-135h-121v108z" />
    <glyph glyph-name="less" unicode="&#x3c;" horiz-adv-x="563" 
d="M82 230v63l368 196l40 -77l-289 -150v-1l289 -151l-40 -77z" />
    <glyph glyph-name="equal" unicode="=" horiz-adv-x="563" 
d="M468 320h-394v83h421zM468 118h-394v83h421z" />
    <glyph glyph-name="greater" unicode="&#x3e;" horiz-adv-x="563" 
d="M122 33l-40 77l289 151v1l-289 150l40 77l368 -196v-63z" />
    <glyph glyph-name="question" unicode="?" horiz-adv-x="490" 
d="M452 506q0 -35 -9.5 -61t-25.5 -46t-36 -36t-41 -31q-28 -20 -46.5 -34t-29.5 -26.5t-16 -27t-6 -33.5l-1 -23h-79q0 23 1 41.5t4 34.5q3 19 9.5 34t17.5 29.5t27 29t40 31.5q19 14 34.5 26t27 25.5t17.5 28.5t6 35q0 46 -33 71.5t-95 25.5q-42 0 -88 -11.5t-84 -28.5
l-15 80q44 20 93.5 33t105.5 13q106 0 164 -47.5t58 -132.5zM152 86l99 22v-108h-99v86z" />
    <glyph glyph-name="at" unicode="@" horiz-adv-x="893" 
d="M843 382q0 -49 -13.5 -91t-39 -73t-62 -48.5t-82.5 -17.5q-51 0 -81 19.5t-39 48.5h-4q-21 -27 -54 -44.5t-76 -17.5q-28 0 -53.5 8.5t-45 26.5t-31 46t-11.5 67q0 45 15.5 84t42.5 67t63.5 44t78.5 16q39 0 67 -14.5t42 -40.5l17 35h62l-33 -162q-6 -29 -8 -45.5
t-2 -24.5q0 -47 47 -47q25 0 45.5 13t34.5 35t22 51.5t8 63.5q0 57 -21.5 100.5t-58 73t-85.5 45t-104 15.5q-69 0 -130 -23t-107.5 -64t-73.5 -98t-27 -126q0 -59 20.5 -104.5t58.5 -77t91 -47.5t119 -16q49 0 98 8t92 21l13 -70q-45 -14 -97 -23t-111 -9q-92 0 -163 23
t-119 65t-73 100.5t-25 129.5q0 84 33.5 155t92 122.5t138 80t170.5 28.5q81 0 147 -23t113.5 -63.5t73 -97.5t25.5 -124zM533 406q-14 22 -32 33t-44 11q-27 0 -49 -11t-37.5 -30t-24 -44t-8.5 -53q0 -44 19.5 -64t54.5 -20q43 0 70.5 26.5t35.5 70.5z" />
    <glyph glyph-name="A" unicode="A" horiz-adv-x="673" 
d="M482 157h-289l-62 -157h-113l278 678h85l274 -678h-111zM228 247h219l-105 272h-8z" />
    <glyph glyph-name="B" unicode="B" horiz-adv-x="629" 
d="M595 192q0 -48 -18 -84t-50 -60t-77 -36t-100 -12h-266v676h244q226 0 226 -170q0 -57 -24.5 -92t-67.5 -53v-2q61 -13 97 -55t36 -112zM351 90q65 0 100.5 25t35.5 82q0 106 -139 106h-160v-213h163zM188 392h146q55 0 85.5 24.5t30.5 75.5q0 50 -29.5 72t-87.5 22h-145
v-194z" />
    <glyph glyph-name="C" unicode="C" horiz-adv-x="653" 
d="M411 -10q-89 0 -156 27t-112 73.5t-68 110t-23 136.5q0 76 24.5 140t71 110.5t113.5 72.5t152 26q60 0 112 -11.5t84 -28.5l-10 -92q-43 20 -89 31t-93 11q-60 0 -107.5 -18t-81 -51.5t-51 -81t-17.5 -105.5q0 -59 18.5 -107t52 -82t82 -52.5t108.5 -18.5q45 0 94 10
t86 28l10 -89q-38 -18 -91 -28.5t-109 -10.5z" />
    <glyph glyph-name="D" unicode="D" horiz-adv-x="748" 
d="M327 676q88 0 156.5 -19t115.5 -59t72 -102.5t25 -148.5q0 -80 -22 -144.5t-68.5 -109.5t-117.5 -69t-169 -24h-235v676h243zM588 348q0 129 -66 183.5t-200 54.5h-134v-496h145q131 0 193 66.5t62 191.5z" />
    <glyph glyph-name="E" unicode="E" horiz-adv-x="580" 
d="M215 0q-71 0 -102 33t-31 101v542h451l-31 -90h-316v-213h277l-4 -89h-273v-125q0 -25 5.5 -39t18.5 -20.5t33.5 -8t49.5 -1.5h241l-31 -90h-288z" />
    <glyph glyph-name="F" unicode="F" horiz-adv-x="535" 
d="M188 586v-220h276l-5 -89h-271v-277h-104v676h443l-30 -90h-309z" />
    <glyph glyph-name="G" unicode="G" horiz-adv-x="730" 
d="M437 596q-65 0 -116.5 -18t-87 -51.5t-54.5 -81.5t-19 -107q0 -61 20 -109t55.5 -81t84 -50.5t106.5 -17.5q38 0 75.5 6.5t60.5 17.5v217l104 27v-298q-42 -26 -108 -43t-140 -17q-87 0 -155 25.5t-115 71.5t-71.5 109.5t-24.5 138.5q0 78 26.5 143t76 111t121 71.5
t161.5 25.5q111 0 200 -39l-10 -93q-42 20 -90 31t-100 11z" />
    <glyph glyph-name="H" unicode="H" horiz-adv-x="722" 
d="M188 0h-104v676h104v-282h346v282h104v-676h-104v304h-346v-304z" />
    <glyph glyph-name="I" unicode="I" horiz-adv-x="276" 
d="M190 0h-104v676h104v-676z" />
    <glyph glyph-name="J" unicode="J" horiz-adv-x="408" 
d="M222 676h104v-485q0 -93 -49.5 -142t-144.5 -49h-71l-31 90h97q51 0 73 25t22 76v485z" />
    <glyph glyph-name="K" unicode="K" horiz-adv-x="651" 
d="M273 289q-6 8 -12.5 11.5t-17.5 3.5h-55v-304h-104v676h104v-282h84l220 282h124l-259 -328l167 -228q12 -17 25 -23.5t36 -6.5h54l-31 -90h-57q-38 0 -60.5 11.5t-40.5 36.5z" />
    <glyph glyph-name="L" unicode="L" horiz-adv-x="541" 
d="M186 159q0 -38 14.5 -53.5t51.5 -15.5h265l-31 -90h-271q-71 0 -102 33t-31 101v542h104v-517z" />
    <glyph glyph-name="M" unicode="M" horiz-adv-x="865" 
d="M436 213l258 463h87v-676h-100v453l-215 -366h-68l-214 370v-457h-100v676h89l259 -463h4z" />
    <glyph glyph-name="N" unicode="N" horiz-adv-x="733" 
d="M649 0h-72l-395 500v-500h-98v676h79l388 -488v488h98v-676z" />
    <glyph glyph-name="O" unicode="O" horiz-adv-x="786" 
d="M393 78q46 0 88 17.5t74.5 50.5t51.5 81t19 110q0 63 -18.5 111.5t-50.5 81.5t-74.5 50.5t-89.5 17.5t-89.5 -17.5t-74.5 -50.5t-50.5 -81.5t-18.5 -111.5q0 -62 19 -110t51.5 -81t74.5 -50.5t88 -17.5zM393 -10q-70 0 -132 23.5t-108.5 68t-73.5 109t-27 146.5
q0 83 27.5 148t74.5 109.5t109 68t130 23.5t130 -23.5t109 -68t74.5 -109.5t27.5 -148q0 -82 -27 -146.5t-73.5 -109t-108.5 -68t-132 -23.5z" />
    <glyph glyph-name="P" unicode="P" horiz-adv-x="600" 
d="M572 464q0 -46 -13 -88t-42 -74t-76 -51t-115 -19h-138v-232h-104v676h237q118 0 184.5 -50t66.5 -162zM318 322q76 0 111.5 33.5t35.5 100.5q0 70 -36.5 100t-107.5 30h-133v-264h130z" />
    <glyph glyph-name="Q" unicode="Q" horiz-adv-x="786" 
d="M370 -9q-66 3 -124 28.5t-101 69.5t-68 107t-25 141q0 83 27.5 148t74.5 109.5t109 68t130 23.5t130 -23.5t109 -68t74.5 -109.5t27.5 -148q0 -67 -18.5 -122t-50.5 -97.5t-76.5 -71.5t-96.5 -43l62 -65q13 -14 25.5 -18.5t35.5 -4.5h87l-31 -90h-83q-35 0 -57.5 10.5
t-45.5 34.5zM393 78q46 0 88 17t74.5 50t51.5 81.5t19 111.5q0 62 -18.5 110.5t-50.5 81.5t-74.5 50.5t-89.5 17.5t-89.5 -17.5t-74.5 -50.5t-50.5 -81.5t-18.5 -110.5q0 -63 19 -111.5t51.5 -81.5t74.5 -50t88 -17z" />
    <glyph glyph-name="R" unicode="R" horiz-adv-x="665" 
d="M327 341q72 0 107 34t35 94q0 64 -38.5 90.5t-104.5 26.5h-138v-245h139zM534 0q-38 0 -57.5 11.5t-36.5 36.5l-125 185q-8 11 -16 15t-26 4h-85v-252h-104v676h246q57 0 102 -11.5t77 -36.5t49 -63t17 -91q0 -77 -39 -133t-123 -74l100 -147q6 -9 11 -15t11 -9.5
t14 -4.5t20 -1h52l-25 -90h-62z" />
    <glyph glyph-name="S" unicode="S" horiz-adv-x="562" 
d="M261 79q77 0 114 31t37 79q0 27 -11 44.5t-31 30t-48 22t-62 19.5q-33 10 -68 22.5t-63.5 33.5t-47 53.5t-18.5 82.5q0 48 18.5 84t50.5 59t76.5 34.5t96.5 11.5q49 0 93 -8.5t86 -19.5l-7 -91q-45 14 -88 22t-82 8q-69 0 -102.5 -24t-33.5 -69q0 -25 9.5 -41.5
t27.5 -28.5t44.5 -21t60.5 -19q41 -12 78.5 -25.5t66 -34.5t45.5 -53t17 -81q0 -52 -19 -91t-53 -65.5t-81 -40t-102 -13.5q-56 0 -114 12.5t-105 34.5l12 95q48 -25 100 -39t103 -14z" />
    <glyph glyph-name="T" unicode="T" horiz-adv-x="597" 
d="M560 586h-214v-586h-104v586h-228v90h577z" />
    <glyph glyph-name="U" unicode="U" horiz-adv-x="705" 
d="M353 -10q-131 0 -203 64t-72 197v425h104v-421q0 -85 42.5 -130t128.5 -45q85 0 127.5 45t42.5 130v421h104v-425q0 -133 -72 -197t-202 -64z" />
    <glyph glyph-name="V" unicode="V" horiz-adv-x="674" 
d="M549 676h117l-284 -676h-84l-290 676h118l212 -515h7z" />
    <glyph glyph-name="W" unicode="W" horiz-adv-x="994" 
d="M332 0h-88l-232 676h115l157 -508h7l170 508h72l170 -508h7l157 508h115l-232 -676h-88l-161 479h-7z" />
    <glyph glyph-name="X" unicode="X" horiz-adv-x="647" 
d="M384 345l247 -345h-125l-187 265l-180 -265h-123l242 341l-241 335h123l182 -254l174 254h125z" />
    <glyph glyph-name="Y" unicode="Y" horiz-adv-x="611" 
d="M310 354l176 322h117l-244 -429v-247h-104v249l-247 427h120l179 -322h3z" />
    <glyph glyph-name="Z" unicode="Z" horiz-adv-x="613" 
d="M67 586l-29 90h538v-52l-397 -534h416l-29 -90h-538v55l394 531h-355z" />
    <glyph glyph-name="bracketleft" unicode="[" horiz-adv-x="359" 
d="M329 -144h-245v830h245v-83h-146v-664h146v-83z" />
    <glyph glyph-name="backslash" unicode="\" horiz-adv-x="414" 
d="M32 697h103l247 -717h-103z" />
    <glyph glyph-name="bracketright" unicode="]" horiz-adv-x="359" 
d="M30 -61h146v664h-146v83h245v-830h-245v83z" />
    <glyph glyph-name="asciicircum" unicode="^" horiz-adv-x="563" 
d="M159 259l-72 40l151 238h86l151 -238l-72 -40l-122 177h-1z" />
    <glyph glyph-name="underscore" unicode="_" horiz-adv-x="528" 
d="M512 -144h-496v68h496v-68z" />
    <glyph glyph-name="grave" unicode="`" 
d="M272 585l-220 105l48 81l210 -126z" />
    <glyph glyph-name="a" unicode="a" horiz-adv-x="547" 
d="M40 163q0 68 47 104.5t154 36.5h32q61 0 105 -9v42q0 60 -32.5 84.5t-100.5 24.5q-32 0 -70.5 -5.5t-80.5 -16.5l-9 84q89 23 173 23q112 0 167.5 -45t55.5 -139v-251v-49t2 -47h-88l-8 58h-2q-24 -32 -63 -50t-90 -18q-42 0 -77.5 12.5t-61 35t-39.5 54.5t-14 71z
M378 228h-155q-35 0 -56.5 -14.5t-21.5 -52.5q0 -43 28.5 -66.5t76.5 -23.5q54 0 91 28.5t37 76.5v52z" />
    <glyph glyph-name="b" unicode="b" horiz-adv-x="631" 
d="M587 270q0 -132 -75.5 -206t-212.5 -74q-31 0 -62.5 3.5t-60.5 10t-55 15t-45 18.5v668l103 28v-269h3q28 28 71 47.5t100 19.5q48 0 91 -16.5t74.5 -49t50 -81.5t18.5 -114zM179 100q25 -11 56.5 -17.5t65.5 -6.5q89 0 135 49t46 140q0 88 -41 134.5t-113 46.5
q-65 0 -107 -38t-42 -108v-200z" />
    <glyph glyph-name="c" unicode="c" horiz-adv-x="514" 
d="M480 22q-33 -14 -72 -23t-84 -9q-63 0 -114.5 18.5t-88.5 53.5t-57 85t-20 113q0 64 21 114.5t59 85.5t90.5 53t115.5 18q40 0 76 -7t68 -19l-14 -84q-26 11 -56.5 18t-65.5 7q-88 0 -138.5 -49t-50.5 -135q0 -40 12 -74.5t35.5 -59.5t58.5 -39t81 -14q36 0 70.5 8
t61.5 20z" />
    <glyph glyph-name="d" unicode="d" horiz-adv-x="635" 
d="M310 445q-73 0 -117 -50t-44 -140q0 -46 12 -79.5t33.5 -55.5t50.5 -33t63 -11q52 0 88.5 22t59.5 55v162q0 27 -10.5 50.5t-29.5 41.5t-46 28t-60 10zM559 139q0 -37 0.5 -70.5t1.5 -68.5h-87q-2 14 -4.5 28.5t-4.5 34.5h-2q-23 -29 -64 -51t-106 -22q-52 0 -97.5 16.5
t-79 50t-53 83.5t-19.5 116q0 69 21 120.5t56 86t80.5 51.5t95.5 17q57 0 96 -19.5t60 -48.5l3 1v241l103 28v-594z" />
    <glyph glyph-name="e" unicode="e" horiz-adv-x="565" 
d="M316 -10q-131 0 -201.5 68t-70.5 196q0 61 17 112t50 88t81 57t109 20q58 0 100 -18t69 -50.5t40 -76t13 -94.5q0 -17 -1.5 -34t-3.5 -31h-367q3 -70 45.5 -111t130.5 -41q36 0 78 7t74 18l11 -79q-38 -14 -82.5 -22.5t-91.5 -8.5zM296 452q-67 0 -104 -41.5t-40 -107.5
h268v11q0 21 -5 45t-18.5 44.5t-37.5 34.5t-63 14z" />
    <glyph glyph-name="f" unicode="f" horiz-adv-x="412" 
d="M177 427v-427h-103v534q0 103 56 155.5t161 52.5q32 0 63 -4.5t54 -10.5l-13 -83q-48 14 -96 14q-65 0 -93.5 -29t-28.5 -95v-21h209l-30 -86h-179z" />
    <glyph glyph-name="g" unicode="g" horiz-adv-x="633" 
d="M557 24q0 -136 -62.5 -199.5t-184.5 -63.5q-43 0 -86.5 7t-79.5 20l9 83q32 -12 72.5 -19t74.5 -7q79 0 116.5 41.5t37.5 132.5v34q-26 -26 -65.5 -42t-92.5 -16q-56 0 -102.5 19t-79.5 53t-51.5 82t-18.5 107q0 63 21 114t57 87t84 55t102 19q62 0 100 -22t59 -52h3
l10 65h77v-498zM454 318q0 57 -37.5 92.5t-100.5 35.5q-36 0 -66.5 -12.5t-53 -36t-35 -58t-12.5 -77.5q0 -44 12.5 -77.5t35 -56.5t52 -35t64.5 -12q46 0 81 18.5t60 47.5v171z" />
    <glyph glyph-name="h" unicode="h" horiz-adv-x="601" 
d="M357 531q89 0 133 -50q21 -23 32 -58t11 -83v-340h-103v329q0 53 -20 80q-14 20 -36.5 28t-48.5 8q-38 0 -77.5 -13.5t-68.5 -33.5v-398h-103v705l103 28v-255q44 26 87.5 39.5t90.5 13.5z" />
    <glyph glyph-name="i" unicode="i" horiz-adv-x="263" 
d="M80 522h103v-522h-103v522zM185 611h-107v101l107 28v-129z" />
    <glyph glyph-name="j" unicode="j" horiz-adv-x="259" 
d="M80 522h103v-543q0 -108 -42 -163t-132 -55q-26 0 -49 4t-43 11l7 82q33 -11 68 -11q50 0 69 29t19 99v547zM185 611h-106v101l106 28v-129z" />
    <glyph glyph-name="k" unicode="k" horiz-adv-x="566" 
d="M521 0h-49q-35 0 -59.5 12.5t-46.5 42.5l-122 171q-5 8 -10 10t-14 2h-42v-238h-103v705l103 28v-409h58l170 198h125l-207 -236l124 -174q11 -17 22 -21.5t32 -4.5h48z" />
    <glyph glyph-name="l" unicode="l" horiz-adv-x="263" 
d="M183 0h-103v705l103 28v-733z" />
    <glyph glyph-name="m" unicode="m" horiz-adv-x="914" 
d="M725 409q-24 36 -79 36q-34 0 -73 -13t-66 -33q2 -14 3.5 -30.5t1.5 -38.5v-330h-103v313q0 67 -21 99.5t-76 32.5q-38 0 -73 -14t-60 -33v-398h-103v522h91l8 -47q32 23 76 39.5t96 16.5q48 0 80.5 -16.5t55.5 -45.5q41 27 87.5 44.5t101.5 17.5q91 0 132.5 -51
t41.5 -144v-336h-103v313q0 33 -3.5 56t-14.5 40z" />
    <glyph glyph-name="n" unicode="n" horiz-adv-x="601" 
d="M357 531q39 0 71.5 -10.5t55.5 -33.5t36 -59.5t13 -87.5v-340h-103v329q0 58 -25.5 87t-79.5 29q-40 0 -78.5 -13.5t-67.5 -33.5v-398h-103v522h91l8 -47q37 25 84 40.5t98 15.5z" />
    <glyph glyph-name="o" unicode="o" horiz-adv-x="620" 
d="M310 73q71 0 116 49t45 139q0 89 -44.5 138t-116.5 49t-116.5 -49t-44.5 -138q0 -90 45 -139t116 -49zM310 -10q-64 0 -113.5 20t-83.5 55.5t-51.5 85t-17.5 108.5q0 60 18 110t52.5 86t83.5 56t112 20t112 -20t83.5 -56t52.5 -86t18 -110q0 -59 -17.5 -108.5t-51.5 -85
t-83.5 -55.5t-113.5 -20z" />
    <glyph glyph-name="p" unicode="p" horiz-adv-x="640" 
d="M179 142q24 -29 65 -47.5t87 -18.5q39 0 68.5 13.5t50 38.5t31 59t10.5 75q0 46 -12.5 80.5t-34.5 57t-52 34t-65 11.5q-33 0 -60 -9.5t-46.5 -26.5t-30.5 -41t-11 -52v-174zM343 531q54 0 100.5 -17.5t80 -51.5t53 -83.5t19.5 -113.5q0 -65 -20 -116t-54.5 -86t-82 -54
t-101.5 -19q-51 0 -92 15t-67 38v-245l-103 -28v752h83l11 -69h3q32 42 75 60t95 18z" />
    <glyph glyph-name="q" unicode="q" horiz-adv-x="636" 
d="M44 257q0 65 21 116t57 86t84 53.5t102 18.5q60 0 100 -21t62 -53h3l10 65h77v-737l-103 -23v292q-26 -28 -67 -46t-95 -18q-52 0 -97.5 18t-79.5 52t-54 84t-20 113zM149 259q0 -87 45.5 -135t118.5 -48q51 0 87.5 22t56.5 52v168q0 26 -10 49t-28 40.5t-44.5 28
t-59.5 10.5q-35 0 -65.5 -12.5t-53 -36t-35 -58.5t-12.5 -80z" />
    <glyph glyph-name="r" unicode="r" horiz-adv-x="388" 
d="M174 449q34 32 81.5 54.5t104.5 27.5l-8 -101q-48 -4 -92.5 -19t-80.5 -41v-370h-103v522h91z" />
    <glyph glyph-name="s" unicode="s" horiz-adv-x="460" 
d="M215 75q57 0 82.5 19t25.5 49q0 18 -8 30t-23 21t-35.5 16.5t-44.5 16.5q-25 9 -52.5 21t-50.5 30t-38 44t-15 64q0 37 15.5 64.5t42.5 45.5t63.5 26.5t77.5 8.5q37 0 73.5 -6t68.5 -16l-9 -84q-29 11 -60.5 17t-66.5 6q-48 0 -75 -13.5t-27 -45.5t29.5 -48t82.5 -33
q37 -12 65.5 -25.5t48 -31t29.5 -41t10 -56.5q0 -42 -16 -73t-44 -51t-66 -30t-81 -10t-88.5 9t-82.5 24l9 89q35 -17 77 -27t83 -10z" />
    <glyph glyph-name="t" unicode="t" horiz-adv-x="396" 
d="M175 427v-253q0 -50 19.5 -71.5t72.5 -21.5q21 0 43.5 2.5t39.5 7.5l6 -80q-23 -7 -51 -11t-59 -4q-91 0 -132.5 42.5t-41.5 143.5v455l103 21v-145h185l-30 -86h-155z" />
    <glyph glyph-name="u" unicode="u" horiz-adv-x="594" 
d="M297 -10q-113 0 -170 48.5t-57 159.5v324h103v-324q0 -124 124 -124q62 0 93 32t31 92v324h103v-324q0 -100 -56.5 -154t-170.5 -54z" />
    <glyph glyph-name="v" unicode="v" horiz-adv-x="553" 
d="M240 0l-230 522h112l155 -380h3l152 380h111l-227 -522h-76z" />
    <glyph glyph-name="w" unicode="w" horiz-adv-x="823" 
d="M582 149h4l113 373h112l-184 -522h-83l-133 365h-4l-130 -365h-84l-181 522h112l115 -373h4l128 373h77z" />
    <glyph glyph-name="x" unicode="x" horiz-adv-x="552" 
d="M402 522h120l-189 -253l205 -269h-121l-144 194h-2l-137 -194h-120l198 267l-191 255h121l131 -180h2z" />
    <glyph glyph-name="y" unicode="y" horiz-adv-x="544" 
d="M218 -239l-94 25l105 234l-219 502h115l154 -377h3l140 377h112z" />
    <glyph glyph-name="z" unicode="z" horiz-adv-x="518" 
d="M336 436h-267l-29 86h444v-50l-303 -386h309l-29 -86h-429v48z" />
    <glyph glyph-name="braceleft" unicode="{" horiz-adv-x="400" 
d="M158 269q36 -13 55.5 -43.5t19.5 -87.5v-130q0 -32 11.5 -50.5t51.5 -18.5h74v-83h-85q-78 0 -115 38t-37 105v135q0 28 -6 46.5t-17.5 30t-29 17t-40.5 7.5v72q23 2 40.5 7.5t29 16.5t17.5 29.5t6 47.5v135q0 67 37 105t115 38h85v-83h-74q-40 0 -51.5 -18.5
t-11.5 -50.5v-130q0 -57 -19.5 -87.5t-55.5 -43.5v-4z" />
    <glyph glyph-name="bar" unicode="|" horiz-adv-x="263" 
d="M179 0h-95v730h95v-730z" />
    <glyph glyph-name="braceright" unicode="}" horiz-adv-x="400" 
d="M242 273q-36 13 -55.5 43.5t-19.5 87.5v130q0 32 -11.5 50.5t-51.5 18.5h-74v83h85q78 0 115 -38t37 -105v-135q0 -29 6 -47.5t17.5 -29.5t29 -16.5t40.5 -7.5v-72q-23 -2 -40.5 -7.5t-29 -17t-17.5 -30t-6 -46.5v-135q0 -67 -37 -105t-115 -38h-85v83h74q40 0 51.5 18.5
t11.5 50.5v130q0 57 19.5 87.5t55.5 43.5v4z" />
    <glyph glyph-name="asciitilde" unicode="~" horiz-adv-x="563" 
d="M373 181q-34 0 -59 12t-46 27t-41 27t-43 12q-28 0 -50.5 -19t-40.5 -48l-56 43q29 49 66 79t87 30q33 0 57.5 -12.5t45 -27.5t40.5 -27.5t44 -12.5q32 0 54 23t36 51l59 -48q-25 -45 -62 -77t-91 -32z" />
    <glyph glyph-name="nonbreakingspace" unicode="&#xa0;" horiz-adv-x="222" 
 />
    <glyph glyph-name="exclamdown" unicode="&#xa1;" horiz-adv-x="278" 
d="M99.9941 333.979h78.9951l13.999 -496.97h-107.993zM188.988 435.974l-98.9941 -21.999v107.993h98.9941v-85.9941z" />
    <glyph glyph-name="cent" unicode="&#xa2;" horiz-adv-x="610" 
d="M520 22q-31 -14 -66 -22t-76 -10v-84h-71v88q-51 7 -92 29t-70.5 55.5t-45 79t-15.5 101.5t16 102t45 79.5t70.5 55.5t91.5 30v94h71v-89q38 -1 71.5 -8t64.5 -18l-14 -84q-26 11 -56.5 18t-65.5 7v-371q35 0 69 8t61 20zM189 262q0 -64 29.5 -111.5t88.5 -65.5v351
q-57 -17 -87.5 -62.5t-30.5 -111.5z" />
    <glyph glyph-name="sterling" unicode="&#xa3;" horiz-adv-x="610" 
d="M538 0h-463v75q45 23 64.5 60t19.5 86v87h-85v82h85v81q0 107 59 161t172 54q42 0 80 -7t73 -21l-11 -85q-30 14 -63.5 20.5t-67.5 6.5q-73 0 -105.5 -31.5t-32.5 -98.5v-80h219l-26 -82h-193v-94q0 -46 -13 -75.5t-49 -49.5v-3h366z" />
    <glyph glyph-name="currency" unicode="&#xa4;" horiz-adv-x="554" 
d="M468 347q0 -25 -7 -51.5t-21 -47.5l74 -73l-61 -54l-69 70q-48 -28 -107 -28t-107 28l-69 -70l-61 54l74 73q-14 21 -21 47.5t-7 51.5t7 51t21 47l-74 73l61 54l69 -70q48 28 107 28t107 -28l69 70l61 -54l-74 -73q14 -21 21 -47t7 -51zM375 347q0 45 -26.5 73t-71.5 28
t-71.5 -28t-26.5 -73t26.5 -73.5t71.5 -28.5t71.5 28.5t26.5 73.5z" />
    <glyph glyph-name="yen" unicode="&#xa5;" horiz-adv-x="610" 
d="M310 354l176 322h117l-160 -279h124l-24 -73h-141l-40 -71h187l-23 -74h-167v-179h-104v179h-175v74h173l-41 71h-142v73h99l-161 279h120l179 -322h3z" />
    <glyph glyph-name="brokenbar" unicode="&#xa6;" horiz-adv-x="263" 
d="M179 273v-273h-95v273h95zM84 464v266h95v-266h-95z" />
    <glyph glyph-name="section" unicode="&#xa7;" horiz-adv-x="538" 
d="M84 550q0 65 52 100.5t144 35.5q39 0 73.5 -6.5t66.5 -17.5l-10 -79q-30 11 -61.5 17t-67.5 6q-48 0 -75 -12.5t-27 -41.5q0 -13 6.5 -22t21.5 -17.5t40.5 -17t63.5 -20.5q75 -24 116 -52.5t41 -82.5q0 -34 -17 -63t-55 -48q55 -36 55 -101q0 -35 -14.5 -60.5t-40 -43
t-61 -26t-78.5 -8.5q-51 0 -96.5 10.5t-76.5 26.5l10 78q34 -16 76 -25.5t82 -9.5q45 0 75 13.5t30 43.5q0 16 -10 27t-27.5 19.5t-41 15t-50.5 15.5q-34 11 -63 23t-50 28t-33 37t-12 50q0 34 18.5 61t58.5 44q-63 37 -63 103zM165 355q0 -15 7.5 -26t23 -20t40 -18.5
t59.5 -21.5l29 -10q23 10 36 28t13 39q0 16 -8.5 27t-25.5 20.5t-42 18t-58 19.5l-24 8q-50 -22 -50 -64z" />
    <glyph glyph-name="dieresis" unicode="&#xa8;" 
d="M334 622h-109v92l109 28v-120zM131 622h-109v92l109 28v-120z" />
    <glyph glyph-name="copyright" unicode="&#xa9;" horiz-adv-x="855" 
d="M538 438q-22 8 -44 13t-45 5q-54 0 -85 -27.5t-31 -84.5q0 -56 31 -85.5t89 -29.5q43 0 87 18l5 -68q-22 -8 -47 -13.5t-55 -5.5q-48 0 -83.5 14.5t-59.5 39t-36 58.5t-12 73q0 81 49.5 130.5t141.5 49.5q30 0 55 -5.5t47 -13.5zM809 338q0 -72 -25.5 -136.5t-74.5 -114
t-120 -78.5t-162 -29t-162 29t-119.5 78.5t-74 114t-25.5 136.5t25.5 136.5t74 114t119.5 78.5t162 29t162 -29t120 -78.5t74.5 -114t25.5 -136.5zM725 338q0 59 -20 111t-58.5 91t-94 61.5t-125.5 22.5q-71 0 -126 -22.5t-93 -61.5t-58 -91t-20 -111t20 -111t58 -91
t93 -61.5t126 -22.5q70 0 125.5 22.5t94 61.5t58.5 91t20 111z" />
    <glyph glyph-name="ordfeminine" unicode="&#xaa;" horiz-adv-x="375" 
d="M154 337q-23 0 -45 6.5t-38.5 20t-26.5 33.5t-10 48q0 48 31 71.5t88 23.5h21q37 0 69 -6v17q0 32 -20 43.5t-56 11.5q-44 0 -97 -14l-6 65q64 16 118 16q69 0 106.5 -27t37.5 -91v-144v-34t2 -35h-69l-6 40h-4q-11 -17 -34 -31t-61 -14zM243 484h-76q-49 0 -49 -37
q0 -20 15 -34t42 -14q28 0 48 15.5t20 38.5v31z" />
    <glyph glyph-name="guillemotleft" unicode="&#xab;" horiz-adv-x="569" 
d="M289 92l-58 -50l-217 210l218 204l56 -46l-156 -158zM549 92l-58 -50l-217 210l218 204l56 -46l-156 -158z" />
    <glyph glyph-name="logicalnot" unicode="&#xac;" horiz-adv-x="563" 
d="M483 124h-90v191h-325v84h415v-275z" />
    <glyph glyph-name="uni00AD" unicode="&#xad;" horiz-adv-x="303" 
d="M244 218h-208v86h239z" />
    <glyph glyph-name="registered" unicode="&#xae;" horiz-adv-x="855" 
d="M809 338q0 -72 -25.5 -136.5t-74.5 -114t-120 -78.5t-162 -29t-162 29t-119.5 78.5t-74 114t-25.5 136.5t25.5 136.5t74 114t119.5 78.5t162 29t162 -29t120 -78.5t74.5 -114t25.5 -136.5zM725 338q0 59 -20 111t-58.5 91t-94 61.5t-125.5 22.5q-71 0 -126 -22.5
t-93 -61.5t-58 -91t-20 -111t20 -111t58 -91t93 -61.5t126 -22.5q70 0 125.5 22.5t94 61.5t58.5 91t20 111zM570 410q0 -42 -19 -67t-56 -39l39 -61q7 -9 12.5 -12t17.5 -3h26l-19 -63h-41q-32 0 -49 26l-55 87q-8 12 -25 12h-30v-125h-77v355h139q65 0 101 -26t36 -84z
M490 408q0 26 -13.5 36.5t-46.5 10.5h-59v-100h67q52 0 52 53z" />
    <glyph glyph-name="macron" unicode="&#xaf;" 
d="M326 640h-293v76h293v-76z" />
    <glyph glyph-name="degree" unicode="&#xb0;" horiz-adv-x="336" 
d="M168 504q27 0 43.5 17t16.5 43t-16.5 43t-43.5 17t-43.5 -17t-16.5 -43t16.5 -43t43.5 -17zM168 435q-28 0 -52 10t-42 27t-28 41t-10 51t10 51t28 41t42 27t52 10t52 -10t42 -27t28 -41t10 -51t-10 -51t-28 -41t-42 -27t-52 -10z" />
    <glyph glyph-name="plusminus" unicode="&#xb1;" horiz-adv-x="563" 
d="M467 313h-148v-146h-89v146h-157v83h157v146h89v-146h175zM467 0h-394v83h421z" />
    <glyph glyph-name="twosuperior" unicode="&#xb2;" horiz-adv-x="390" 
d="M331 348h-292v36q0 38 7 66t25 49q20 23 47.5 36.5t60.5 26.5q18 7 32 13t23.5 14t15 18.5t5.5 26.5q0 29 -18.5 42.5t-53.5 13.5q-29 0 -58 -7.5t-58 -20.5l-12 75q30 12 67 20.5t75 8.5q68 0 109 -30.5t41 -98.5q0 -32 -9 -53t-24.5 -35.5t-36.5 -24.5t-44 -20
q-36 -15 -57 -25.5t-31 -23.5q-5 -7 -6.5 -15t-1.5 -18h219z" />
    <glyph glyph-name="threesuperior" unicode="&#xb3;" horiz-adv-x="390" 
d="M336 656q0 -32 -14 -52.5t-39 -34.5v-2q71 -23 71 -96q0 -35 -14 -59.5t-38.5 -40.5t-57 -23.5t-69.5 -7.5q-35 0 -72.5 6t-65.5 17l6 75q29 -11 62 -16.5t62 -5.5q45 0 69 14.5t24 43.5q0 31 -25 41.5t-63 10.5h-67v67h73q34 0 52.5 12.5t18.5 37.5q0 49 -75 49
q-27 0 -56 -6t-58 -17l-12 70q32 13 67.5 20t70.5 7q68 0 109 -28t41 -82z" />
    <glyph glyph-name="acute" unicode="&#xb4;" 
d="M262 771l48 -81l-220 -105l-36 62z" />
    <glyph glyph-name="mu" unicode="&#xb5;" horiz-adv-x="594" 
d="M522 191q0 -44 -13 -81t-39.5 -63.5t-66.5 -41.5t-94 -15q-45 0 -79.5 12.5t-55.5 33.5v-237l-102 -29v752h103v-325q0 -57 30.5 -89t91.5 -32t91.5 32.5t30.5 91.5v322h103v-331z" />
    <glyph glyph-name="mu" unicode="&#x3bc;" horiz-adv-x="594" 
d="M522 191q0 -44 -13 -81t-39.5 -63.5t-66.5 -41.5t-94 -15q-45 0 -79.5 12.5t-55.5 33.5v-237l-102 -29v752h103v-325q0 -57 30.5 -89t91.5 -32t91.5 32.5t30.5 91.5v322h103v-331z" />
    <glyph glyph-name="paragraph" unicode="&#xb6;" horiz-adv-x="600" 
d="M566 611h-76v-709h-89v709h-89v-709h-92v412q-42 4 -76 19.5t-58.5 40t-38 57t-13.5 70.5q0 39 14.5 73t40.5 59t63.5 39t84.5 14h355z" />
    <glyph glyph-name="periodcentered" unicode="&#xb7;" horiz-adv-x="241" 
d="M60 329l121 27v-135h-121v108z" />
    <glyph glyph-name="cedilla" unicode="&#xb8;" 
d="M297 -138q0 -44 -34 -72.5t-97 -28.5q-21 0 -46 3.5t-44 8.5l3 62q16 -5 35.5 -8t36.5 -3q29 0 45.5 9t16.5 27t-16 25t-40 7h-72l28 108h69l-12 -51h19q49 0 78.5 -22.5t29.5 -64.5z" />
    <glyph glyph-name="onesuperior" unicode="&#xb9;" horiz-adv-x="390" 
d="M68 422h98v231l-100 -55l-31 71l158 89h67v-336h106l-27 -74h-271v74z" />
    <glyph glyph-name="ordmasculine" unicode="&#xba;" horiz-adv-x="383" 
d="M192 337q-85 0 -129.5 45.5t-44.5 123.5q0 76 43 121.5t131 45.5t130.5 -45.5t42.5 -121.5q0 -78 -44 -123.5t-129 -45.5zM192 606q-42 0 -64.5 -26t-22.5 -74t22.5 -75.5t64.5 -27.5t64.5 27.5t22.5 75.5t-22.5 74t-64.5 26z" />
    <glyph glyph-name="guillemotright" unicode="&#xbb;" horiz-adv-x="568" 
d="M177 252l-156 158l56 46l218 -204l-217 -210l-58 50zM436 252l-156 158l56 46l218 -204l-217 -210l-58 50z" />
    <glyph glyph-name="onequarter" unicode="&#xbc;" horiz-adv-x="1000" 
d="M928 82h-53v-82h-88v82h-224v54l223 273h89v-254h80zM787 155v148l-117 -148h117zM733 712l79 -48l-487 -681l-79 48zM69 340h98v231l-100 -55l-31 71l158 89h67v-336h106l-27 -74h-271v74z" />
    <glyph glyph-name="onehalf" unicode="&#xbd;" horiz-adv-x="1000" 
d="M724 712l79 -48l-487 -681l-79 48zM59 340h98v231l-100 -55l-31 71l158 89h67v-336h106l-27 -74h-271v74zM952 0h-292v36q0 38 7 66t25 49q20 23 47.5 36.5t60.5 26.5q18 7 32 13t23.5 14t15 18.5t5.5 26.5q0 29 -18.5 42.5t-53.5 13.5q-29 0 -58 -7.5t-58 -20.5l-12 75
q30 12 67 20.5t75 8.5q68 0 109 -30.5t41 -98.5q0 -32 -9 -53t-24.5 -35.5t-36.5 -24.5t-44 -20q-36 -15 -57 -25.5t-31 -23.5q-5 -7 -6.5 -15t-1.5 -18h219z" />
    <glyph glyph-name="threequarters" unicode="&#xbe;" horiz-adv-x="1000" 
d="M923 82h-53v-82h-88v82h-224v54l223 273h89v-254h80zM782 155v148l-117 -148h117zM718 712l79 -48l-487 -681l-79 48zM359 574q0 -32 -14 -52.5t-39 -34.5v-2q71 -23 71 -96q0 -35 -14 -59.5t-38.5 -40.5t-57 -23.5t-69.5 -7.5q-35 0 -72.5 6t-65.5 17l6 75
q29 -11 62 -16.5t62 -5.5q45 0 69 14.5t24 43.5q0 31 -25 41.5t-63 10.5h-67v67h73q34 0 52.5 12.5t18.5 37.5q0 49 -75 49q-27 0 -56 -6t-58 -17l-12 70q32 13 67.5 20t70.5 7q68 0 109 -28t41 -82z" />
    <glyph glyph-name="questiondown" unicode="&#xbf;" horiz-adv-x="490" 
d="M37.998 15.999q0 34.998 9.49902 60.9961q9.49902 25.999 25.498 45.9971q15.999 19.999 35.998 35.998t40.998 30.998q27.998 19.999 46.4971 33.998t29.498 26.498q10.999 12.5 15.999 26.999t5.99902 33.498l1 22.998h78.9961q0 -22.998 -1 -41.4971t-4 -34.498
q-3 -18.999 -9.5 -33.998q-6.49902 -14.999 -17.498 -29.498q-11 -14.499 -26.999 -28.998t-39.9971 -31.498q-18.999 -14 -34.498 -25.999t-26.998 -25.498q-11.5 -13.499 -17.499 -28.498q-6 -14.999 -6 -34.998q0 -45.9971 32.998 -71.4961
q32.998 -25.498 94.9941 -25.498q41.9971 0 87.9951 11.499q45.9971 11.499 83.9941 28.498l14.999 -79.9951q-43.9971 -19.998 -93.4941 -32.998q-49.4971 -12.999 -105.493 -12.999q-105.994 0 -163.99 47.4971t-57.9961 132.492zM337.979 435.974l-98.9941 -21.999
v107.993h98.9941v-85.9941z" />
    <glyph glyph-name="Agrave" unicode="&#xc0;" horiz-adv-x="673" 
d="M482 157h-289l-62 -157h-113l278 678h85l274 -678h-111zM228 247h219l-105 272h-8zM401 733l-220 105l48 80l210 -125z" />
    <glyph glyph-name="Aacute" unicode="&#xc1;" horiz-adv-x="673" 
d="M482 157h-289l-62 -157h-113l278 678h85l274 -678h-111zM228 247h219l-105 272h-8zM455 918l48 -80l-220 -105l-36 61z" />
    <glyph glyph-name="Acircumflex" unicode="&#xc2;" horiz-adv-x="673" 
d="M482 157h-289l-62 -157h-113l278 678h85l274 -678h-111zM228 247h219l-105 272h-8zM494 765l-60 -33l-91 107h-10l-91 -107l-62 33l112 150h91z" />
    <glyph glyph-name="Atilde" unicode="&#xc3;" horiz-adv-x="673" 
d="M482 157h-289l-62 -157h-113l278 678h85l274 -678h-111zM228 247h219l-105 272h-8zM521 849q-15 -51 -43 -76t-63 -25q-22 0 -41.5 8t-37.5 17.5t-34 17.5t-29 8q-17 0 -33 -14.5t-26 -40.5l-60 26q20 56 51 83t68 27q22 0 42 -8.5t37 -18t32.5 -18t29.5 -8.5
q17 0 28.5 13.5t19.5 36.5z" />
    <glyph glyph-name="Adieresis" unicode="&#xc4;" horiz-adv-x="673" 
d="M482 157h-289l-62 -157h-113l278 678h85l274 -678h-111zM228 247h219l-105 272h-8zM494 758h-109v92l109 28v-120zM291 758h-109v92l109 28v-120z" />
    <glyph glyph-name="Aring" unicode="&#xc5;" horiz-adv-x="673" 
d="M482 157h-289l-62 -157h-113l278 678h85l274 -678h-111zM228 247h219l-105 272h-8zM445 826q0 -44 -30 -73.5t-76 -29.5q-47 0 -77.5 30t-30.5 73t30.5 72.5t76.5 29.5q47 0 77 -29.5t30 -72.5zM380 825q0 18 -12 31t-30 13t-30 -12.5t-12 -31.5q0 -18 12 -30.5t30 -12.5
t30 12.5t12 30.5z" />
    <glyph glyph-name="AE" unicode="&#xc6;" horiz-adv-x="954" 
d="M589 0q-71 0 -102 33t-31 101v24h-240l-95 -158h-119l415 676h490l-31 -90h-316v-213h277l-4 -89h-273v-125q0 -25 5.5 -39t18.5 -20.5t33.5 -8t49.5 -1.5h241l-31 -90h-288zM456 247v311l-187 -311h187z" />
    <glyph glyph-name="Ccedilla" unicode="&#xc7;" horiz-adv-x="653" 
d="M523 -138q0 -44 -34 -72.5t-97 -28.5q-21 0 -46 3.5t-44 8.5l3 62q16 -5 35.5 -8t36.5 -3q29 0 45.5 9t16.5 27t-16 25t-40 7h-72l27 104q-71 10 -124.5 40.5t-89.5 75.5t-54 102.5t-18 122.5q0 76 24.5 140t71 110.5t113.5 72.5t152 26q60 0 112 -11.5t84 -28.5l-10 -92
q-43 20 -89 31t-93 11q-60 0 -107.5 -18t-81 -51.5t-51 -81t-17.5 -105.5q0 -59 18.5 -107t52 -82t82 -52.5t108.5 -18.5q45 0 94 10t86 28l10 -89q-38 -18 -91 -28.5t-109 -10.5h-6l-9 -41h19q49 0 78.5 -22.5t29.5 -64.5z" />
    <glyph glyph-name="Egrave" unicode="&#xc8;" horiz-adv-x="580" 
d="M215 0q-71 0 -102 33t-31 101v542h451l-31 -90h-316v-213h277l-4 -89h-273v-125q0 -25 5.5 -39t18.5 -20.5t33.5 -8t49.5 -1.5h241l-31 -90h-288zM365 733l-220 105l48 80l210 -125z" />
    <glyph glyph-name="Eacute" unicode="&#xc9;" horiz-adv-x="580" 
d="M215 0q-71 0 -102 33t-31 101v542h451l-31 -90h-316v-213h277l-4 -89h-273v-125q0 -25 5.5 -39t18.5 -20.5t33.5 -8t49.5 -1.5h241l-31 -90h-288zM418 918l48 -80l-220 -105l-36 61z" />
    <glyph glyph-name="Ecircumflex" unicode="&#xca;" horiz-adv-x="580" 
d="M215 0q-71 0 -102 33t-31 101v542h451l-31 -90h-316v-213h277l-4 -89h-273v-125q0 -25 5.5 -39t18.5 -20.5t33.5 -8t49.5 -1.5h241l-31 -90h-288zM462 765l-60 -33l-91 107h-10l-91 -107l-62 33l112 150h91z" />
    <glyph glyph-name="Edieresis" unicode="&#xcb;" horiz-adv-x="580" 
d="M215 0q-71 0 -102 33t-31 101v542h451l-31 -90h-316v-213h277l-4 -89h-273v-125q0 -25 5.5 -39t18.5 -20.5t33.5 -8t49.5 -1.5h241l-31 -90h-288zM466 758h-109v92l109 28v-120zM263 758h-109v92l109 28v-120z" />
    <glyph glyph-name="Igrave" unicode="&#xcc;" horiz-adv-x="276" 
d="M190 0h-104v676h104v-676zM199 733l-220 105l48 80l210 -125z" />
    <glyph glyph-name="Iacute" unicode="&#xcd;" horiz-adv-x="276" 
d="M190 0h-104v676h104v-676zM255 918l48 -80l-220 -105l-36 61z" />
    <glyph glyph-name="Icircumflex" unicode="&#xce;" horiz-adv-x="276" 
d="M190 0h-104v676h104v-676zM296 765l-60 -33l-91 107h-10l-91 -107l-62 33l112 150h91z" />
    <glyph glyph-name="Idieresis" unicode="&#xcf;" horiz-adv-x="276" 
d="M190 0h-104v676h104v-676zM296 758h-109v92l109 28v-120zM93 758h-109v92l109 28v-120z" />
    <glyph glyph-name="Eth" unicode="&#xd0;" horiz-adv-x="760" 
d="M16 376h80v300h243q88 0 156.5 -19t115.5 -59t72 -102.5t25 -148.5q0 -80 -22 -144.5t-68.5 -109.5t-117.5 -69t-169 -24h-235v292h-80v84zM600 348q0 129 -66 183.5t-200 54.5h-134v-210h161l-29 -84h-132v-202h145q131 0 193 66.5t62 191.5z" />
    <glyph glyph-name="Ntilde" unicode="&#xd1;" horiz-adv-x="733" 
d="M649 0h-72l-395 500v-500h-98v676h79l388 -488v488h98v-676zM553 849q-15 -51 -43 -76t-63 -25q-22 0 -41.5 8t-37.5 17.5t-34 17.5t-29 8q-17 0 -33 -14.5t-26 -40.5l-60 26q20 56 51 83t68 27q22 0 42 -8.5t37 -18t32.5 -18t29.5 -8.5q17 0 28.5 13.5t19.5 36.5z" />
    <glyph glyph-name="Ograve" unicode="&#xd2;" horiz-adv-x="786" 
d="M393 78q46 0 88 17.5t74.5 50.5t51.5 81t19 110q0 63 -18.5 111.5t-50.5 81.5t-74.5 50.5t-89.5 17.5t-89.5 -17.5t-74.5 -50.5t-50.5 -81.5t-18.5 -111.5q0 -62 19 -110t51.5 -81t74.5 -50.5t88 -17.5zM393 -10q-70 0 -132 23.5t-108.5 68t-73.5 109t-27 146.5
q0 83 27.5 148t74.5 109.5t109 68t130 23.5t130 -23.5t109 -68t74.5 -109.5t27.5 -148q0 -82 -27 -146.5t-73.5 -109t-108.5 -68t-132 -23.5zM471 733l-220 105l48 80l210 -125z" />
    <glyph glyph-name="Oacute" unicode="&#xd3;" horiz-adv-x="786" 
d="M393 78q46 0 88 17.5t74.5 50.5t51.5 81t19 110q0 63 -18.5 111.5t-50.5 81.5t-74.5 50.5t-89.5 17.5t-89.5 -17.5t-74.5 -50.5t-50.5 -81.5t-18.5 -111.5q0 -62 19 -110t51.5 -81t74.5 -50.5t88 -17.5zM393 -10q-70 0 -132 23.5t-108.5 68t-73.5 109t-27 146.5
q0 83 27.5 148t74.5 109.5t109 68t130 23.5t130 -23.5t109 -68t74.5 -109.5t27.5 -148q0 -82 -27 -146.5t-73.5 -109t-108.5 -68t-132 -23.5zM486 918l48 -80l-220 -105l-36 61z" />
    <glyph glyph-name="Ocircumflex" unicode="&#xd4;" horiz-adv-x="786" 
d="M393 78q46 0 88 17.5t74.5 50.5t51.5 81t19 110q0 63 -18.5 111.5t-50.5 81.5t-74.5 50.5t-89.5 17.5t-89.5 -17.5t-74.5 -50.5t-50.5 -81.5t-18.5 -111.5q0 -62 19 -110t51.5 -81t74.5 -50.5t88 -17.5zM393 -10q-70 0 -132 23.5t-108.5 68t-73.5 109t-27 146.5
q0 83 27.5 148t74.5 109.5t109 68t130 23.5t130 -23.5t109 -68t74.5 -109.5t27.5 -148q0 -82 -27 -146.5t-73.5 -109t-108.5 -68t-132 -23.5zM552 765l-60 -33l-91 107h-10l-91 -107l-62 33l112 150h91z" />
    <glyph glyph-name="Otilde" unicode="&#xd5;" horiz-adv-x="786" 
d="M393 78q46 0 88 17.5t74.5 50.5t51.5 81t19 110q0 63 -18.5 111.5t-50.5 81.5t-74.5 50.5t-89.5 17.5t-89.5 -17.5t-74.5 -50.5t-50.5 -81.5t-18.5 -111.5q0 -62 19 -110t51.5 -81t74.5 -50.5t88 -17.5zM393 -10q-70 0 -132 23.5t-108.5 68t-73.5 109t-27 146.5
q0 83 27.5 148t74.5 109.5t109 68t130 23.5t130 -23.5t109 -68t74.5 -109.5t27.5 -148q0 -82 -27 -146.5t-73.5 -109t-108.5 -68t-132 -23.5zM577 849q-15 -51 -43 -76t-63 -25q-22 0 -41.5 8t-37.5 17.5t-34 17.5t-29 8q-17 0 -33 -14.5t-26 -40.5l-60 26q20 56 51 83
t68 27q22 0 42 -8.5t37 -18t32.5 -18t29.5 -8.5q17 0 28.5 13.5t19.5 36.5z" />
    <glyph glyph-name="Odieresis" unicode="&#xd6;" horiz-adv-x="786" 
d="M393 78q46 0 88 17.5t74.5 50.5t51.5 81t19 110q0 63 -18.5 111.5t-50.5 81.5t-74.5 50.5t-89.5 17.5t-89.5 -17.5t-74.5 -50.5t-50.5 -81.5t-18.5 -111.5q0 -62 19 -110t51.5 -81t74.5 -50.5t88 -17.5zM393 -10q-70 0 -132 23.5t-108.5 68t-73.5 109t-27 146.5
q0 83 27.5 148t74.5 109.5t109 68t130 23.5t130 -23.5t109 -68t74.5 -109.5t27.5 -148q0 -82 -27 -146.5t-73.5 -109t-108.5 -68t-132 -23.5zM549 758h-109v92l109 28v-120zM346 758h-109v92l109 28v-120z" />
    <glyph glyph-name="multiply" unicode="&#xd7;" horiz-adv-x="563" 
d="M280 203l-132 -135l-61 61l135 134l-135 134l61 60l134 -133l133 133l61 -60l-135 -134l135 -134l-61 -61z" />
    <glyph glyph-name="Oslash" unicode="&#xd8;" horiz-adv-x="786" 
d="M393 -10q-88 0 -162 37l-51 -77l-63 40l51 77q-54 45 -85 113t-31 157q0 83 27.5 148t74.5 109.5t109 68t130 23.5q88 0 162 -38l53 80l64 -40l-54 -81q53 -45 84.5 -113t31.5 -157q0 -82 -27 -146.5t-73.5 -109t-108.5 -68t-132 -23.5zM160 338q0 -60 17.5 -106.5
t46.5 -79.5l279 419q-50 27 -110 27q-47 0 -89.5 -17.5t-74.5 -50.5t-50.5 -81.5t-18.5 -110.5zM393 78q46 0 88 17.5t74.5 50.5t51.5 81t19 110q0 60 -17.5 107t-46.5 80l-279 -419q49 -27 110 -27z" />
    <glyph glyph-name="Ugrave" unicode="&#xd9;" horiz-adv-x="705" 
d="M353 -10q-131 0 -203 64t-72 197v425h104v-421q0 -85 42.5 -130t128.5 -45q85 0 127.5 45t42.5 130v421h104v-425q0 -133 -72 -197t-202 -64zM415 733l-220 105l48 80l210 -125z" />
    <glyph glyph-name="Uacute" unicode="&#xda;" horiz-adv-x="705" 
d="M353 -10q-131 0 -203 64t-72 197v425h104v-421q0 -85 42.5 -130t128.5 -45q85 0 127.5 45t42.5 130v421h104v-425q0 -133 -72 -197t-202 -64zM478 918l48 -80l-220 -105l-36 61z" />
    <glyph glyph-name="Ucircumflex" unicode="&#xdb;" horiz-adv-x="705" 
d="M353 -10q-131 0 -203 64t-72 197v425h104v-421q0 -85 42.5 -130t128.5 -45q85 0 127.5 45t42.5 130v421h104v-425q0 -133 -72 -197t-202 -64zM515 765l-60 -33l-91 107h-10l-91 -107l-62 33l112 150h91z" />
    <glyph glyph-name="Udieresis" unicode="&#xdc;" horiz-adv-x="705" 
d="M353 -10q-131 0 -203 64t-72 197v425h104v-421q0 -85 42.5 -130t128.5 -45q85 0 127.5 45t42.5 130v421h104v-425q0 -133 -72 -197t-202 -64zM511 758h-109v92l109 28v-120zM308 758h-109v92l109 28v-120z" />
    <glyph glyph-name="Yacute" unicode="&#xdd;" horiz-adv-x="611" 
d="M310 354l176 322h117l-244 -429v-247h-104v249l-247 427h120l179 -322h3zM448 918l48 -80l-220 -105l-36 61z" />
    <glyph glyph-name="Thorn" unicode="&#xde;" horiz-adv-x="600" 
d="M572 361q0 -46 -13 -88t-42 -74t-76 -51t-115 -19h-138v-129h-104v676h104v-103h133q118 0 184.5 -50t66.5 -162zM318 219q76 0 111.5 33.5t35.5 100.5q0 70 -36.5 100t-107.5 30h-133v-264h130z" />
    <glyph glyph-name="germandbls" unicode="&#xdf;" horiz-adv-x="682" 
d="M538 583q0 -46 -20.5 -74.5t-62.5 -57.5q-20 -14 -32.5 -23.5t-20 -17.5t-10.5 -15t-3 -16q0 -11 4.5 -19t15 -15.5t28 -14.5t43.5 -17l54 -20q55 -20 85.5 -53.5t30.5 -87.5q0 -41 -15 -71.5t-43 -50.5t-66.5 -30t-85.5 -10q-48 0 -89 9t-79 24l9 89q74 -37 158 -37
q110 0 110 65q0 25 -19 42.5t-66 34.5l-54 20q-68 25 -97 56t-29 79q0 42 22.5 70.5t67.5 59.5q19 13 31.5 23t20 19t11 19t3.5 24q0 29 -29 50t-89 21q-45 0 -70 -10t-41 -24q-17 -16 -24.5 -37t-7.5 -55v-532h-103v532q0 54 16.5 92.5t51.5 66.5q64 51 178 51
q102 0 159 -44t57 -115z" />
    <glyph glyph-name="agrave" unicode="&#xe0;" horiz-adv-x="547" 
d="M40 163q0 68 47 104.5t154 36.5h32q61 0 105 -9v42q0 60 -32.5 84.5t-100.5 24.5q-32 0 -70.5 -5.5t-80.5 -16.5l-9 84q89 23 173 23q112 0 167.5 -45t55.5 -139v-251v-49t2 -47h-88l-8 58h-2q-24 -32 -63 -50t-90 -18q-42 0 -77.5 12.5t-61 35t-39.5 54.5t-14 71z
M378 228h-155q-35 0 -56.5 -14.5t-21.5 -52.5q0 -43 28.5 -66.5t76.5 -23.5q54 0 91 28.5t37 76.5v52zM347 585l-220 105l48 81l210 -126z" />
    <glyph glyph-name="aacute" unicode="&#xe1;" horiz-adv-x="547" 
d="M40 163q0 68 47 104.5t154 36.5h32q61 0 105 -9v42q0 60 -32.5 84.5t-100.5 24.5q-32 0 -70.5 -5.5t-80.5 -16.5l-9 84q89 23 173 23q112 0 167.5 -45t55.5 -139v-251v-49t2 -47h-88l-8 58h-2q-24 -32 -63 -50t-90 -18q-42 0 -77.5 12.5t-61 35t-39.5 54.5t-14 71z
M378 228h-155q-35 0 -56.5 -14.5t-21.5 -52.5q0 -43 28.5 -66.5t76.5 -23.5q54 0 91 28.5t37 76.5v52zM385 771l48 -81l-220 -105l-36 62z" />
    <glyph glyph-name="acircumflex" unicode="&#xe2;" horiz-adv-x="547" 
d="M40 163q0 68 47 104.5t154 36.5h32q61 0 105 -9v42q0 60 -32.5 84.5t-100.5 24.5q-32 0 -70.5 -5.5t-80.5 -16.5l-9 84q89 23 173 23q112 0 167.5 -45t55.5 -139v-251v-49t2 -47h-88l-8 58h-2q-24 -32 -63 -50t-90 -18q-42 0 -77.5 12.5t-61 35t-39.5 54.5t-14 71z
M378 228h-155q-35 0 -56.5 -14.5t-21.5 -52.5q0 -43 28.5 -66.5t76.5 -23.5q54 0 91 28.5t37 76.5v52zM436 620l-60 -33l-91 107h-10l-91 -107l-62 33l112 150h91z" />
    <glyph glyph-name="atilde" unicode="&#xe3;" horiz-adv-x="547" 
d="M40 163q0 68 47 104.5t154 36.5h32q61 0 105 -9v42q0 60 -32.5 84.5t-100.5 24.5q-32 0 -70.5 -5.5t-80.5 -16.5l-9 84q89 23 173 23q112 0 167.5 -45t55.5 -139v-251v-49t2 -47h-88l-8 58h-2q-24 -32 -63 -50t-90 -18q-42 0 -77.5 12.5t-61 35t-39.5 54.5t-14 71z
M378 228h-155q-35 0 -56.5 -14.5t-21.5 -52.5q0 -43 28.5 -66.5t76.5 -23.5q54 0 91 28.5t37 76.5v52zM465 712q-15 -51 -43 -76t-63 -25q-22 0 -41.5 8t-37.5 17.5t-34 17.5t-29 8q-17 0 -33 -14.5t-26 -41.5l-60 27q20 56 51 82.5t68 26.5q22 0 42 -8t37 -18t32.5 -18
t29.5 -8q17 0 28.5 13.5t19.5 35.5z" />
    <glyph glyph-name="adieresis" unicode="&#xe4;" horiz-adv-x="547" 
d="M40 163q0 68 47 104.5t154 36.5h32q61 0 105 -9v42q0 60 -32.5 84.5t-100.5 24.5q-32 0 -70.5 -5.5t-80.5 -16.5l-9 84q89 23 173 23q112 0 167.5 -45t55.5 -139v-251v-49t2 -47h-88l-8 58h-2q-24 -32 -63 -50t-90 -18q-42 0 -77.5 12.5t-61 35t-39.5 54.5t-14 71z
M378 228h-155q-35 0 -56.5 -14.5t-21.5 -52.5q0 -43 28.5 -66.5t76.5 -23.5q54 0 91 28.5t37 76.5v52zM434 622h-109v92l109 28v-120zM231 622h-109v92l109 28v-120z" />
    <glyph glyph-name="aring" unicode="&#xe5;" horiz-adv-x="547" 
d="M40 163q0 68 47 104.5t154 36.5h32q61 0 105 -9v42q0 60 -32.5 84.5t-100.5 24.5q-32 0 -70.5 -5.5t-80.5 -16.5l-9 84q89 23 173 23q112 0 167.5 -45t55.5 -139v-251v-49t2 -47h-88l-8 58h-2q-24 -32 -63 -50t-90 -18q-42 0 -77.5 12.5t-61 35t-39.5 54.5t-14 71z
M378 228h-155q-35 0 -56.5 -14.5t-21.5 -52.5q0 -43 28.5 -66.5t76.5 -23.5q54 0 91 28.5t37 76.5v52zM385 690q0 -44 -30 -73.5t-77 -29.5q-46 0 -76.5 29.5t-30.5 73.5q0 43 30.5 72.5t77.5 29.5q46 0 76 -29.5t30 -72.5zM320 689q0 18 -12 31t-30 13t-30 -12.5t-12 -31.5
t12 -31t30 -12t30 12.5t12 30.5z" />
    <glyph glyph-name="ae" unicode="&#xe6;" horiz-adv-x="894" 
d="M645 -10q-77 0 -135.5 24t-85.5 75q-29 -51 -78 -75t-111 -24q-44 0 -80 12t-61.5 34.5t-39.5 54.5t-14 71q0 74 50 108t152 34h37q32 0 58.5 -3t40.5 -6v42q0 57 -31 83t-102 26q-37 0 -76 -6t-75 -16l-9 84q38 10 83 16.5t90 6.5q72 0 116.5 -20t68.5 -62
q32 38 79.5 60t110.5 22q55 0 96 -17.5t68.5 -49.5t41 -76t13.5 -97q0 -17 -1 -33t-3 -27h-368q2 -72 45 -114t133 -42q37 0 77.5 7t72.5 18l11 -79q-38 -14 -82.5 -22.5t-91.5 -8.5zM378 228h-156q-35 0 -56 -14.5t-21 -52.5q0 -43 28 -66.5t78 -23.5q55 0 91 28.5t36 76.5
v52zM626 452q-67 0 -104 -41.5t-41 -104.5h268q0 31 -6.5 58t-21.5 46.5t-38.5 30.5t-56.5 11z" />
    <glyph glyph-name="ccedilla" unicode="&#xe7;" horiz-adv-x="514" 
d="M431 -138q0 -44 -34 -72.5t-97 -28.5q-21 0 -46 3.5t-44 8.5l3 62q16 -5 35.5 -8t36.5 -3q29 0 45.5 9t16.5 27t-16 25t-40 7h-72l27 106q-94 20 -148 88t-54 174q0 64 21 114.5t59 85.5t90.5 53t115.5 18q40 0 76 -7t68 -19l-14 -84q-26 11 -56.5 18t-65.5 7
q-88 0 -138.5 -49t-50.5 -135q0 -40 12 -74.5t35.5 -59.5t58.5 -39t81 -14q36 0 70.5 8t61.5 20l12 -81q-33 -14 -72 -23t-84 -9h-11l-9 -41h19q49 0 78.5 -22.5t29.5 -64.5z" />
    <glyph glyph-name="egrave" unicode="&#xe8;" horiz-adv-x="565" 
d="M316 -10q-131 0 -201.5 68t-70.5 196q0 61 17 112t50 88t81 57t109 20q58 0 100 -18t69 -50.5t40 -76t13 -94.5q0 -17 -1.5 -34t-3.5 -31h-367q3 -70 45.5 -111t130.5 -41q36 0 78 7t74 18l11 -79q-38 -14 -82.5 -22.5t-91.5 -8.5zM296 452q-67 0 -104 -41.5t-40 -107.5
h268v11q0 21 -5 45t-18.5 44.5t-37.5 34.5t-63 14zM364 585l-220 105l48 81l210 -126z" />
    <glyph glyph-name="eacute" unicode="&#xe9;" horiz-adv-x="565" 
d="M316 -10q-131 0 -201.5 68t-70.5 196q0 61 17 112t50 88t81 57t109 20q58 0 100 -18t69 -50.5t40 -76t13 -94.5q0 -17 -1.5 -34t-3.5 -31h-367q3 -70 45.5 -111t130.5 -41q36 0 78 7t74 18l11 -79q-38 -14 -82.5 -22.5t-91.5 -8.5zM296 452q-67 0 -104 -41.5t-40 -107.5
h268v11q0 21 -5 45t-18.5 44.5t-37.5 34.5t-63 14zM411 771l48 -81l-220 -105l-36 62z" />
    <glyph glyph-name="ecircumflex" unicode="&#xea;" horiz-adv-x="565" 
d="M316 -10q-131 0 -201.5 68t-70.5 196q0 61 17 112t50 88t81 57t109 20q58 0 100 -18t69 -50.5t40 -76t13 -94.5q0 -17 -1.5 -34t-3.5 -31h-367q3 -70 45.5 -111t130.5 -41q36 0 78 7t74 18l11 -79q-38 -14 -82.5 -22.5t-91.5 -8.5zM296 452q-67 0 -104 -41.5t-40 -107.5
h268v11q0 21 -5 45t-18.5 44.5t-37.5 34.5t-63 14zM452 620l-60 -33l-91 107h-10l-91 -107l-62 33l112 150h91z" />
    <glyph glyph-name="edieresis" unicode="&#xeb;" horiz-adv-x="565" 
d="M316 -10q-131 0 -201.5 68t-70.5 196q0 61 17 112t50 88t81 57t109 20q58 0 100 -18t69 -50.5t40 -76t13 -94.5q0 -17 -1.5 -34t-3.5 -31h-367q3 -70 45.5 -111t130.5 -41q36 0 78 7t74 18l11 -79q-38 -14 -82.5 -22.5t-91.5 -8.5zM296 452q-67 0 -104 -41.5t-40 -107.5
h268v11q0 21 -5 45t-18.5 44.5t-37.5 34.5t-63 14zM455 622h-109v92l109 28v-120zM252 622h-109v92l109 28v-120z" />
    <glyph glyph-name="igrave" unicode="&#xec;" horiz-adv-x="263" 
d="M184 585l-220 105l48 81l210 -126zM80 522h103v-522h-103v522z" />
    <glyph glyph-name="iacute" unicode="&#xed;" horiz-adv-x="263" 
d="M258 771l48 -81l-220 -105l-36 62zM80 522h103v-522h-103v522z" />
    <glyph glyph-name="icircumflex" unicode="&#xee;" horiz-adv-x="263" 
d="M80 522h103v-522h-103v522zM290 620l-60 -33l-91 107h-10l-91 -107l-62 33l112 150h91z" />
    <glyph glyph-name="idieresis" unicode="&#xef;" horiz-adv-x="263" 
d="M287 622h-109v92l109 28v-120zM84 622h-109v92l109 28v-120zM80 522h103v-522h-103v522z" />
    <glyph glyph-name="eth" unicode="&#xf0;" horiz-adv-x="617" 
d="M443 443q-28 63 -68.5 104t-94.5 68l-41 -77l-70 30l42 78q-26 11 -52 19.5t-52 15.5l35 62q27 -5 53.5 -12t52.5 -16l41 75l69 -30l-39 -72q58 -29 105.5 -71.5t81 -95t51.5 -113t18 -124.5q0 -72 -19.5 -127t-54.5 -92t-83.5 -56t-107.5 -19q-57 0 -105.5 17.5
t-84.5 50.5t-56 80.5t-20 107.5q0 58 19 105t53 79.5t79.5 50t98.5 17.5q50 0 85.5 -15t61.5 -41zM472 246q0 42 -12.5 73.5t-34.5 53.5t-51.5 33t-63.5 11q-70 0 -115.5 -44t-45.5 -125q0 -42 12.5 -74.5t34.5 -55.5t52 -35t64 -12q33 0 62.5 11.5t51 34t34 55t12.5 74.5z
" />
    <glyph glyph-name="ntilde" unicode="&#xf1;" horiz-adv-x="601" 
d="M357 531q39 0 71.5 -10.5t55.5 -33.5t36 -59.5t13 -87.5v-340h-103v329q0 58 -25.5 87t-79.5 29q-40 0 -78.5 -13.5t-67.5 -33.5v-398h-103v522h91l8 -47q37 25 84 40.5t98 15.5zM493 712q-15 -51 -43 -76t-63 -25q-22 0 -41.5 8t-37.5 17.5t-34 17.5t-29 8
q-17 0 -33 -14.5t-26 -41.5l-60 27q20 56 51 82.5t68 26.5q22 0 42 -8t37 -18t32.5 -18t29.5 -8q17 0 28.5 13.5t19.5 35.5z" />
    <glyph glyph-name="ograve" unicode="&#xf2;" horiz-adv-x="620" 
d="M310 73q71 0 116 49t45 139q0 89 -44.5 138t-116.5 49t-116.5 -49t-44.5 -138q0 -90 45 -139t116 -49zM310 -10q-64 0 -113.5 20t-83.5 55.5t-51.5 85t-17.5 108.5q0 60 18 110t52.5 86t83.5 56t112 20t112 -20t83.5 -56t52.5 -86t18 -110q0 -59 -17.5 -108.5t-51.5 -85
t-83.5 -55.5t-113.5 -20zM374 585l-220 105l48 81l210 -126z" />
    <glyph glyph-name="oacute" unicode="&#xf3;" horiz-adv-x="620" 
d="M310 73q71 0 116 49t45 139q0 89 -44.5 138t-116.5 49t-116.5 -49t-44.5 -138q0 -90 45 -139t116 -49zM310 -10q-64 0 -113.5 20t-83.5 55.5t-51.5 85t-17.5 108.5q0 60 18 110t52.5 86t83.5 56t112 20t112 -20t83.5 -56t52.5 -86t18 -110q0 -59 -17.5 -108.5t-51.5 -85
t-83.5 -55.5t-113.5 -20zM409 771l48 -81l-220 -105l-36 62z" />
    <glyph glyph-name="ocircumflex" unicode="&#xf4;" horiz-adv-x="620" 
d="M310 73q71 0 116 49t45 139q0 89 -44.5 138t-116.5 49t-116.5 -49t-44.5 -138q0 -90 45 -139t116 -49zM310 -10q-64 0 -113.5 20t-83.5 55.5t-51.5 85t-17.5 108.5q0 60 18 110t52.5 86t83.5 56t112 20t112 -20t83.5 -56t52.5 -86t18 -110q0 -59 -17.5 -108.5t-51.5 -85
t-83.5 -55.5t-113.5 -20zM468 620l-60 -33l-91 107h-10l-91 -107l-62 33l112 150h91z" />
    <glyph glyph-name="otilde" unicode="&#xf5;" horiz-adv-x="620" 
d="M310 73q71 0 116 49t45 139q0 89 -44.5 138t-116.5 49t-116.5 -49t-44.5 -138q0 -90 45 -139t116 -49zM310 -10q-64 0 -113.5 20t-83.5 55.5t-51.5 85t-17.5 108.5q0 60 18 110t52.5 86t83.5 56t112 20t112 -20t83.5 -56t52.5 -86t18 -110q0 -59 -17.5 -108.5t-51.5 -85
t-83.5 -55.5t-113.5 -20zM497 712q-15 -51 -43 -76t-63 -25q-22 0 -41.5 8t-37.5 17.5t-34 17.5t-29 8q-17 0 -33 -14.5t-26 -41.5l-60 27q20 56 51 82.5t68 26.5q22 0 42 -8t37 -18t32.5 -18t29.5 -8q17 0 28.5 13.5t19.5 35.5z" />
    <glyph glyph-name="odieresis" unicode="&#xf6;" horiz-adv-x="620" 
d="M310 73q71 0 116 49t45 139q0 89 -44.5 138t-116.5 49t-116.5 -49t-44.5 -138q0 -90 45 -139t116 -49zM310 -10q-64 0 -113.5 20t-83.5 55.5t-51.5 85t-17.5 108.5q0 60 18 110t52.5 86t83.5 56t112 20t112 -20t83.5 -56t52.5 -86t18 -110q0 -59 -17.5 -108.5t-51.5 -85
t-83.5 -55.5t-113.5 -20zM467 622h-109v92l109 28v-120zM264 622h-109v92l109 28v-120z" />
    <glyph glyph-name="divide" unicode="&#xf7;" horiz-adv-x="563" 
d="M468 220h-394v83h421zM226 125l108 24v-118h-108v94zM226 473l108 24v-118h-108v94z" />
    <glyph glyph-name="oslash" unicode="&#xf8;" horiz-adv-x="632" 
d="M315 -10q-81 0 -139 32l-54 -70l-55 39l55 71q-72 74 -72 197q0 60 18 110t52.5 86t83.5 56t112 20q81 0 141 -34l57 74l55 -39l-59 -76q35 -36 53.5 -86.5t18.5 -110.5q0 -59 -17.5 -108.5t-51.5 -85t-84 -55.5t-114 -20zM155 260q0 -70 29 -117l217 282q-37 23 -85 23
q-72 0 -116.5 -49t-44.5 -139zM316 73q35 0 64.5 12.5t51 36.5t33.5 58.5t12 78.5q0 36 -7.5 65t-21.5 52l-216 -281q38 -22 84 -22z" />
    <glyph glyph-name="ugrave" unicode="&#xf9;" horiz-adv-x="594" 
d="M297 -10q-113 0 -170 48.5t-57 159.5v324h103v-324q0 -124 124 -124q62 0 93 32t31 92v324h103v-324q0 -100 -56.5 -154t-170.5 -54zM350 585l-220 105l48 81l210 -126z" />
    <glyph glyph-name="uacute" unicode="&#xfa;" horiz-adv-x="594" 
d="M297 -10q-113 0 -170 48.5t-57 159.5v324h103v-324q0 -124 124 -124q62 0 93 32t31 92v324h103v-324q0 -100 -56.5 -154t-170.5 -54zM422 771l48 -81l-220 -105l-36 62z" />
    <glyph glyph-name="ucircumflex" unicode="&#xfb;" horiz-adv-x="594" 
d="M297 -10q-113 0 -170 48.5t-57 159.5v324h103v-324q0 -124 124 -124q62 0 93 32t31 92v324h103v-324q0 -100 -56.5 -154t-170.5 -54zM455 620l-60 -33l-91 107h-10l-91 -107l-62 33l112 150h91z" />
    <glyph glyph-name="udieresis" unicode="&#xfc;" horiz-adv-x="594" 
d="M297 -10q-113 0 -170 48.5t-57 159.5v324h103v-324q0 -124 124 -124q62 0 93 32t31 92v324h103v-324q0 -100 -56.5 -154t-170.5 -54zM454 622h-109v92l109 28v-120zM251 622h-109v92l109 28v-120z" />
    <glyph glyph-name="yacute" unicode="&#xfd;" horiz-adv-x="544" 
d="M218 -239l-94 25l105 234l-219 502h115l154 -377h3l140 377h112zM411 771l48 -81l-220 -105l-36 62z" />
    <glyph glyph-name="thorn" unicode="&#xfe;" horiz-adv-x="640" 
d="M343 531q54 0 100.5 -17.5t80 -51.5t53 -83.5t19.5 -112.5q0 -65 -20 -116t-54.5 -86.5t-82 -54.5t-101.5 -19q-51 0 -92 15t-67 38v-245l-103 -28v935l103 28v-277h3q26 37 65 56t96 19zM179 142q24 -29 65 -47.5t87 -18.5q39 0 68.5 13.5t50 38.5t31 59t10.5 75
q0 46 -12.5 80.5t-34.5 57t-52 34t-65 11.5q-33 0 -60 -9.5t-46.5 -26.5t-30.5 -41t-11 -52v-174z" />
    <glyph glyph-name="ydieresis" unicode="&#xff;" horiz-adv-x="544" 
d="M218 -239l-94 25l105 234l-219 502h115l154 -377h3l140 377h112zM436 622h-109v92l109 28v-120zM233 622h-109v92l109 28v-120z" />
    <glyph glyph-name="Amacron" unicode="&#x100;" horiz-adv-x="673" 
d="M482 157h-289l-62 -157h-113l278 678h85l274 -678h-111zM228 247h219l-105 272h-8zM485 776h-293v76h293v-76z" />
    <glyph glyph-name="amacron" unicode="&#x101;" horiz-adv-x="547" 
d="M40 163q0 68 47 104.5t154 36.5h32q61 0 105 -9v42q0 60 -32.5 84.5t-100.5 24.5q-32 0 -70.5 -5.5t-80.5 -16.5l-9 84q89 23 173 23q112 0 167.5 -45t55.5 -139v-251v-49t2 -47h-88l-8 58h-2q-24 -32 -63 -50t-90 -18q-42 0 -77.5 12.5t-61 35t-39.5 54.5t-14 71z
M378 228h-155q-35 0 -56.5 -14.5t-21.5 -52.5q0 -43 28.5 -66.5t76.5 -23.5q54 0 91 28.5t37 76.5v52zM420 640h-293v76h293v-76z" />
    <glyph glyph-name="Abreve" unicode="&#x102;" horiz-adv-x="673" 
d="M482 157h-289l-62 -157h-113l278 678h85l274 -678h-111zM228 247h219l-105 272h-8zM500 879q-11 -63 -54.5 -99t-106.5 -36t-106.5 36t-55.5 100l76 7q10 -35 30 -55t55 -20q36 0 56.5 20t30.5 55z" />
    <glyph glyph-name="abreve" unicode="&#x103;" horiz-adv-x="547" 
d="M40 163q0 68 47 104.5t154 36.5h32q61 0 105 -9v42q0 60 -32.5 84.5t-100.5 24.5q-32 0 -70.5 -5.5t-80.5 -16.5l-9 84q89 23 173 23q112 0 167.5 -45t55.5 -139v-251v-49t2 -47h-88l-8 58h-2q-24 -32 -63 -50t-90 -18q-42 0 -77.5 12.5t-61 35t-39.5 54.5t-14 71z
M378 228h-155q-35 0 -56.5 -14.5t-21.5 -52.5q0 -43 28.5 -66.5t76.5 -23.5q54 0 91 28.5t37 76.5v52zM438 736q-11 -63 -54.5 -99t-106.5 -36t-106.5 36t-55.5 99l76 7q10 -34 30 -54.5t55 -20.5q36 0 56.5 20.5t30.5 54.5z" />
    <glyph glyph-name="Aogonek" unicode="&#x104;" horiz-adv-x="673" 
d="M482 157h-289l-62 -157h-113l278 678h85l274 -678q-29 -11 -51.5 -25.5t-38 -31.5t-23.5 -35t-8 -34q0 -42 52 -42q14 0 28.5 3.5t26.5 8.5l5 -67q-17 -7 -39.5 -11.5t-46.5 -4.5q-53 0 -83 24t-30 70q0 38 22 78.5t70 79.5zM228 247h219l-105 272h-8z" />
    <glyph glyph-name="aogonek" unicode="&#x105;" horiz-adv-x="547" 
d="M385 58q-24 -32 -63 -50t-90 -18q-42 0 -77.5 12.5t-61 35t-39.5 54.5t-14 71q0 68 47 104.5t154 36.5h32q61 0 105 -9v42q0 60 -32.5 84.5t-100.5 24.5q-32 0 -70.5 -5.5t-80.5 -16.5l-9 84q89 23 173 23q112 0 167.5 -45t55.5 -139v-251v-49t2 -47q-43 -30 -73 -60
t-30 -68q0 -40 48 -40q15 0 31.5 3.5t28.5 8.5l5 -67q-18 -7 -40.5 -11.5t-45.5 -4.5q-52 0 -82.5 25t-30.5 69t24.5 79.5t75.5 69.5q-2 14 -3.5 27t-3.5 27h-2zM378 228h-155q-35 0 -56.5 -14.5t-21.5 -52.5q0 -43 28.5 -66.5t76.5 -23.5q54 0 91 28.5t37 76.5v52z" />
    <glyph glyph-name="Cacute" unicode="&#x106;" horiz-adv-x="653" 
d="M411 -10q-89 0 -156 27t-112 73.5t-68 110t-23 136.5q0 76 24.5 140t71 110.5t113.5 72.5t152 26q60 0 112 -11.5t84 -28.5l-10 -92q-43 20 -89 31t-93 11q-60 0 -107.5 -18t-81 -51.5t-51 -81t-17.5 -105.5q0 -59 18.5 -107t52 -82t82 -52.5t108.5 -18.5q45 0 94 10
t86 28l10 -89q-38 -18 -91 -28.5t-109 -10.5zM484 918l48 -80l-220 -105l-36 61z" />
    <glyph glyph-name="cacute" unicode="&#x107;" horiz-adv-x="514" 
d="M480 22q-33 -14 -72 -23t-84 -9q-63 0 -114.5 18.5t-88.5 53.5t-57 85t-20 113q0 64 21 114.5t59 85.5t90.5 53t115.5 18q40 0 76 -7t68 -19l-14 -84q-26 11 -56.5 18t-65.5 7q-88 0 -138.5 -49t-50.5 -135q0 -40 12 -74.5t35.5 -59.5t58.5 -39t81 -14q36 0 70.5 8
t61.5 20zM402 771l48 -81l-220 -105l-36 62z" />
    <glyph glyph-name="Ccircumflex" unicode="&#x108;" horiz-adv-x="653" 
d="M411 -10q-89 0 -156 27t-112 73.5t-68 110t-23 136.5q0 76 24.5 140t71 110.5t113.5 72.5t152 26q60 0 112 -11.5t84 -28.5l-10 -92q-43 20 -89 31t-93 11q-60 0 -107.5 -18t-81 -51.5t-51 -81t-17.5 -105.5q0 -59 18.5 -107t52 -82t82 -52.5t108.5 -18.5q45 0 94 10
t86 28l10 -89q-38 -18 -91 -28.5t-109 -10.5zM561 765l-60 -33l-91 107h-10l-91 -107l-62 33l112 150h91z" />
    <glyph glyph-name="ccircumflex" unicode="&#x109;" horiz-adv-x="514" 
d="M480 22q-33 -14 -72 -23t-84 -9q-63 0 -114.5 18.5t-88.5 53.5t-57 85t-20 113q0 64 21 114.5t59 85.5t90.5 53t115.5 18q40 0 76 -7t68 -19l-14 -84q-26 11 -56.5 18t-65.5 7q-88 0 -138.5 -49t-50.5 -135q0 -40 12 -74.5t35.5 -59.5t58.5 -39t81 -14q36 0 70.5 8
t61.5 20zM464 620l-60 -33l-91 107h-10l-91 -107l-62 33l112 150h91z" />
    <glyph glyph-name="Cdotaccent" unicode="&#x10a;" horiz-adv-x="653" 
d="M411 -10q-89 0 -156 27t-112 73.5t-68 110t-23 136.5q0 76 24.5 140t71 110.5t113.5 72.5t152 26q60 0 112 -11.5t84 -28.5l-10 -92q-43 20 -89 31t-93 11q-60 0 -107.5 -18t-81 -51.5t-51 -81t-17.5 -105.5q0 -59 18.5 -107t52 -82t82 -52.5t108.5 -18.5q45 0 94 10
t86 28l10 -89q-38 -18 -91 -28.5t-109 -10.5zM456 758h-120v110l120 31v-141z" />
    <glyph glyph-name="cdotaccent" unicode="&#x10b;" horiz-adv-x="514" 
d="M480 22q-33 -14 -72 -23t-84 -9q-63 0 -114.5 18.5t-88.5 53.5t-57 85t-20 113q0 64 21 114.5t59 85.5t90.5 53t115.5 18q40 0 76 -7t68 -19l-14 -84q-26 11 -56.5 18t-65.5 7q-88 0 -138.5 -49t-50.5 -135q0 -40 12 -74.5t35.5 -59.5t58.5 -39t81 -14q36 0 70.5 8
t61.5 20zM361 622h-120v110l120 30v-140z" />
    <glyph glyph-name="Ccaron" unicode="&#x10c;" horiz-adv-x="653" 
d="M411 -10q-89 0 -156 27t-112 73.5t-68 110t-23 136.5q0 76 24.5 140t71 110.5t113.5 72.5t152 26q60 0 112 -11.5t84 -28.5l-10 -92q-43 20 -89 31t-93 11q-60 0 -107.5 -18t-81 -51.5t-51 -81t-17.5 -105.5q0 -59 18.5 -107t52 -82t82 -52.5t108.5 -18.5q45 0 94 10
t86 28l10 -89q-38 -18 -91 -28.5t-109 -10.5zM243 894l60 32l91 -106h10l91 106l62 -32l-112 -151h-90z" />
    <glyph glyph-name="ccaron" unicode="&#x10d;" horiz-adv-x="514" 
d="M480 22q-33 -14 -72 -23t-84 -9q-63 0 -114.5 18.5t-88.5 53.5t-57 85t-20 113q0 64 21 114.5t59 85.5t90.5 53t115.5 18q40 0 76 -7t68 -19l-14 -84q-26 11 -56.5 18t-65.5 7q-88 0 -138.5 -49t-50.5 -135q0 -40 12 -74.5t35.5 -59.5t58.5 -39t81 -14q36 0 70.5 8
t61.5 20zM153 752l60 33l91 -107h10l91 107l62 -33l-112 -152h-90z" />
    <glyph glyph-name="Dcaron" unicode="&#x10e;" horiz-adv-x="748" 
d="M327 676q88 0 156.5 -19t115.5 -59t72 -102.5t25 -148.5q0 -80 -22 -144.5t-68.5 -109.5t-117.5 -69t-169 -24h-235v676h243zM588 348q0 129 -66 183.5t-200 54.5h-134v-496h145q131 0 193 66.5t62 191.5zM198 894l60 32l91 -106h10l91 106l62 -32l-112 -151h-90z" />
    <glyph glyph-name="dcaron" unicode="&#x10f;" horiz-adv-x="674" 
d="M310 445q-73 0 -117 -50t-44 -140q0 -46 12 -79.5t33.5 -55.5t50.5 -33t63 -11q52 0 88.5 22t59.5 55v162q0 27 -10.5 50.5t-29.5 41.5t-46 28t-60 10zM559 139q0 -37 0.5 -70.5t1.5 -68.5h-87q-2 14 -4.5 28.5t-4.5 34.5h-2q-23 -29 -64 -51t-106 -22q-52 0 -97.5 16.5
t-79 50t-53 83.5t-19.5 116q0 69 21 120.5t56 86t80.5 51.5t95.5 17q57 0 96 -19.5t60 -48.5l3 1v241l103 28v-594zM603 514q28 18 49.5 42t25.5 54h-47v87l112 22v-89q0 -56 -30 -91t-73 -61z" />
    <glyph glyph-name="Dcroat" unicode="&#x110;" horiz-adv-x="760" 
d="M16 376h80v300h243q88 0 156.5 -19t115.5 -59t72 -102.5t25 -148.5q0 -80 -22 -144.5t-68.5 -109.5t-117.5 -69t-169 -24h-235v292h-80v84zM600 348q0 129 -66 183.5t-200 54.5h-134v-210h161l-29 -84h-132v-202h145q131 0 193 66.5t62 191.5z" />
    <glyph glyph-name="dcroat" unicode="&#x111;" horiz-adv-x="648" 
d="M559 139v-72t2 -67h-87q-2 14 -4.5 28.5t-4.5 34.5h-2q-23 -29 -64 -51t-106 -22q-52 0 -97.5 16.5t-79 50t-53 83.5t-19.5 116q0 69 21 120.5t56 86t80.5 51.5t95.5 17q57 0 96 -19.5t60 -48.5l3 1v113h-102v72h102v56l103 28v-84h83l-24 -72h-59v-438zM310 445
q-73 0 -117 -50t-44 -140q0 -46 12 -79.5t33.5 -55.5t50.5 -33t63 -11q52 0 88.5 22t59.5 55v162q0 27 -10.5 50.5t-29.5 41.5t-46 28t-60 10z" />
    <glyph glyph-name="Emacron" unicode="&#x112;" horiz-adv-x="580" 
d="M215 0q-71 0 -102 33t-31 101v542h451l-31 -90h-316v-213h277l-4 -89h-273v-125q0 -25 5.5 -39t18.5 -20.5t33.5 -8t49.5 -1.5h241l-31 -90h-288zM450 776h-293v76h293v-76z" />
    <glyph glyph-name="emacron" unicode="&#x113;" horiz-adv-x="565" 
d="M316 -10q-131 0 -201.5 68t-70.5 196q0 61 17 112t50 88t81 57t109 20q58 0 100 -18t69 -50.5t40 -76t13 -94.5q0 -17 -1.5 -34t-3.5 -31h-367q3 -70 45.5 -111t130.5 -41q36 0 78 7t74 18l11 -79q-38 -14 -82.5 -22.5t-91.5 -8.5zM296 452q-67 0 -104 -41.5t-40 -107.5
h268v11q0 21 -5 45t-18.5 44.5t-37.5 34.5t-63 14zM450 640h-293v76h293v-76z" />
    <glyph glyph-name="Ebreve" unicode="&#x114;" horiz-adv-x="580" 
d="M215 0q-71 0 -102 33t-31 101v542h451l-31 -90h-316v-213h277l-4 -89h-273v-125q0 -25 5.5 -39t18.5 -20.5t33.5 -8t49.5 -1.5h241l-31 -90h-288zM470 879q-11 -63 -54.5 -99t-106.5 -36t-106.5 36t-55.5 100l76 7q10 -35 30 -55t55 -20q36 0 56.5 20t30.5 55z" />
    <glyph glyph-name="ebreve" unicode="&#x115;" horiz-adv-x="565" 
d="M316 -10q-131 0 -201.5 68t-70.5 196q0 61 17 112t50 88t81 57t109 20q58 0 100 -18t69 -50.5t40 -76t13 -94.5q0 -17 -1.5 -34t-3.5 -31h-367q3 -70 45.5 -111t130.5 -41q36 0 78 7t74 18l11 -79q-38 -14 -82.5 -22.5t-91.5 -8.5zM296 452q-67 0 -104 -41.5t-40 -107.5
h268v11q0 21 -5 45t-18.5 44.5t-37.5 34.5t-63 14zM460 736q-11 -63 -54.5 -99t-106.5 -36t-106.5 36t-55.5 99l76 7q10 -34 30 -54.5t55 -20.5q36 0 56.5 20.5t30.5 54.5z" />
    <glyph glyph-name="Edotaccent" unicode="&#x116;" horiz-adv-x="580" 
d="M215 0q-71 0 -102 33t-31 101v542h451l-31 -90h-316v-213h277l-4 -89h-273v-125q0 -25 5.5 -39t18.5 -20.5t33.5 -8t49.5 -1.5h241l-31 -90h-288zM370 758h-120v110l120 31v-141z" />
    <glyph glyph-name="edotaccent" unicode="&#x117;" horiz-adv-x="565" 
d="M316 -10q-131 0 -201.5 68t-70.5 196q0 61 17 112t50 88t81 57t109 20q58 0 100 -18t69 -50.5t40 -76t13 -94.5q0 -17 -1.5 -34t-3.5 -31h-367q3 -70 45.5 -111t130.5 -41q36 0 78 7t74 18l11 -79q-38 -14 -82.5 -22.5t-91.5 -8.5zM296 452q-67 0 -104 -41.5t-40 -107.5
h268v11q0 21 -5 45t-18.5 44.5t-37.5 34.5t-63 14zM361 622h-120v110l120 30v-140z" />
    <glyph glyph-name="Eogonek" unicode="&#x118;" horiz-adv-x="580" 
d="M503 0q-44 -26 -73 -59t-29 -65q0 -21 14 -32.5t38 -11.5q14 0 29 3.5t27 8.5l4 -67q-17 -7 -39 -11.5t-46 -4.5q-52 0 -83 23.5t-31 67.5t28.5 81.5t71.5 66.5h-199q-71 0 -102 33t-31 101v542h451l-31 -90h-316v-213h277l-4 -89h-273v-125q0 -25 5.5 -39t18.5 -20.5
t33.5 -8t49.5 -1.5h241l-31 -90v0z" />
    <glyph glyph-name="eogonek" unicode="&#x119;" horiz-adv-x="565" 
d="M317 -10q-131 0 -202 68t-71 196q0 61 17 112t50 88t81 57t109 20q58 0 100 -18t69 -50.5t40 -76t13 -94.5q0 -17 -1.5 -34t-3.5 -31h-367q3 -70 45.5 -111t130.5 -41q36 0 78 7t74 18l11 -79q-98 -74 -98 -133q0 -41 47 -41q16 0 32.5 3.5t28.5 8.5l4 -67
q-17 -7 -40 -11.5t-46 -4.5q-53 0 -83 25.5t-30 70.5q0 37 19.5 66.5t51.5 55.5q-15 -2 -30 -3t-29 -1zM296 452q-67 0 -104 -41.5t-40 -107.5h268v11q0 21 -5 45t-18.5 44.5t-37.5 34.5t-63 14z" />
    <glyph glyph-name="Ecaron" unicode="&#x11a;" horiz-adv-x="580" 
d="M215 0q-71 0 -102 33t-31 101v542h451l-31 -90h-316v-213h277l-4 -89h-273v-125q0 -25 5.5 -39t18.5 -20.5t33.5 -8t49.5 -1.5h241l-31 -90h-288zM156 894l60 32l91 -106h10l91 106l62 -32l-112 -151h-90z" />
    <glyph glyph-name="ecaron" unicode="&#x11b;" horiz-adv-x="565" 
d="M316 -10q-131 0 -201.5 68t-70.5 196q0 61 17 112t50 88t81 57t109 20q58 0 100 -18t69 -50.5t40 -76t13 -94.5q0 -17 -1.5 -34t-3.5 -31h-367q3 -70 45.5 -111t130.5 -41q36 0 78 7t74 18l11 -79q-38 -14 -82.5 -22.5t-91.5 -8.5zM296 452q-67 0 -104 -41.5t-40 -107.5
h268v11q0 21 -5 45t-18.5 44.5t-37.5 34.5t-63 14zM136 752l60 33l91 -107h10l91 107l62 -33l-112 -152h-90z" />
    <glyph glyph-name="Gcircumflex" unicode="&#x11c;" horiz-adv-x="730" 
d="M437 596q-65 0 -116.5 -18t-87 -51.5t-54.5 -81.5t-19 -107q0 -61 20 -109t55.5 -81t84 -50.5t106.5 -17.5q38 0 75.5 6.5t60.5 17.5v217l104 27v-298q-42 -26 -108 -43t-140 -17q-87 0 -155 25.5t-115 71.5t-71.5 109.5t-24.5 138.5q0 78 26.5 143t76 111t121 71.5
t161.5 25.5q111 0 200 -39l-10 -93q-42 20 -90 31t-100 11zM566 765l-60 -33l-91 107h-10l-91 -107l-62 33l112 150h91z" />
    <glyph glyph-name="gcircumflex" unicode="&#x11d;" horiz-adv-x="633" 
d="M557 24q0 -136 -62.5 -199.5t-184.5 -63.5q-43 0 -86.5 7t-79.5 20l9 83q32 -12 72.5 -19t74.5 -7q79 0 116.5 41.5t37.5 132.5v34q-26 -26 -65.5 -42t-92.5 -16q-56 0 -102.5 19t-79.5 53t-51.5 82t-18.5 107q0 63 21 114t57 87t84 55t102 19q62 0 100 -22t59 -52h3
l10 65h77v-498zM454 318q0 57 -37.5 92.5t-100.5 35.5q-36 0 -66.5 -12.5t-53 -36t-35 -58t-12.5 -77.5q0 -44 12.5 -77.5t35 -56.5t52 -35t64.5 -12q46 0 81 18.5t60 47.5v171zM467 620l-60 -33l-91 107h-10l-91 -107l-62 33l112 150h91z" />
    <glyph glyph-name="Gbreve" unicode="&#x11e;" horiz-adv-x="730" 
d="M437 596q-65 0 -116.5 -18t-87 -51.5t-54.5 -81.5t-19 -107q0 -61 20 -109t55.5 -81t84 -50.5t106.5 -17.5q38 0 75.5 6.5t60.5 17.5v217l104 27v-298q-42 -26 -108 -43t-140 -17q-87 0 -155 25.5t-115 71.5t-71.5 109.5t-24.5 138.5q0 78 26.5 143t76 111t121 71.5
t161.5 25.5q111 0 200 -39l-10 -93q-42 20 -90 31t-100 11zM576 879q-11 -63 -54.5 -99t-106.5 -36t-106.5 36t-55.5 100l76 7q10 -35 30 -55t55 -20q36 0 56.5 20t30.5 55z" />
    <glyph glyph-name="gbreve" unicode="&#x11f;" horiz-adv-x="633" 
d="M557 24q0 -136 -62.5 -199.5t-184.5 -63.5q-43 0 -86.5 7t-79.5 20l9 83q32 -12 72.5 -19t74.5 -7q79 0 116.5 41.5t37.5 132.5v34q-26 -26 -65.5 -42t-92.5 -16q-56 0 -102.5 19t-79.5 53t-51.5 82t-18.5 107q0 63 21 114t57 87t84 55t102 19q62 0 100 -22t59 -52h3
l10 65h77v-498zM454 318q0 57 -37.5 92.5t-100.5 35.5q-36 0 -66.5 -12.5t-53 -36t-35 -58t-12.5 -77.5q0 -44 12.5 -77.5t35 -56.5t52 -35t64.5 -12q46 0 81 18.5t60 47.5v171zM479 736q-11 -63 -54.5 -99t-106.5 -36t-106.5 36t-55.5 99l76 7q10 -34 30 -54.5t55 -20.5
q36 0 56.5 20.5t30.5 54.5z" />
    <glyph glyph-name="Gdotaccent" unicode="&#x120;" horiz-adv-x="730" 
d="M437 596q-65 0 -116.5 -18t-87 -51.5t-54.5 -81.5t-19 -107q0 -61 20 -109t55.5 -81t84 -50.5t106.5 -17.5q38 0 75.5 6.5t60.5 17.5v217l104 27v-298q-42 -26 -108 -43t-140 -17q-87 0 -155 25.5t-115 71.5t-71.5 109.5t-24.5 138.5q0 78 26.5 143t76 111t121 71.5
t161.5 25.5q111 0 200 -39l-10 -93q-42 20 -90 31t-100 11zM468 758h-120v110l120 31v-141z" />
    <glyph glyph-name="gdotaccent" unicode="&#x121;" horiz-adv-x="633" 
d="M557 24q0 -136 -62.5 -199.5t-184.5 -63.5q-43 0 -86.5 7t-79.5 20l9 83q32 -12 72.5 -19t74.5 -7q79 0 116.5 41.5t37.5 132.5v34q-26 -26 -65.5 -42t-92.5 -16q-56 0 -102.5 19t-79.5 53t-51.5 82t-18.5 107q0 63 21 114t57 87t84 55t102 19q62 0 100 -22t59 -52h3
l10 65h77v-498zM454 318q0 57 -37.5 92.5t-100.5 35.5q-36 0 -66.5 -12.5t-53 -36t-35 -58t-12.5 -77.5q0 -44 12.5 -77.5t35 -56.5t52 -35t64.5 -12q46 0 81 18.5t60 47.5v171zM379 622h-120v110l120 30v-140z" />
    <glyph glyph-name="Gcommaaccent" unicode="&#x122;" horiz-adv-x="730" 
d="M437 596q-65 0 -116.5 -18t-87 -51.5t-54.5 -81.5t-19 -107q0 -61 20 -109t55.5 -81t84 -50.5t106.5 -17.5q38 0 75.5 6.5t60.5 17.5v217l104 27v-298q-42 -26 -108 -43t-140 -17q-87 0 -155 25.5t-115 71.5t-71.5 109.5t-24.5 138.5q0 78 26.5 143t76 111t121 71.5
t161.5 25.5q111 0 200 -39l-10 -93q-42 20 -90 31t-100 11zM320 -262q28 18 49.5 42t25.5 54h-47v87l112 22v-89q0 -56 -30 -91t-73 -61z" />
    <glyph glyph-name="gcommaaccent" unicode="&#x123;" horiz-adv-x="633" 
d="M557 24q0 -136 -62.5 -199.5t-184.5 -63.5q-43 0 -86.5 7t-79.5 20l9 83q32 -12 72.5 -19t74.5 -7q79 0 116.5 41.5t37.5 132.5v34q-26 -26 -65.5 -42t-92.5 -16q-56 0 -102.5 19t-79.5 53t-51.5 82t-18.5 107q0 63 21 114t57 87t84 55t102 19q62 0 100 -22t59 -52h3
l10 65h77v-498zM454 318q0 57 -37.5 92.5t-100.5 35.5q-36 0 -66.5 -12.5t-53 -36t-35 -58t-12.5 -77.5q0 -44 12.5 -77.5t35 -56.5t52 -35t64.5 -12q46 0 81 18.5t60 47.5v171zM399.976 804.951q-27.998 -17.999 -49.4971 -41.998q-21.499 -23.998 -25.498 -53.9961
h46.9971v-86.9951l-111.993 -21.999v88.9951q0 55.9961 29.998 90.9941t72.9951 60.9961z" />
    <glyph glyph-name="Hcircumflex" unicode="&#x124;" horiz-adv-x="722" 
d="M188 0h-104v676h104v-282h346v282h104v-676h-104v304h-346v-304zM519 765l-60 -33l-91 107h-10l-91 -107l-62 33l112 150h91z" />
    <glyph glyph-name="hcircumflex" unicode="&#x125;" horiz-adv-x="601" 
d="M357 531q89 0 133 -50q21 -23 32 -58t11 -83v-340h-103v329q0 53 -20 80q-14 20 -36.5 28t-48.5 8q-38 0 -77.5 -13.5t-68.5 -33.5v-398h-103v705l103 28v-255q44 26 87.5 39.5t90.5 13.5zM284 794l-60 -33l-91 107h-10l-91 -107l-62 33l112 150h91z" />
    <glyph glyph-name="Hbar" unicode="&#x126;" horiz-adv-x="766" 
d="M208 0h-104v493h-86v82h86v101h104v-101h346v101h104v-101h98l-29 -82h-69v-493h-104v304h-346v-304zM554 394v99h-346v-99h346z" />
    <glyph glyph-name="hbar" unicode="&#x127;" horiz-adv-x="601" 
d="M6 649h70v56l103 28v-84h121l-24 -72h-97v-99q44 26 87.5 39.5t90.5 13.5q89 0 133 -50q21 -23 32 -58t11 -83v-340h-103v329q0 53 -20 80q-14 20 -36.5 28t-48.5 8q-38 0 -77.5 -13.5t-68.5 -33.5v-398h-103v577h-70v72z" />
    <glyph glyph-name="Itilde" unicode="&#x128;" horiz-adv-x="276" 
d="M190 0h-104v676h104v-676zM323 849q-15 -51 -43 -76t-63 -25q-22 0 -41.5 8t-37.5 17.5t-34 17.5t-29 8q-17 0 -33 -14.5t-26 -40.5l-60 26q20 56 51 83t68 27q22 0 42 -8.5t37 -18t32.5 -18t29.5 -8.5q17 0 28.5 13.5t19.5 36.5z" />
    <glyph glyph-name="itilde" unicode="&#x129;" horiz-adv-x="263" 
d="M316 712q-15 -51 -43 -76t-63 -25q-22 0 -41.5 8t-37.5 17.5t-34 17.5t-29 8q-17 0 -33 -14.5t-26 -41.5l-60 27q20 56 51 82.5t68 26.5q22 0 42 -8t37 -18t32.5 -18t29.5 -8q17 0 28.5 13.5t19.5 35.5zM80 522h103v-522h-103v522z" />
    <glyph glyph-name="Imacron" unicode="&#x12a;" horiz-adv-x="276" 
d="M190 0h-104v676h104v-676zM286 776h-293v76h293v-76z" />
    <glyph glyph-name="imacron" unicode="&#x12b;" horiz-adv-x="263" 
d="M279 640h-293v76h293v-76zM80 522h103v-522h-103v522z" />
    <glyph glyph-name="Ibreve" unicode="&#x12c;" horiz-adv-x="276" 
d="M190 0h-104v676h104v-676zM300 879q-11 -63 -54.5 -99t-106.5 -36t-106.5 36t-55.5 100l76 7q10 -35 30 -55t55 -20q36 0 56.5 20t30.5 55z" />
    <glyph glyph-name="ibreve" unicode="&#x12d;" horiz-adv-x="263" 
d="M293 736q-11 -63 -54.5 -99t-106.5 -36t-106.5 36t-55.5 99l76 7q10 -34 30 -54.5t55 -20.5q36 0 56.5 20.5t30.5 54.5zM80 522h103v-522h-103v522z" />
    <glyph glyph-name="Iogonek" unicode="&#x12e;" horiz-adv-x="276" 
d="M190 0q-51 -23 -82.5 -57t-31.5 -69q0 -20 11.5 -31t36.5 -11q15 0 31.5 3.5t28.5 8.5l4 -67q-17 -7 -38 -11.5t-45 -4.5q-53 0 -84.5 24.5t-31.5 72.5q0 38 23 77t74 77v664h104v-676z" />
    <glyph glyph-name="iogonek" unicode="&#x12f;" horiz-adv-x="263" 
d="M185 -223q-38 -16 -84 -16q-53 0 -84 26t-31 73q0 39 23.5 73t70.5 67v522h103v-522q-57 -29 -84 -60t-27 -64q0 -26 14 -35t35 -9q16 0 31.5 3.5t27.5 8.5zM185 611h-107v101l107 28v-129z" />
    <glyph glyph-name="Idotaccent" unicode="&#x130;" horiz-adv-x="276" 
d="M190 0h-104v676h104v-676zM199 758h-120v110l120 31v-141z" />
    <glyph glyph-name="dotlessi" unicode="&#x131;" horiz-adv-x="263" 
d="M80 522h103v-522h-103v522z" />
    <glyph glyph-name="IJ" unicode="&#x132;" horiz-adv-x="682" 
d="M190 0h-104v676h104v-676zM496 676h104v-485q0 -93 -49.5 -142t-144.5 -49h-71l-31 90h97q51 0 73 25t22 76v485z" />
    <glyph glyph-name="ij" unicode="&#x133;" horiz-adv-x="509" 
d="M80 522h103v-522h-103v522zM185 611h-107v101l107 28v-129zM330 522h103v-543q0 -108 -42 -163t-132 -55q-26 0 -49 4t-43 11l7 82q33 -11 68 -11q50 0 69 29t19 99v547zM435 611h-106v101l106 28v-129z" />
    <glyph glyph-name="Jcircumflex" unicode="&#x134;" horiz-adv-x="408" 
d="M222 676h104v-485q0 -93 -49.5 -142t-144.5 -49h-71l-31 90h97q51 0 73 25t22 76v485zM433 765l-60 -33l-91 107h-10l-91 -107l-62 33l112 150h91z" />
    <glyph glyph-name="jcircumflex" unicode="&#x135;" horiz-adv-x="259" 
d="M286 620l-60 -33l-91 107h-9l-92 -107l-62 33l112 150h91zM80 522h103v-543q0 -108 -42 -163t-132 -55q-26 0 -49 4t-43 11l7 82q33 -11 68 -11q50 0 69 29t19 99v547z" />
    <glyph glyph-name="Kcommaaccent" unicode="&#x136;" horiz-adv-x="651" 
d="M273 289q-6 8 -12.5 11.5t-17.5 3.5h-55v-304h-104v676h104v-282h84l220 282h124l-259 -328l167 -228q12 -17 25 -23.5t36 -6.5h54l-31 -90h-57q-38 0 -60.5 11.5t-40.5 36.5zM228 -262q28 18 49.5 42t25.5 54h-47v87l112 22v-89q0 -56 -30 -91t-73 -61z" />
    <glyph glyph-name="kcommaaccent" unicode="&#x137;" horiz-adv-x="566" 
d="M521 0h-49q-35 0 -59.5 12.5t-46.5 42.5l-122 171q-5 8 -10 10t-14 2h-42v-238h-103v705l103 28v-409h58l170 198h125l-207 -236l124 -174q11 -17 22 -21.5t32 -4.5h48zM189 -262q28 18 49.5 42t25.5 54h-47v87l112 22v-89q0 -56 -30 -91t-73 -61z" />
    <glyph glyph-name="kgreenlandic" unicode="&#x138;" horiz-adv-x="566" 
d="M244 226q-5 8 -10 10t-14 2h-42v-238h-103v522h103v-198h58l170 198h125l-207 -236l124 -174q11 -17 22 -21.5t32 -4.5h48l-29 -86h-49q-35 0 -59.5 12.5t-46.5 42.5z" />
    <glyph glyph-name="Lacute" unicode="&#x139;" horiz-adv-x="541" 
d="M186 159q0 -38 14.5 -53.5t51.5 -15.5h265l-31 -90h-271q-71 0 -102 33t-31 101v542h104v-517zM277 918l48 -80l-220 -105l-36 61z" />
    <glyph glyph-name="lacute" unicode="&#x13a;" horiz-adv-x="263" 
d="M183 0h-103v705l103 28v-733zM250 946l48 -81l-220 -105l-36 62z" />
    <glyph glyph-name="Lcommaaccent" unicode="&#x13b;" horiz-adv-x="541" 
d="M186 159q0 -38 14.5 -53.5t51.5 -15.5h265l-31 -90h-271q-71 0 -102 33t-31 101v542h104v-517zM211 -262q28 18 49.5 42t25.5 54h-47v87l112 22v-89q0 -56 -30 -91t-73 -61z" />
    <glyph glyph-name="lcommaaccent" unicode="&#x13c;" horiz-adv-x="263" 
d="M183 0h-103v705l103 28v-733zM56 -262q28 18 49.5 42t25.5 54h-47v87l112 22v-89q0 -56 -30 -91t-73 -61z" />
    <glyph glyph-name="Lcaron" unicode="&#x13d;" horiz-adv-x="547" 
d="M186 159q0 -38 14.5 -53.5t51.5 -15.5h265l-31 -90h-271q-71 0 -102 33t-31 101v542h104v-517zM257 495q28 18 49.5 42t25.5 54h-47v87l112 22v-89q0 -56 -30 -91t-73 -61z" />
    <glyph glyph-name="lcaron" unicode="&#x13e;" horiz-adv-x="300" 
d="M183 0h-103v705l103 28v-733zM226 506q28 18 49.5 42t25.5 54h-47v87l112 22v-89q0 -56 -30 -91t-73 -61z" />
    <glyph glyph-name="Ldot" unicode="&#x13f;" horiz-adv-x="579" 
d="M186 159q0 -38 14.5 -53.5t51.5 -15.5h265l-31 -90h-271q-71 0 -102 33t-31 101v542h104v-517zM476 321h-120v110l120 30v-140z" />
    <glyph glyph-name="ldot" unicode="&#x140;" horiz-adv-x="419" 
d="M183 0h-103v705l103 28v-733zM397 310h-120v110l120 30v-140z" />
    <glyph glyph-name="Lslash" unicode="&#x141;" horiz-adv-x="587" 
d="M229 159q0 -45 18 -57t54 -12h259l-31 -90h-271q-71 0 -102 33t-31 101v106l-84 -62l-49 64l133 98v336h104v-271l130 96l49 -64l-179 -132v-146z" />
    <glyph glyph-name="lslash" unicode="&#x142;" horiz-adv-x="356" 
d="M223 0h-103v286l-82 -59l-44 62l126 91v325l103 28v-291l100 72l47 -60l-147 -106v-348z" />
    <glyph glyph-name="Nacute" unicode="&#x143;" horiz-adv-x="733" 
d="M649 0h-72l-395 500v-500h-98v676h79l388 -488v488h98v-676zM473 918l48 -80l-220 -105l-36 61z" />
    <glyph glyph-name="nacute" unicode="&#x144;" horiz-adv-x="601" 
d="M357 531q39 0 71.5 -10.5t55.5 -33.5t36 -59.5t13 -87.5v-340h-103v329q0 58 -25.5 87t-79.5 29q-40 0 -78.5 -13.5t-67.5 -33.5v-398h-103v522h91l8 -47q37 25 84 40.5t98 15.5zM431 771l48 -81l-220 -105l-36 62z" />
    <glyph glyph-name="Ncommaaccent" unicode="&#x145;" horiz-adv-x="733" 
d="M649 0h-72l-395 500v-500h-98v676h79l388 -488v488h98v-676zM288 -262q28 18 49.5 42t25.5 54h-47v87l112 22v-89q0 -56 -30 -91t-73 -61z" />
    <glyph glyph-name="ncommaaccent" unicode="&#x146;" horiz-adv-x="601" 
d="M357 531q39 0 71.5 -10.5t55.5 -33.5t36 -59.5t13 -87.5v-340h-103v329q0 58 -25.5 87t-79.5 29q-40 0 -78.5 -13.5t-67.5 -33.5v-398h-103v522h91l8 -47q37 25 84 40.5t98 15.5zM224 -262q28 18 49.5 42t25.5 54h-47v87l112 22v-89q0 -56 -30 -91t-73 -61z" />
    <glyph glyph-name="Ncaron" unicode="&#x147;" horiz-adv-x="733" 
d="M649 0h-72l-395 500v-500h-98v676h79l388 -488v488h98v-676zM212 894l60 32l91 -106h10l91 106l62 -32l-112 -151h-90z" />
    <glyph glyph-name="ncaron" unicode="&#x148;" horiz-adv-x="601" 
d="M357 531q39 0 71.5 -10.5t55.5 -33.5t36 -59.5t13 -87.5v-340h-103v329q0 58 -25.5 87t-79.5 29q-40 0 -78.5 -13.5t-67.5 -33.5v-398h-103v522h91l8 -47q37 25 84 40.5t98 15.5zM158 752l60 33l91 -107h10l91 107l62 -33l-112 -152h-90z" />
    <glyph glyph-name="napostrophe" unicode="&#x149;" horiz-adv-x="686" 
d="M442 531q39 0 71.5 -10.5t55.5 -33.5t36 -59.5t13 -87.5v-340h-103v329q0 58 -25.5 87t-79.5 29q-40 0 -78.5 -13.5t-67.5 -33.5v-398h-103v522h91l8 -47q37 25 84 40.5t98 15.5zM-39 481q28 18 49.5 42t25.5 54h-47v87l112 22v-89q0 -56 -30 -91t-73 -61z" />
    <glyph glyph-name="Eng" unicode="&#x14a;" horiz-adv-x="733" 
d="M649 -28q0 -90 -46 -136.5t-137 -46.5h-51l-31 85h81q45 0 65.5 23.5t20.5 74.5v61l-369 467v-500h-98v676h79l388 -488v488h98v-704z" />
    <glyph glyph-name="eng" unicode="&#x14b;" horiz-adv-x="601" 
d="M357 531q39 0 71.5 -10.5t55.5 -33.5t36 -59.5t13 -87.5v-361q0 -108 -42 -163t-132 -55q-26 0 -49 4t-43 11l7 82q33 -11 68 -11q50 0 69 29t19 99v354q0 58 -25.5 87t-79.5 29q-40 0 -78.5 -13.5t-67.5 -33.5v-398h-103v522h91l8 -47q37 25 84 40.5t98 15.5z" />
    <glyph glyph-name="Omacron" unicode="&#x14c;" horiz-adv-x="786" 
d="M393 78q46 0 88 17.5t74.5 50.5t51.5 81t19 110q0 63 -18.5 111.5t-50.5 81.5t-74.5 50.5t-89.5 17.5t-89.5 -17.5t-74.5 -50.5t-50.5 -81.5t-18.5 -111.5q0 -62 19 -110t51.5 -81t74.5 -50.5t88 -17.5zM393 -10q-70 0 -132 23.5t-108.5 68t-73.5 109t-27 146.5
q0 83 27.5 148t74.5 109.5t109 68t130 23.5t130 -23.5t109 -68t74.5 -109.5t27.5 -148q0 -82 -27 -146.5t-73.5 -109t-108.5 -68t-132 -23.5zM540 776h-293v76h293v-76z" />
    <glyph glyph-name="omacron" unicode="&#x14d;" horiz-adv-x="620" 
d="M310 73q71 0 116 49t45 139q0 89 -44.5 138t-116.5 49t-116.5 -49t-44.5 -138q0 -90 45 -139t116 -49zM310 -10q-64 0 -113.5 20t-83.5 55.5t-51.5 85t-17.5 108.5q0 60 18 110t52.5 86t83.5 56t112 20t112 -20t83.5 -56t52.5 -86t18 -110q0 -59 -17.5 -108.5t-51.5 -85
t-83.5 -55.5t-113.5 -20zM456 640h-293v76h293v-76z" />
    <glyph glyph-name="Obreve" unicode="&#x14e;" horiz-adv-x="786" 
d="M393 78q46 0 88 17.5t74.5 50.5t51.5 81t19 110q0 63 -18.5 111.5t-50.5 81.5t-74.5 50.5t-89.5 17.5t-89.5 -17.5t-74.5 -50.5t-50.5 -81.5t-18.5 -111.5q0 -62 19 -110t51.5 -81t74.5 -50.5t88 -17.5zM393 -10q-70 0 -132 23.5t-108.5 68t-73.5 109t-27 146.5
q0 83 27.5 148t74.5 109.5t109 68t130 23.5t130 -23.5t109 -68t74.5 -109.5t27.5 -148q0 -82 -27 -146.5t-73.5 -109t-108.5 -68t-132 -23.5zM554 879q-11 -63 -54.5 -99t-106.5 -36t-106.5 36t-55.5 100l76 7q10 -35 30 -55t55 -20q36 0 56.5 20t30.5 55z" />
    <glyph glyph-name="obreve" unicode="&#x14f;" horiz-adv-x="620" 
d="M310 73q71 0 116 49t45 139q0 89 -44.5 138t-116.5 49t-116.5 -49t-44.5 -138q0 -90 45 -139t116 -49zM310 -10q-64 0 -113.5 20t-83.5 55.5t-51.5 85t-17.5 108.5q0 60 18 110t52.5 86t83.5 56t112 20t112 -20t83.5 -56t52.5 -86t18 -110q0 -59 -17.5 -108.5t-51.5 -85
t-83.5 -55.5t-113.5 -20zM470 736q-11 -63 -54.5 -99t-106.5 -36t-106.5 36t-55.5 99l76 7q10 -34 30 -54.5t55 -20.5q36 0 56.5 20.5t30.5 54.5z" />
    <glyph glyph-name="Ohungarumlaut" unicode="&#x150;" horiz-adv-x="786" 
d="M393 78q46 0 88 17.5t74.5 50.5t51.5 81t19 110q0 63 -18.5 111.5t-50.5 81.5t-74.5 50.5t-89.5 17.5t-89.5 -17.5t-74.5 -50.5t-50.5 -81.5t-18.5 -111.5q0 -62 19 -110t51.5 -81t74.5 -50.5t88 -17.5zM393 -10q-70 0 -132 23.5t-108.5 68t-73.5 109t-27 146.5
q0 83 27.5 148t74.5 109.5t109 68t130 23.5t130 -23.5t109 -68t74.5 -109.5t27.5 -148q0 -82 -27 -146.5t-73.5 -109t-108.5 -68t-132 -23.5zM392 942l67 -68l-172 -144l-51 51zM597 942l68 -68l-172 -144l-52 51z" />
    <glyph glyph-name="ohungarumlaut" unicode="&#x151;" horiz-adv-x="620" 
d="M310 73q71 0 116 49t45 139q0 89 -44.5 138t-116.5 49t-116.5 -49t-44.5 -138q0 -90 45 -139t116 -49zM310 -10q-64 0 -113.5 20t-83.5 55.5t-51.5 85t-17.5 108.5q0 60 18 110t52.5 86t83.5 56t112 20t112 -20t83.5 -56t52.5 -86t18 -110q0 -59 -17.5 -108.5t-51.5 -85
t-83.5 -55.5t-113.5 -20zM309 805l67 -67l-172 -145l-51 51zM514 805l68 -67l-172 -145l-52 51z" />
    <glyph glyph-name="OE" unicode="&#x152;" horiz-adv-x="1081" 
d="M393 686q58 0 106.5 -15.5t83.5 -39.5v45h451l-31 -90h-316v-213h277l-4 -89h-273v-125q0 -20 4 -33t14 -21t27.5 -11.5t44.5 -3.5h258l-31 -90h-288q-46 0 -74.5 14t-43.5 42q-35 -29 -87.5 -47.5t-117.5 -18.5q-69 0 -131.5 23.5t-109 68.5t-74 109.5t-27.5 146.5
t27.5 146.5t74 109.5t109 68.5t131.5 23.5zM583 537q-42 33 -88 46.5t-90 13.5q-53 0 -98 -17t-78 -50t-51.5 -81.5t-18.5 -110.5t18.5 -110.5t51.5 -81.5t78 -50t98 -17q44 0 90 13.5t88 46.5v398z" />
    <glyph glyph-name="oe" unicode="&#x153;" horiz-adv-x="993" 
d="M524 426q27 44 78 74.5t129 30.5q55 0 96.5 -17t69 -48.5t41 -75t13.5 -97.5q0 -22 -1.5 -38t-3.5 -28h-367q3 -73 47.5 -112.5t130.5 -39.5q37 0 77.5 7t72.5 18l11 -79q-38 -14 -82.5 -22.5t-91.5 -8.5q-78 0 -135 25t-85 78h-5q-29 -45 -82 -74t-131 -29
q-62 0 -110.5 20t-82.5 56t-51.5 85.5t-17.5 108.5q0 60 18 109.5t52.5 85.5t83.5 56t112 20q80 0 132.5 -30t78.5 -75h3zM470 260q0 91 -44.5 139.5t-115.5 48.5q-72 0 -116.5 -49t-44.5 -138q0 -44 12 -79t33.5 -59t51 -37t65.5 -13q70 0 114.5 48t44.5 139zM723 452
q-66 0 -103 -41.5t-40 -107.5h268v14q0 27 -7 51.5t-22 43t-39 29.5t-57 11z" />
    <glyph glyph-name="Racute" unicode="&#x154;" horiz-adv-x="665" 
d="M327 341q72 0 107 34t35 94q0 64 -38.5 90.5t-104.5 26.5h-138v-245h139zM534 0q-38 0 -57.5 11.5t-36.5 36.5l-125 185q-8 11 -16 15t-26 4h-85v-252h-104v676h246q57 0 102 -11.5t77 -36.5t49 -63t17 -91q0 -77 -39 -133t-123 -74l100 -147q6 -9 11 -15t11 -9.5
t14 -4.5t20 -1h52l-25 -90h-62zM428 918l48 -80l-220 -105l-36 61z" />
    <glyph glyph-name="racute" unicode="&#x155;" horiz-adv-x="388" 
d="M174 449q34 32 81.5 54.5t104.5 27.5l-8 -101q-48 -4 -92.5 -19t-80.5 -41v-370h-103v522h91zM319 771l48 -81l-220 -105l-36 62z" />
    <glyph glyph-name="Rcommaaccent" unicode="&#x156;" horiz-adv-x="665" 
d="M327 341q72 0 107 34t35 94q0 64 -38.5 90.5t-104.5 26.5h-138v-245h139zM534 0q-38 0 -57.5 11.5t-36.5 36.5l-125 185q-8 11 -16 15t-26 4h-85v-252h-104v676h246q57 0 102 -11.5t77 -36.5t49 -63t17 -91q0 -77 -39 -133t-123 -74l100 -147q6 -9 11 -15t11 -9.5
t14 -4.5t20 -1h52l-25 -90h-62zM241 -262q28 18 49.5 42t25.5 54h-47v87l112 22v-89q0 -56 -30 -91t-73 -61z" />
    <glyph glyph-name="rcommaaccent" unicode="&#x157;" horiz-adv-x="388" 
d="M174 449q34 32 81.5 54.5t104.5 27.5l-8 -101q-48 -4 -92.5 -19t-80.5 -41v-370h-103v522h91zM47 -262q28 18 49.5 42t25.5 54h-47v87l112 22v-89q0 -56 -30 -91t-73 -61z" />
    <glyph glyph-name="Rcaron" unicode="&#x158;" horiz-adv-x="665" 
d="M327 341q72 0 107 34t35 94q0 64 -38.5 90.5t-104.5 26.5h-138v-245h139zM534 0q-38 0 -57.5 11.5t-36.5 36.5l-125 185q-8 11 -16 15t-26 4h-85v-252h-104v676h246q57 0 102 -11.5t77 -36.5t49 -63t17 -91q0 -77 -39 -133t-123 -74l100 -147q6 -9 11 -15t11 -9.5
t14 -4.5t20 -1h52l-25 -90h-62zM159 894l60 32l91 -106h10l91 106l62 -32l-112 -151h-90z" />
    <glyph glyph-name="rcaron" unicode="&#x159;" horiz-adv-x="388" 
d="M174 449q34 32 81.5 54.5t104.5 27.5l-8 -101q-48 -4 -92.5 -19t-80.5 -41v-370h-103v522h91zM52 752l60 33l91 -107h10l91 107l62 -33l-112 -152h-90z" />
    <glyph glyph-name="Sacute" unicode="&#x15a;" horiz-adv-x="562" 
d="M261 79q77 0 114 31t37 79q0 27 -11 44.5t-31 30t-48 22t-62 19.5q-33 10 -68 22.5t-63.5 33.5t-47 53.5t-18.5 82.5q0 48 18.5 84t50.5 59t76.5 34.5t96.5 11.5q49 0 93 -8.5t86 -19.5l-7 -91q-45 14 -88 22t-82 8q-69 0 -102.5 -24t-33.5 -69q0 -25 9.5 -41.5
t27.5 -28.5t44.5 -21t60.5 -19q41 -12 78.5 -25.5t66 -34.5t45.5 -53t17 -81q0 -52 -19 -91t-53 -65.5t-81 -40t-102 -13.5q-56 0 -114 12.5t-105 34.5l12 95q48 -25 100 -39t103 -14zM388 918l48 -80l-220 -105l-36 61z" />
    <glyph glyph-name="sacute" unicode="&#x15b;" horiz-adv-x="460" 
d="M215 75q57 0 82.5 19t25.5 49q0 18 -8 30t-23 21t-35.5 16.5t-44.5 16.5q-25 9 -52.5 21t-50.5 30t-38 44t-15 64q0 37 15.5 64.5t42.5 45.5t63.5 26.5t77.5 8.5q37 0 73.5 -6t68.5 -16l-9 -84q-29 11 -60.5 17t-66.5 6q-48 0 -75 -13.5t-27 -45.5t29.5 -48t82.5 -33
q37 -12 65.5 -25.5t48 -31t29.5 -41t10 -56.5q0 -42 -16 -73t-44 -51t-66 -30t-81 -10t-88.5 9t-82.5 24l9 89q35 -17 77 -27t83 -10zM344 771l48 -81l-220 -105l-36 62z" />
    <glyph glyph-name="Scircumflex" unicode="&#x15c;" horiz-adv-x="562" 
d="M261 79q77 0 114 31t37 79q0 27 -11 44.5t-31 30t-48 22t-62 19.5q-33 10 -68 22.5t-63.5 33.5t-47 53.5t-18.5 82.5q0 48 18.5 84t50.5 59t76.5 34.5t96.5 11.5q49 0 93 -8.5t86 -19.5l-7 -91q-45 14 -88 22t-82 8q-69 0 -102.5 -24t-33.5 -69q0 -25 9.5 -41.5
t27.5 -28.5t44.5 -21t60.5 -19q41 -12 78.5 -25.5t66 -34.5t45.5 -53t17 -81q0 -52 -19 -91t-53 -65.5t-81 -40t-102 -13.5q-56 0 -114 12.5t-105 34.5l12 95q48 -25 100 -39t103 -14zM455 765l-60 -33l-91 107h-10l-91 -107l-62 33l112 150h91z" />
    <glyph glyph-name="scircumflex" unicode="&#x15d;" horiz-adv-x="460" 
d="M215 75q57 0 82.5 19t25.5 49q0 18 -8 30t-23 21t-35.5 16.5t-44.5 16.5q-25 9 -52.5 21t-50.5 30t-38 44t-15 64q0 37 15.5 64.5t42.5 45.5t63.5 26.5t77.5 8.5q37 0 73.5 -6t68.5 -16l-9 -84q-29 11 -60.5 17t-66.5 6q-48 0 -75 -13.5t-27 -45.5t29.5 -48t82.5 -33
q37 -12 65.5 -25.5t48 -31t29.5 -41t10 -56.5q0 -42 -16 -73t-44 -51t-66 -30t-81 -10t-88.5 9t-82.5 24l9 89q35 -17 77 -27t83 -10zM400 620l-60 -33l-91 107h-10l-91 -107l-62 33l112 150h91z" />
    <glyph glyph-name="Scedilla" unicode="&#x15e;" horiz-adv-x="562" 
d="M415 -138q0 -44 -34 -72.5t-97 -28.5q-21 0 -46 3.5t-44 8.5l3 62q16 -5 35.5 -8t36.5 -3q29 0 45.5 9t16.5 27t-16 25t-40 7h-72l25 99q-48 4 -95.5 15.5t-86.5 30.5l12 95q48 -25 100 -39t103 -14q77 0 114 31t37 79q0 27 -11 44.5t-31 30t-48 22t-62 19.5
q-33 10 -68 22.5t-63.5 33.5t-47 53.5t-18.5 82.5q0 48 18.5 84t50.5 59t76.5 34.5t96.5 11.5q49 0 93 -8.5t86 -19.5l-7 -91q-45 14 -88 22t-83 8q-135 0 -135 -94q0 -24 9 -40t27 -28t44.5 -21.5t61.5 -19.5q41 -12 78.5 -25.5t66 -34.5t45.5 -53t17 -81
q0 -48 -16.5 -85.5t-46 -63.5t-70 -41t-89.5 -19l-10 -42h19q49 0 78.5 -22.5t29.5 -64.5z" />
    <glyph glyph-name="scedilla" unicode="&#x15f;" horiz-adv-x="460" 
d="M362 -138q0 -44 -33.5 -72.5t-93.5 -28.5q-26 0 -50.5 3.5t-43.5 8.5l3 62q16 -5 35.5 -8t38.5 -3q26 0 43 9t17 26q0 19 -15.5 26t-40.5 7h-72l26 100q-35 4 -68.5 11.5t-61.5 19.5l9 89q35 -17 77 -27t83 -10q57 0 82.5 19t25.5 49q0 34 -33.5 51.5t-91.5 37.5
q-29 10 -54.5 21.5t-45 28t-31 41t-11.5 61.5t15 65t41.5 46t63 27t79.5 9q37 0 73.5 -6t68.5 -16l-9 -84q-29 11 -60.5 17t-66.5 6q-48 0 -75 -13.5t-27 -45.5t29.5 -48t82.5 -33q37 -12 65.5 -25.5t48 -31t29.5 -41t10 -56.5q0 -39 -14 -68t-38 -49t-56.5 -31.5
t-70.5 -14.5l-10 -42h19q49 0 78.5 -22.5t29.5 -64.5z" />
    <glyph glyph-name="Scaron" unicode="&#x160;" horiz-adv-x="562" 
d="M261 79q77 0 114 31t37 79q0 27 -11 44.5t-31 30t-48 22t-62 19.5q-33 10 -68 22.5t-63.5 33.5t-47 53.5t-18.5 82.5q0 48 18.5 84t50.5 59t76.5 34.5t96.5 11.5q49 0 93 -8.5t86 -19.5l-7 -91q-45 14 -88 22t-82 8q-69 0 -102.5 -24t-33.5 -69q0 -25 9.5 -41.5
t27.5 -28.5t44.5 -21t60.5 -19q41 -12 78.5 -25.5t66 -34.5t45.5 -53t17 -81q0 -52 -19 -91t-53 -65.5t-81 -40t-102 -13.5q-56 0 -114 12.5t-105 34.5l12 95q48 -25 100 -39t103 -14zM141 894l60 32l91 -106h10l91 106l62 -32l-112 -151h-90z" />
    <glyph glyph-name="scaron" unicode="&#x161;" horiz-adv-x="460" 
d="M215 75q57 0 82.5 19t25.5 49q0 18 -8 30t-23 21t-35.5 16.5t-44.5 16.5q-25 9 -52.5 21t-50.5 30t-38 44t-15 64q0 37 15.5 64.5t42.5 45.5t63.5 26.5t77.5 8.5q37 0 73.5 -6t68.5 -16l-9 -84q-29 11 -60.5 17t-66.5 6q-48 0 -75 -13.5t-27 -45.5t29.5 -48t82.5 -33
q37 -12 65.5 -25.5t48 -31t29.5 -41t10 -56.5q0 -42 -16 -73t-44 -51t-66 -30t-81 -10t-88.5 9t-82.5 24l9 89q35 -17 77 -27t83 -10zM88 752l60 33l91 -107h10l91 107l62 -33l-112 -152h-90z" />
    <glyph glyph-name="Tcommaaccent" unicode="&#x162;" horiz-adv-x="597" 
d="M560 586h-214v-586h-104v586h-228v90h577zM212 -262q28 18 49.5 42t25.5 54h-47v87l112 22v-89q0 -56 -30 -91t-73 -61z" />
    <glyph glyph-name="tcommaaccent" unicode="&#x163;" horiz-adv-x="386" 
d="M175 427v-253q0 -50 19.5 -71.5t72.5 -21.5q21 0 43.5 2.5t39.5 7.5l6 -80q-23 -7 -51 -11t-59 -4q-91 0 -132.5 42.5t-41.5 143.5v455l103 21v-145h185l-30 -86h-155zM127 -262q28 18 49.5 42t25.5 54h-47v87l112 22v-89q0 -56 -30 -91t-73 -61z" />
    <glyph glyph-name="Tcaron" unicode="&#x164;" horiz-adv-x="597" 
d="M560 586h-214v-586h-104v586h-228v90h577zM139 894l60 32l91 -106h10l91 106l62 -32l-112 -151h-90z" />
    <glyph glyph-name="tcaron" unicode="&#x165;" horiz-adv-x="386" 
d="M175 427v-253q0 -50 19.5 -71.5t72.5 -21.5q21 0 43.5 2.5t39.5 7.5l6 -80q-23 -7 -51 -11t-59 -4q-91 0 -132.5 42.5t-41.5 143.5v455l103 21v-145h185l-30 -86h-155zM255 605q28 18 49.5 42t25.5 54h-47v87l112 22v-89q0 -56 -30 -91t-73 -61z" />
    <glyph glyph-name="Tbar" unicode="&#x166;" horiz-adv-x="637" 
d="M580 586h-214v-216h142l-28 -84h-114v-286h-104v286h-126v84h126v216h-228v90h577z" />
    <glyph glyph-name="tbar" unicode="&#x167;" horiz-adv-x="434" 
d="M209 427v-122h132l-21 -73h-111v-58q0 -50 19 -71.5t71 -21.5q20 0 44 2.5t41 7.5l6 -80q-23 -8 -52 -11.5t-58 -3.5q-88 0 -131 41t-43 142v53h-68v73h68v332l103 21v-145h185l-30 -86h-155z" />
    <glyph glyph-name="Utilde" unicode="&#x168;" horiz-adv-x="705" 
d="M353 -10q-131 0 -203 64t-72 197v425h104v-421q0 -85 42.5 -130t128.5 -45q85 0 127.5 45t42.5 130v421h104v-425q0 -133 -72 -197t-202 -64zM538 849q-15 -51 -43 -76t-63 -25q-22 0 -41.5 8t-37.5 17.5t-34 17.5t-29 8q-17 0 -33 -14.5t-26 -40.5l-60 26q20 56 51 83
t68 27q22 0 42 -8.5t37 -18t32.5 -18t29.5 -8.5q17 0 28.5 13.5t19.5 36.5z" />
    <glyph glyph-name="utilde" unicode="&#x169;" horiz-adv-x="594" 
d="M297 -10q-113 0 -170 48.5t-57 159.5v324h103v-324q0 -124 124 -124q62 0 93 32t31 92v324h103v-324q0 -100 -56.5 -154t-170.5 -54zM482 712q-15 -51 -43 -76t-63 -25q-22 0 -41.5 8t-37.5 17.5t-34 17.5t-29 8q-17 0 -33 -14.5t-26 -41.5l-60 27q20 56 51 82.5t68 26.5
q22 0 42 -8t37 -18t32.5 -18t29.5 -8q17 0 28.5 13.5t19.5 35.5z" />
    <glyph glyph-name="Umacron" unicode="&#x16a;" horiz-adv-x="705" 
d="M353 -10q-131 0 -203 64t-72 197v425h104v-421q0 -85 42.5 -130t128.5 -45q85 0 127.5 45t42.5 130v421h104v-425q0 -133 -72 -197t-202 -64zM499 776h-293v76h293v-76z" />
    <glyph glyph-name="umacron" unicode="&#x16b;" horiz-adv-x="594" 
d="M297 -10q-113 0 -170 48.5t-57 159.5v324h103v-324q0 -124 124 -124q62 0 93 32t31 92v324h103v-324q0 -100 -56.5 -154t-170.5 -54zM446 640h-293v76h293v-76z" />
    <glyph glyph-name="Ubreve" unicode="&#x16c;" horiz-adv-x="705" 
d="M353 -10q-131 0 -203 64t-72 197v425h104v-421q0 -85 42.5 -130t128.5 -45q85 0 127.5 45t42.5 130v421h104v-425q0 -133 -72 -197t-202 -64zM515 879q-11 -63 -54.5 -99t-106.5 -36t-106.5 36t-55.5 100l76 7q10 -35 30 -55t55 -20q36 0 56.5 20t30.5 55z" />
    <glyph glyph-name="ubreve" unicode="&#x16d;" horiz-adv-x="594" 
d="M297 -10q-113 0 -170 48.5t-57 159.5v324h103v-324q0 -124 124 -124q62 0 93 32t31 92v324h103v-324q0 -100 -56.5 -154t-170.5 -54zM458 736q-11 -63 -54.5 -99t-106.5 -36t-106.5 36t-55.5 99l76 7q10 -34 30 -54.5t55 -20.5q36 0 56.5 20.5t30.5 54.5z" />
    <glyph glyph-name="Uring" unicode="&#x16e;" horiz-adv-x="705" 
d="M353 -10q-131 0 -203 64t-72 197v425h104v-421q0 -85 42.5 -130t128.5 -45q85 0 127.5 45t42.5 130v421h104v-425q0 -133 -72 -197t-202 -64zM461 826q0 -44 -30 -73.5t-76 -29.5q-47 0 -77.5 30t-30.5 73t30.5 72.5t76.5 29.5q47 0 77 -29.5t30 -72.5zM396 825
q0 18 -12 31t-30 13t-30 -12.5t-12 -31.5q0 -18 12 -30.5t30 -12.5t30 12.5t12 30.5z" />
    <glyph glyph-name="uring" unicode="&#x16f;" horiz-adv-x="594" 
d="M297 -10q-113 0 -170 48.5t-57 159.5v324h103v-324q0 -124 124 -124q62 0 93 32t31 92v324h103v-324q0 -100 -56.5 -154t-170.5 -54zM404 690q0 -44 -30 -73.5t-77 -29.5q-46 0 -76.5 29.5t-30.5 73.5q0 43 30.5 72.5t77.5 29.5q46 0 76 -29.5t30 -72.5zM339 689
q0 18 -12 31t-30 13t-30 -12.5t-12 -31.5t12 -31t30 -12t30 12.5t12 30.5z" />
    <glyph glyph-name="Uhungarumlaut" unicode="&#x170;" horiz-adv-x="705" 
d="M353 -10q-131 0 -203 64t-72 197v425h104v-421q0 -85 42.5 -130t128.5 -45q85 0 127.5 45t42.5 130v421h104v-425q0 -133 -72 -197t-202 -64zM359 942l67 -68l-172 -144l-51 51zM564 942l68 -68l-172 -144l-52 51z" />
    <glyph glyph-name="uhungarumlaut" unicode="&#x171;" horiz-adv-x="594" 
d="M297 -10q-113 0 -170 48.5t-57 159.5v324h103v-324q0 -124 124 -124q62 0 93 32t31 92v324h103v-324q0 -100 -56.5 -154t-170.5 -54zM308 805l67 -67l-172 -145l-51 51zM513 805l68 -67l-172 -145l-52 51z" />
    <glyph glyph-name="Uogonek" unicode="&#x172;" horiz-adv-x="705" 
d="M353 -10q-133 0 -204 64t-71 197v425h104v-421q0 -86 42.5 -130.5t128.5 -44.5q85 0 127.5 44.5t42.5 130.5v421h104v-425q0 -65 -21 -121.5t-74 -94.5q-9 -7 -22 -14.5t-26.5 -15.5t-26.5 -16.5t-23 -15.5q-35 -26 -52.5 -52.5t-17.5 -48.5q0 -40 50 -40q14 0 30 3.5
t28 8.5l4 -67q-17 -7 -40 -11.5t-46 -4.5q-52 0 -82.5 25t-30.5 70q0 37 22 71.5t62 62.5h-8v0z" />
    <glyph glyph-name="uogonek" unicode="&#x173;" horiz-adv-x="594" 
d="M294 -10q-112 1 -168 49t-56 159v324h103v-324q0 -124 123 -124q63 0 94 32t31 92v324h103v-324q0 -109 -68 -163q-20 -16 -41 -26.5t-44 -27.5q-35 -25 -53 -54t-18 -54q0 -41 47 -41q16 0 32 3.5t29 8.5l4 -67q-17 -7 -40 -11.5t-46 -4.5q-52 0 -82.5 25t-30.5 70
q0 36 20.5 69t60.5 65z" />
    <glyph glyph-name="Wcircumflex" unicode="&#x174;" horiz-adv-x="994" 
d="M332 0h-88l-232 676h115l157 -508h7l170 508h72l170 -508h7l157 508h115l-232 -676h-88l-161 479h-7zM654 765l-60 -33l-91 107h-10l-91 -107l-62 33l112 150h91z" />
    <glyph glyph-name="wcircumflex" unicode="&#x175;" horiz-adv-x="823" 
d="M582 149h4l113 373h112l-184 -522h-83l-133 365h-4l-130 -365h-84l-181 522h112l115 -373h4l128 373h77zM566 620l-60 -33l-91 107h-10l-91 -107l-62 33l112 150h91z" />
    <glyph glyph-name="Ycircumflex" unicode="&#x176;" horiz-adv-x="611" 
d="M310 354l176 322h117l-244 -429v-247h-104v249l-247 427h120l179 -322h3zM465 765l-60 -33l-91 107h-10l-91 -107l-62 33l112 150h91z" />
    <glyph glyph-name="ycircumflex" unicode="&#x177;" horiz-adv-x="544" 
d="M218 -239l-94 25l105 234l-219 502h115l154 -377h3l140 377h112zM435 620l-60 -33l-91 107h-10l-91 -107l-62 33l112 150h91z" />
    <glyph glyph-name="Ydieresis" unicode="&#x178;" horiz-adv-x="611" 
d="M310 354l176 322h117l-244 -429v-247h-104v249l-247 427h120l179 -322h3zM463 758h-109v92l109 28v-120zM260 758h-109v92l109 28v-120z" />
    <glyph glyph-name="Zacute" unicode="&#x179;" horiz-adv-x="613" 
d="M67 586l-29 90h538v-52l-397 -534h416l-29 -90h-538v55l394 531h-355zM433 918l48 -80l-220 -105l-36 61z" />
    <glyph glyph-name="zacute" unicode="&#x17a;" horiz-adv-x="518" 
d="M336 436h-267l-29 86h444v-50l-303 -386h309l-29 -86h-429v48zM398 771l48 -81l-220 -105l-36 62z" />
    <glyph glyph-name="Zdotaccent" unicode="&#x17b;" horiz-adv-x="613" 
d="M67 586l-29 90h538v-52l-397 -534h416l-29 -90h-538v55l394 531h-355zM369 758h-120v110l120 31v-141z" />
    <glyph glyph-name="zdotaccent" unicode="&#x17c;" horiz-adv-x="518" 
d="M336 436h-267l-29 86h444v-50l-303 -386h309l-29 -86h-429v48zM320 622h-120v110l120 30v-140z" />
    <glyph glyph-name="Zcaron" unicode="&#x17d;" horiz-adv-x="613" 
d="M67 586l-29 90h538v-52l-397 -534h416l-29 -90h-538v55l394 531h-355zM156 894l60 32l91 -106h10l91 106l62 -32l-112 -151h-90z" />
    <glyph glyph-name="zcaron" unicode="&#x17e;" horiz-adv-x="518" 
d="M336 436h-267l-29 86h444v-50l-303 -386h309l-29 -86h-429v48zM116 752l60 33l91 -107h10l91 107l62 -33l-112 -152h-90z" />
    <glyph glyph-name="longs" unicode="&#x17f;" horiz-adv-x="279" 
d="M177 0h-103v534q0 103 56 155.5t161 52.5q32 0 63 -4.5t54 -10.5l-13 -83q-48 14 -96 14q-65 0 -93.5 -29t-28.5 -95v-534z" />
    <glyph glyph-name="florin" unicode="&#x192;" horiz-adv-x="610" 
d="M29 -149q20 -7 41 -11t42 -4q50 0 73 26t23 81v599q0 103 54.5 151.5t152.5 48.5q35 0 69.5 -5.5t61.5 -14.5l-17 -78q-24 8 -50.5 12t-51.5 4q-60 0 -88.5 -27.5t-28.5 -90.5v-155h206l-27 -79h-179v-363q0 -191 -178 -191q-32 0 -59.5 5t-50.5 12z" />
    <glyph glyph-name="Acaron" unicode="&#x1cd;" horiz-adv-x="673" 
d="M482 157h-289l-62 -157h-113l278 678h85l274 -678h-111zM228 247h219l-105 272h-8zM181 894l60 32l91 -106h10l91 106l62 -32l-112 -151h-90z" />
    <glyph glyph-name="acaron" unicode="&#x1ce;" horiz-adv-x="547" 
d="M40 163q0 68 47 104.5t154 36.5h32q61 0 105 -9v42q0 60 -32.5 84.5t-100.5 24.5q-32 0 -70.5 -5.5t-80.5 -16.5l-9 84q89 23 173 23q112 0 167.5 -45t55.5 -139v-251v-49t2 -47h-88l-8 58h-2q-24 -32 -63 -50t-90 -18q-42 0 -77.5 12.5t-61 35t-39.5 54.5t-14 71z
M378 228h-155q-35 0 -56.5 -14.5t-21.5 -52.5q0 -43 28.5 -66.5t76.5 -23.5q54 0 91 28.5t37 76.5v52zM118 752l60 33l91 -107h10l91 107l62 -33l-112 -152h-90z" />
    <glyph glyph-name="Aringacute" unicode="&#x1fa;" horiz-adv-x="673" 
d="M482 157h-289l-62 -157h-113l278 678h85l274 -678h-111zM228 247h219l-105 272h-8zM445 816q0 -44 -30 -73.5t-76 -29.5q-47 0 -77.5 30t-30.5 73t30.5 72.5t76.5 29.5q47 0 77 -29.5t30 -72.5zM380 815q0 18 -12 31t-30 13t-30 -12.5t-12 -31.5q0 -18 12 -30.5t30 -12.5
t30 12.5t12 30.5zM453 1117l48 -80l-220 -105l-36 61z" />
    <glyph glyph-name="aringacute" unicode="&#x1fb;" horiz-adv-x="547" 
d="M40 163q0 68 47 104.5t154 36.5h32q61 0 105 -9v42q0 60 -32.5 84.5t-100.5 24.5q-32 0 -70.5 -5.5t-80.5 -16.5l-9 84q89 23 173 23q112 0 167.5 -45t55.5 -139v-251v-49t2 -47h-88l-8 58h-2q-24 -32 -63 -50t-90 -18q-42 0 -77.5 12.5t-61 35t-39.5 54.5t-14 71z
M378 228h-155q-35 0 -56.5 -14.5t-21.5 -52.5q0 -43 28.5 -66.5t76.5 -23.5q54 0 91 28.5t37 76.5v52zM385 678q0 -44 -30 -73.5t-77 -29.5q-46 0 -76.5 29.5t-30.5 73.5q0 43 30.5 72.5t77.5 29.5q46 0 76 -29.5t30 -72.5zM320 677q0 18 -12 31t-30 13t-30 -12.5t-12 -31.5
t12 -31t30 -12t30 12.5t12 30.5zM376 981l48 -81l-220 -105l-36 62z" />
    <glyph glyph-name="AEacute" unicode="&#x1fc;" horiz-adv-x="954" 
d="M589 0q-71 0 -102 33t-31 101v24h-240l-95 -158h-119l415 676h490l-31 -90h-316v-213h277l-4 -89h-273v-125q0 -25 5.5 -39t18.5 -20.5t33.5 -8t49.5 -1.5h241l-31 -90h-288zM456 247v311l-187 -311h187zM747 918l48 -80l-220 -105l-36 61z" />
    <glyph glyph-name="aeacute" unicode="&#x1fd;" horiz-adv-x="894" 
d="M645 -10q-77 0 -135.5 24t-85.5 75q-29 -51 -78 -75t-111 -24q-44 0 -80 12t-61.5 34.5t-39.5 54.5t-14 71q0 74 50 108t152 34h37q32 0 58.5 -3t40.5 -6v42q0 57 -31 83t-102 26q-37 0 -76 -6t-75 -16l-9 84q38 10 83 16.5t90 6.5q72 0 116.5 -20t68.5 -62
q32 38 79.5 60t110.5 22q55 0 96 -17.5t68.5 -49.5t41 -76t13.5 -97q0 -17 -1 -33t-3 -27h-368q2 -72 45 -114t133 -42q37 0 77.5 7t72.5 18l11 -79q-38 -14 -82.5 -22.5t-91.5 -8.5zM378 228h-156q-35 0 -56 -14.5t-21 -52.5q0 -43 28 -66.5t78 -23.5q55 0 91 28.5t36 76.5
v52zM626 452q-67 0 -104 -41.5t-41 -104.5h268q0 31 -6.5 58t-21.5 46.5t-38.5 30.5t-56.5 11zM593 771l48 -81l-220 -105l-36 62z" />
    <glyph glyph-name="Oslashacute" unicode="&#x1fe;" horiz-adv-x="786" 
d="M393 -10q-88 0 -162 37l-51 -77l-63 40l51 77q-54 45 -85 113t-31 157q0 83 27.5 148t74.5 109.5t109 68t130 23.5q88 0 162 -38l53 80l64 -40l-54 -81q53 -45 84.5 -113t31.5 -157q0 -82 -27 -146.5t-73.5 -109t-108.5 -68t-132 -23.5zM160 338q0 -60 17.5 -106.5
t46.5 -79.5l279 419q-50 27 -110 27q-47 0 -89.5 -17.5t-74.5 -50.5t-50.5 -81.5t-18.5 -110.5zM393 78q46 0 88 17.5t74.5 50.5t51.5 81t19 110q0 60 -17.5 107t-46.5 80l-279 -419q49 -27 110 -27zM504 918l48 -80l-220 -105l-36 61z" />
    <glyph glyph-name="oslashacute" unicode="&#x1ff;" horiz-adv-x="632" 
d="M423 771l48 -81l-220 -105l-36 62zM315 -10q-81 0 -139 32l-54 -70l-55 39l55 71q-72 74 -72 197q0 60 18 110t52.5 86t83.5 56t112 20q81 0 141 -34l57 74l55 -39l-59 -76q35 -36 53.5 -86.5t18.5 -110.5q0 -59 -17.5 -108.5t-51.5 -85t-84 -55.5t-114 -20zM155 260
q0 -70 29 -117l217 282q-37 23 -85 23q-72 0 -116.5 -49t-44.5 -139zM316 73q35 0 64.5 12.5t51 36.5t33.5 58.5t12 78.5q0 36 -7.5 65t-21.5 52l-216 -281q38 -22 84 -22z" />
    <glyph glyph-name="Scommaaccent" unicode="&#x218;" horiz-adv-x="562" 
d="M261 79q77 0 114 31t37 79q0 27 -11 44.5t-31 30t-48 22t-62 19.5q-33 10 -68 22.5t-63.5 33.5t-47 53.5t-18.5 82.5q0 48 18.5 84t50.5 59t76.5 34.5t96.5 11.5q49 0 93 -8.5t86 -19.5l-7 -91q-45 14 -88 22t-82 8q-69 0 -102.5 -24t-33.5 -69q0 -25 9.5 -41.5
t27.5 -28.5t44.5 -21t60.5 -19q41 -12 78.5 -25.5t66 -34.5t45.5 -53t17 -81q0 -52 -19 -91t-53 -65.5t-81 -40t-102 -13.5q-56 0 -114 12.5t-105 34.5l12 95q48 -25 100 -39t103 -14zM201 -262q28 18 49.5 42t25.5 54h-47v87l112 22v-89q0 -56 -30 -91t-73 -61z" />
    <glyph glyph-name="scommaaccent" unicode="&#x219;" horiz-adv-x="460" 
d="M215 75q57 0 82.5 19t25.5 49q0 18 -8 30t-23 21t-35.5 16.5t-44.5 16.5q-25 9 -52.5 21t-50.5 30t-38 44t-15 64q0 37 15.5 64.5t42.5 45.5t63.5 26.5t77.5 8.5q37 0 73.5 -6t68.5 -16l-9 -84q-29 11 -60.5 17t-66.5 6q-48 0 -75 -13.5t-27 -45.5t29.5 -48t82.5 -33
q37 -12 65.5 -25.5t48 -31t29.5 -41t10 -56.5q0 -42 -16 -73t-44 -51t-66 -30t-81 -10t-88.5 9t-82.5 24l9 89q35 -17 77 -27t83 -10zM155 -262q28 18 49.5 42t25.5 54h-47v87l112 22v-89q0 -56 -30 -91t-73 -61z" />
    <glyph glyph-name="uni021A" unicode="&#x21a;" horiz-adv-x="597" 
d="M560 586h-214v-586h-104v586h-228v90h577zM212 -262q28 18 49.5 42t25.5 54h-47v87l112 22v-89q0 -56 -30 -91t-73 -61z" />
    <glyph glyph-name="uni021B" unicode="&#x21b;" horiz-adv-x="386" 
d="M175 427v-253q0 -50 19.5 -71.5t72.5 -21.5q21 0 43.5 2.5t39.5 7.5l6 -80q-23 -7 -51 -11t-59 -4q-91 0 -132.5 42.5t-41.5 143.5v455l103 21v-145h185l-30 -86h-155zM127 -262q28 18 49.5 42t25.5 54h-47v87l112 22v-89q0 -56 -30 -91t-73 -61z" />
    <glyph glyph-name="circumflex" unicode="&#x2c6;" 
d="M335 620l-60 -33l-91 107h-10l-91 -107l-62 33l112 150h91z" />
    <glyph glyph-name="caron" unicode="&#x2c7;" 
d="M22 752l60 33l91 -107h10l91 107l62 -33l-112 -152h-90z" />
    <glyph glyph-name="breve" unicode="&#x2d8;" 
d="M340 736q-11 -63 -54.5 -99t-106.5 -36t-106.5 36t-55.5 99l76 7q10 -34 30 -54.5t55 -20.5q36 0 56.5 20.5t30.5 54.5z" />
    <glyph glyph-name="dotaccent" unicode="&#x2d9;" 
d="M239 622h-120v110l120 30v-140z" />
    <glyph glyph-name="ring" unicode="&#x2da;" 
d="M287 690q0 -44 -30 -73.5t-77 -29.5q-46 0 -76.5 29.5t-30.5 73.5q0 43 30.5 72.5t77.5 29.5q46 0 76 -29.5t30 -72.5zM222 689q0 18 -12 31t-30 13t-30 -12.5t-12 -31.5t12 -31t30 -12t30 12.5t12 30.5z" />
    <glyph glyph-name="ogonek" unicode="&#x2db;" 
d="M279 -223q-17 -7 -40 -11.5t-46 -4.5q-52 0 -82.5 25t-30.5 70q0 38 24.5 73.5t71.5 70.5h86q-44 -32 -69.5 -64t-25.5 -63q0 -41 47 -41q16 0 32 3.5t29 8.5z" />
    <glyph glyph-name="tilde" unicode="&#x2dc;" 
d="M362 712q-15 -51 -43 -76t-63 -25q-22 0 -41.5 8t-37.5 17.5t-34 17.5t-29 8q-17 0 -33 -14.5t-26 -41.5l-60 27q20 56 51 82.5t68 26.5q22 0 42 -8t37 -18t32.5 -18t29.5 -8q17 0 28.5 13.5t19.5 35.5z" />
    <glyph glyph-name="hungarumlaut" unicode="&#x2dd;" 
d="M134 805l67 -67l-172 -145l-51 51zM339 805l68 -67l-172 -145l-52 51z" />
    <glyph glyph-name="Delta" unicode="&#x394;" horiz-adv-x="687" 
d="M535 86l-143 355q-13 32 -25.5 68.5t-20.5 69.5h-4q-8 -30 -20.5 -67t-26.5 -71l-142 -355h382zM38 0v71l250 612h112l249 -612v-71h-611z" />
    <glyph glyph-name="Delta" unicode="&#x2206;" horiz-adv-x="687" 
d="M535 86l-143 355q-13 32 -25.5 68.5t-20.5 69.5h-4q-8 -30 -20.5 -67t-26.5 -71l-142 -355h382zM38 0v71l250 612h112l249 -612v-71h-611z" />
    <glyph glyph-name="Omega" unicode="&#x3a9;" horiz-adv-x="718" 
d="M359 597q-45 0 -83.5 -15.5t-66 -44.5t-43.5 -69.5t-16 -90.5q0 -78 40 -149t119 -151v-77h-250l-27 85h164q-32 27 -60 59.5t-49 70.5t-33 81t-12 91q0 67 24.5 122.5t67 94.5t100.5 60.5t125 21.5t125 -21.5t100.5 -60.5t67 -94.5t24.5 -122.5q0 -48 -12 -91t-33 -81
t-49 -70.5t-60 -59.5h164l-27 -85h-250v77q79 80 119 151t40 149q0 50 -16 90.5t-43.5 69.5t-66 44.5t-83.5 15.5z" />
    <glyph glyph-name="Omega" unicode="&#x2126;" horiz-adv-x="718" 
d="M359 597q-45 0 -83.5 -15.5t-66 -44.5t-43.5 -69.5t-16 -90.5q0 -78 40 -149t119 -151v-77h-250l-27 85h164q-32 27 -60 59.5t-49 70.5t-33 81t-12 91q0 67 24.5 122.5t67 94.5t100.5 60.5t125 21.5t125 -21.5t100.5 -60.5t67 -94.5t24.5 -122.5q0 -48 -12 -91t-33 -81
t-49 -70.5t-60 -59.5h164l-27 -85h-250v77q79 80 119 151t40 149q0 50 -16 90.5t-43.5 69.5t-66 44.5t-83.5 15.5z" />
    <glyph glyph-name="pi" unicode="&#x3c0;" horiz-adv-x="692" 
d="M240 438v-438h-102v438h-118v84h644l-28 -84h-119v-296q0 -71 58 -71q17 0 35.5 3t33.5 7l7 -72q-18 -8 -43 -12t-51 -4q-73 0 -107 34.5t-34 103.5v307h-176z" />
    <glyph glyph-name="Wgrave" unicode="&#x1e80;" horiz-adv-x="994" 
d="M332 0h-88l-232 676h115l157 -508h7l170 508h72l170 -508h7l157 508h115l-232 -676h-88l-161 479h-7zM553 733l-220 105l48 80l210 -125z" />
    <glyph glyph-name="wgrave" unicode="&#x1e81;" horiz-adv-x="823" 
d="M582 149h4l113 373h112l-184 -522h-83l-133 365h-4l-130 -365h-84l-181 522h112l115 -373h4l128 373h77zM452 585l-220 105l48 81l210 -126z" />
    <glyph glyph-name="Wacute" unicode="&#x1e82;" horiz-adv-x="994" 
d="M332 0h-88l-232 676h115l157 -508h7l170 508h72l170 -508h7l157 508h115l-232 -676h-88l-161 479h-7zM613 918l48 -80l-220 -105l-36 61z" />
    <glyph glyph-name="wacute" unicode="&#x1e83;" horiz-adv-x="823" 
d="M582 149h4l113 373h112l-184 -522h-83l-133 365h-4l-130 -365h-84l-181 522h112l115 -373h4l128 373h77zM536 771l48 -81l-220 -105l-36 62z" />
    <glyph glyph-name="Wdieresis" unicode="&#x1e84;" horiz-adv-x="994" 
d="M332 0h-88l-232 676h115l157 -508h7l170 508h72l170 -508h7l157 508h115l-232 -676h-88l-161 479h-7zM652 758h-109v92l109 28v-120zM449 758h-109v92l109 28v-120z" />
    <glyph glyph-name="wdieresis" unicode="&#x1e85;" horiz-adv-x="823" 
d="M582 149h4l113 373h112l-184 -522h-83l-133 365h-4l-130 -365h-84l-181 522h112l115 -373h4l128 373h77zM564 622h-109v92l109 28v-120zM361 622h-109v92l109 28v-120z" />
    <glyph glyph-name="Ygrave" unicode="&#x1ef2;" horiz-adv-x="611" 
d="M310 354l176 322h117l-244 -429v-247h-104v249l-247 427h120l179 -322h3zM347 733l-220 105l48 80l210 -125z" />
    <glyph glyph-name="ygrave" unicode="&#x1ef3;" horiz-adv-x="544" 
d="M218 -239l-94 25l105 234l-219 502h115l154 -377h3l140 377h112zM322 585l-220 105l48 81l210 -126z" />
    <glyph glyph-name="endash" unicode="&#x2013;" horiz-adv-x="500" 
d="M446 218h-412v86h444z" />
    <glyph glyph-name="emdash" unicode="&#x2014;" horiz-adv-x="1000" 
d="M945 218h-913v86h944z" />
    <glyph glyph-name="quoteleft" unicode="&#x2018;" horiz-adv-x="219" 
d="M200.987 695.957q-36.9971 -25.998 -58.9961 -55.4961t-24.998 -69.4961h51.9961v-110.993l-124.992 -26.998v110.993q0 36.998 5.5 60.4961q5.5 23.499 16.499 44.4971q14.999 27.999 38.4971 48.9971q23.499 20.999 53.4971 40.998z" />
    <glyph glyph-name="quoteright" unicode="&#x2019;" horiz-adv-x="219" 
d="M18 486q37 26 59 55.5t25 69.5h-52v111l125 27v-111q0 -37 -5.5 -60.5t-16.5 -44.5q-15 -28 -38.5 -49t-53.5 -41z" />
    <glyph glyph-name="quotesinglbase" unicode="&#x201a;" horiz-adv-x="219" 
d="M18 -125q37 26 59 55.5t25 69.5h-52v111l125 27v-111q0 -37 -5.5 -60.5t-16.5 -44.5q-15 -28 -38.5 -49t-53.5 -41z" />
    <glyph glyph-name="quotedblleft" unicode="&#x201c;" horiz-adv-x="424" 
d="M200.987 695.957q-36.9971 -25.998 -58.9961 -55.4961t-24.998 -69.4961h51.9961v-110.993l-124.992 -26.998v110.993q0 36.998 5.5 60.4961q5.5 23.499 16.499 44.4971q14.999 27.999 38.4971 48.9971q23.499 20.999 53.4971 40.998zM405.976 695.957
q-36.998 -25.998 -58.9971 -55.4961q-21.998 -29.498 -24.998 -69.4961h51.9971v-110.993l-124.993 -26.998v110.993q0 36.998 5.5 60.4961q5.5 23.499 16.499 44.4971q14.999 27.999 38.498 48.9971q23.498 20.999 53.4961 40.998z" />
    <glyph glyph-name="quotedblright" unicode="&#x201d;" horiz-adv-x="424" 
d="M18 486q37 26 59 55.5t25 69.5h-52v111l125 27v-111q0 -37 -5.5 -60.5t-16.5 -44.5q-15 -28 -38.5 -49t-53.5 -41zM223 486q37 26 59 55.5t25 69.5h-52v111l125 27v-111q0 -37 -5.5 -60.5t-16.5 -44.5q-15 -28 -38.5 -49t-53.5 -41z" />
    <glyph glyph-name="quotedblbase" unicode="&#x201e;" horiz-adv-x="424" 
d="M18 -127q37 26 59 55.5t25 69.5h-52v111l125 27v-111q0 -37 -5.5 -60.5t-16.5 -44.5q-15 -28 -38.5 -49t-53.5 -41zM223 -127q37 26 59 55.5t25 69.5h-52v111l125 27v-111q0 -37 -5.5 -60.5t-16.5 -44.5q-15 -28 -38.5 -49t-53.5 -41z" />
    <glyph glyph-name="dagger" unicode="&#x2020;" horiz-adv-x="534" 
d="M460 370l-144 2l-6 -372h-86l-7 372l-143 -2v85l143 -1l-3 222h105l-2 -222l143 1v-85z" />
    <glyph glyph-name="daggerdbl" unicode="&#x2021;" horiz-adv-x="542" 
d="M464 394q-37 0 -72.5 0.5t-71.5 0.5l-2 -115q29 0 58 0.5t58 0.5v-80q-30 0 -59 0.5t-58 0.5l-3 -202h-86l-4 202q-29 0 -58 -0.5t-58 -0.5v80q29 0 57.5 -0.5t57.5 -0.5l-2 115q-36 0 -71.5 -0.5t-71.5 -0.5v84q35 0 71 -0.5t72 -0.5l-3 199h105l-2 -199q35 0 71 0.5
t72 0.5v-84z" />
    <glyph glyph-name="bullet" unicode="&#x2022;" horiz-adv-x="489" 
d="M409 292q0 -33 -13 -61t-35.5 -48.5t-52.5 -32.5t-64 -12t-64 12t-52 32.5t-35 48.5t-13 61q0 32 13 60t35 49t52 33t64 12t64 -12t52.5 -33t35.5 -49t13 -60z" />
    <glyph glyph-name="ellipsis" unicode="&#x2026;" horiz-adv-x="705" 
d="M60 108l121 27v-135h-121v108zM524 108l121 27v-135h-121v108zM292 108l121 27v-135h-121v108z" />
    <glyph glyph-name="perthousand" unicode="&#x2030;" horiz-adv-x="1230" 
d="M231 -17l-80 52l473 668l81 -48zM215 359q-83 0 -124 45t-41 118t41 118.5t124 45.5q82 0 123 -45.5t41 -118.5t-41 -118t-123 -45zM215 431q35 0 54 22.5t19 68.5t-19 69t-54 23t-54.5 -23.5t-19.5 -68.5t19.5 -68t54.5 -23zM643 -10q-83 0 -124 45t-41 118t41 118.5
t124 45.5q82 0 123 -45.5t41 -118.5t-41 -118t-123 -45zM643 62q35 0 54 22.5t19 68.5t-19 69t-54 23t-54.5 -23.5t-19.5 -68.5t19.5 -68t54.5 -23zM1016 -10q-83 0 -124 45t-41 118t41 118.5t124 45.5q82 0 123 -45.5t41 -118.5t-41 -118t-123 -45zM1016 62q35 0 54 22.5
t19 68.5t-19 69t-54 23t-54.5 -23.5t-19.5 -68.5t19.5 -68t54.5 -23z" />
    <glyph glyph-name="guilsinglleft" unicode="&#x2039;" horiz-adv-x="309" 
d="M289 92l-58 -50l-217 210l218 204l56 -46l-156 -158z" />
    <glyph glyph-name="guilsinglright" unicode="&#x203a;" horiz-adv-x="309" 
d="M177 252l-156 158l56 46l218 -204l-217 -210l-58 50z" />
    <glyph glyph-name="fraction" unicode="&#x2044;" horiz-adv-x="566" 
d="M487 712l79 -48l-487 -681l-79 48z" />
    <glyph glyph-name="Euro" unicode="&#x20ac;" horiz-adv-x="610" 
d="M415 -10q-72 0 -125.5 17.5t-91.5 49t-61.5 74t-34.5 93.5h-84v73h73q-1 14 -1 22v15v13.5t1 14.5h-73v73h81q11 57 35 103t62 79t91.5 51t123.5 18q52 0 96.5 -10t80.5 -27l-11 -89q-34 17 -76.5 26.5t-87.5 9.5q-89 0 -137.5 -41.5t-65.5 -119.5h279l-23 -73h-267
q-1 -11 -1 -17v-11v-14t2 -23h276l-23 -73h-236q20 -67 69.5 -105.5t134.5 -38.5q43 0 87 9.5t79 26.5l9 -88q-36 -18 -81.5 -28t-99.5 -10z" />
    <glyph glyph-name="litre" unicode="&#x2113;" horiz-adv-x="263" 
d="M183 0h-103v705l103 28v-733z" />
    <glyph glyph-name="numero" unicode="&#x2116;" horiz-adv-x="1087" 
d="M753 293h292v-72h-292v72zM649 0h-72l-395 500v-500h-98v676h79l388 -488v488h98v-676zM900 345q-85 0 -129.5 45.5t-44.5 123.5q0 76 43 121.5t131 45.5t130.5 -45.5t42.5 -121.5q0 -78 -44 -123.5t-129 -45.5zM900 614q-42 0 -64.5 -26t-22.5 -74t22.5 -75.5
t64.5 -27.5t64.5 27.5t22.5 75.5t-22.5 74t-64.5 26z" />
    <glyph glyph-name="trademark" unicode="&#x2122;" horiz-adv-x="720" 
d="M266 615h-85v-225h-77v225h-92v61h275zM473 579q9 -20 16.5 -40t15.5 -44q8 24 15.5 44t16.5 40l43 97h102v-286h-73v194q-8 -21 -14.5 -38t-15.5 -37l-43 -97h-63l-43 97q-9 20 -15.5 36t-14.5 39v-194h-72v286h102z" />
    <glyph glyph-name="estimated" unicode="&#x212e;" horiz-adv-x="820" 
d="M181 316q-5 0 -5 -5v-182q0 -10 9 -21q42 -45 100.5 -71t126.5 -26q72 0 133.5 29.5t103.5 79.5h54q-51 -58 -126.5 -93.5t-165.5 -35.5q-77 0 -144.5 26t-117.5 71t-79.5 105.5t-29.5 129.5t29.5 130t79.5 106t117.5 71t144.5 26q76 0 143 -26t117.5 -71t79.5 -106
t29 -130v-7h-599zM644 521q0 12 -10 22q-42 43 -99 68t-123 25q-68 0 -126 -25.5t-100 -70.5q-10 -8 -10 -23v-179q0 -5 5 -5h458q5 0 5 5v183z" />
    <glyph glyph-name="partialdiff" unicode="&#x2202;" horiz-adv-x="630" 
d="M296 511q58 0 99.5 -19.5t70.5 -47.5l3 1q-5 48 -22 88t-45.5 68.5t-68 44.5t-90.5 16q-26 0 -56 -4t-56 -11l-12 78q31 8 67 12.5t68 4.5q84 0 145 -29.5t101.5 -82t60 -124.5t19.5 -158q0 -171 -72 -264.5t-203 -93.5q-54 0 -101.5 17t-83 50t-56 82t-20.5 112
q0 61 19.5 109.5t53 82t79.5 51t100 17.5zM308 73q78 0 122.5 66t44.5 195q-11 19 -28 37t-38.5 31.5t-47.5 22t-55 8.5q-36 0 -65 -13.5t-49.5 -37.5t-31.5 -57.5t-11 -73.5q0 -45 13 -78t35 -55.5t50.5 -33.5t60.5 -11z" />
    <glyph glyph-name="product" unicode="&#x220f;" horiz-adv-x="720" 
d="M18 676h688l-30 -90h-112v-684h-104v684h-218v-684h-104v684h-120v90z" />
    <glyph glyph-name="summation" unicode="&#x2211;" horiz-adv-x="580" 
d="M385 291l-219 -282h398l-28 -89h-508v58l251 328l-234 304v66h517l-29 -89h-351l203 -263v-33z" />
    <glyph glyph-name="minus" unicode="&#x2212;" horiz-adv-x="563" 
d="M468 220h-394v83h421z" />
    <glyph glyph-name="radical" unicode="&#x221a;" horiz-adv-x="656" 
d="M322 124l209 552h101l-265 -676h-96l-148 363h-76l-29 82h179l120 -321h5z" />
    <glyph glyph-name="infinity" unicode="&#x221e;" horiz-adv-x="840" 
d="M374 283q-26 50 -62.5 82.5t-86.5 32.5q-23 0 -43 -7.5t-35.5 -22.5t-24.5 -36.5t-9 -48.5t9 -48.5t25 -36t36 -22t43 -7.5q47 0 84 30t64 84zM466 283q27 -54 64 -84t84 -30q22 0 42.5 7.5t36.5 22t25 36t9 48.5t-9 48.5t-24.5 36.5t-36 22.5t-42.5 7.5
q-50 0 -86.5 -32.5t-62.5 -82.5zM420 214q-35 -64 -85.5 -95.5t-113.5 -31.5q-40 0 -77 12.5t-65.5 37.5t-45.5 61t-17 84q0 49 17.5 86t46.5 62t66.5 37.5t76.5 12.5q66 0 115 -33.5t82 -94.5q33 61 82 94.5t115 33.5q39 0 76.5 -12.5t66.5 -37.5t46.5 -62t17.5 -86
q0 -48 -17 -84t-45.5 -61t-65.5 -37.5t-77 -12.5q-63 0 -113.5 31.5t-85.5 95.5z" />
    <glyph glyph-name="integral" unicode="&#x222b;" horiz-adv-x="410" 
d="M341 26q0 -46 -13 -79t-36.5 -54.5t-56 -31.5t-72.5 -10q-32 0 -63 5.5t-54 13.5l16 76q18 -6 40 -10t45 -4q48 0 69.5 21t21.5 69q0 27 -7.5 60t-19.5 69.5t-27 75t-31 77.5q-22 55 -38 97t-26 75t-15 60t-5 52q0 83 48.5 123t128.5 40q32 0 63 -5.5t55 -13.5l-17 -76
q-18 6 -40 10t-45 4q-47 0 -68.5 -19.5t-21.5 -62.5q0 -23 6 -49t17.5 -58.5t28 -74t37.5 -94.5q19 -47 33.5 -86.5t25 -74t16 -65t5.5 -60.5z" />
    <glyph glyph-name="approxequal" unicode="&#x2248;" horiz-adv-x="563" 
d="M531 395q-23 -46 -60.5 -78t-91.5 -32q-34 0 -59.5 12t-48 27t-43.5 27t-45 12q-28 0 -52.5 -18t-42.5 -50l-56 43q29 49 68 78.5t87 29.5q32 0 57.5 -12.5t48 -27t43.5 -27t45 -12.5q28 0 52.5 19.5t41.5 54.5zM531 194q-23 -46 -60.5 -78t-91.5 -32q-34 0 -59.5 12
t-48 27t-43.5 27t-45 12q-28 0 -52.5 -18t-42.5 -50l-56 43q29 49 68 78.5t87 29.5q32 0 57.5 -12.5t48 -27t43.5 -27t45 -12.5q28 0 52.5 19.5t41.5 54.5z" />
    <glyph glyph-name="notequal" unicode="&#x2260;" horiz-adv-x="563" 
d="M482 118h-221l-55 -107h-70l55 107h-103v83h146l62 119h-208v83h251l52 100h70l-52 -100h100l-27 -83h-116l-62 -119h205z" />
    <glyph glyph-name="lessequal" unicode="&#x2264;" horiz-adv-x="563" 
d="M75 330v62l370 173l37 -75l-284 -129l284 -131l-37 -75zM469 0h-394v83h421z" />
    <glyph glyph-name="greaterequal" unicode="&#x2265;" horiz-adv-x="563" 
d="M113 155l-37 75l284 131l-284 129l37 75l370 -173v-62zM474 0h-394v83h421z" />
    <glyph glyph-name="uni22C5" unicode="&#x22c5;" horiz-adv-x="241" 
d="M60 329l121 27v-135h-121v108z" />
    <glyph glyph-name="lozenge" unicode="&#x25ca;" horiz-adv-x="610" 
d="M26 314v68l242 314h74l242 -314v-68l-242 -314h-74zM496 348l-191 247l-190 -247l190 -249z" />
    <glyph glyph-name="commaaccent" unicode="&#xf6c3;" horiz-adv-x="308" 
d="M76 -262q28 18 49.5 42t25.5 54h-47v87l112 22v-89q0 -56 -30 -91t-73 -61z" />
    <glyph glyph-name="apple" unicode="&#xf8ff;" horiz-adv-x="544" 
d="M208 357q0 13 9.5 22t21.5 9q13 0 21.5 -9t8.5 -22t-8.5 -21.5t-21.5 -8.5q-12 0 -21.5 8.5t-9.5 21.5zM405 357q0 13 9.5 22t21.5 9q13 0 21.5 -9t8.5 -22t-8.5 -21.5t-21.5 -8.5q-12 0 -21.5 8.5t-9.5 21.5zM78 161q0 13 8.5 21.5t21.5 8.5q12 0 21.5 -8.5t9.5 -21.5
t-9.5 -22t-21.5 -9q-13 0 -21.5 9t-8.5 22zM78 357q0 13 8.5 22t21.5 9q12 0 21.5 -9t9.5 -22t-9.5 -21.5t-21.5 -8.5q-13 0 -21.5 8.5t-8.5 21.5zM275 357q0 13 8.5 22t21.5 9q12 0 21.5 -9t9.5 -22t-9.5 -21.5t-21.5 -8.5q-13 0 -21.5 8.5t-8.5 21.5zM340 620q0 12 8.5 21
t22.5 9q11 0 20.5 -9t9.5 -21q0 -14 -9.5 -22.5t-20.5 -8.5q-14 0 -22.5 8.5t-8.5 22.5zM78 620q0 12 8.5 21t21.5 9q12 0 21.5 -9t9.5 -21q0 -14 -9.5 -22.5t-21.5 -8.5q-13 0 -21.5 8.5t-8.5 22.5zM275 620q0 12 8.5 21t21.5 9q12 0 21.5 -9t9.5 -21q0 -14 -9.5 -22.5
t-21.5 -8.5q-13 0 -21.5 8.5t-8.5 22.5zM405 620q0 12 9.5 21t21.5 9q13 0 21.5 -9t8.5 -21q0 -14 -8.5 -22.5t-21.5 -8.5q-12 0 -21.5 8.5t-9.5 22.5zM208 620q0 12 9.5 21t21.5 9q13 0 21.5 -9t8.5 -21q0 -14 -8.5 -22.5t-21.5 -8.5q-12 0 -21.5 8.5t-9.5 22.5zM340 357
q0 13 8.5 22t22.5 9q11 0 20.5 -9t9.5 -22t-9.5 -21.5t-20.5 -8.5q-14 0 -22.5 8.5t-8.5 21.5zM208 30q0 12 9.5 21.5t21.5 9.5q13 0 21.5 -9.5t8.5 -21.5q0 -13 -8.5 -21.5t-21.5 -8.5q-12 0 -21.5 8.5t-9.5 21.5zM78 30q0 12 8.5 21.5t21.5 9.5q12 0 21.5 -9.5t9.5 -21.5
q0 -13 -9.5 -21.5t-21.5 -8.5q-13 0 -21.5 8.5t-8.5 21.5zM208 95q0 14 9.5 22t21.5 8q13 0 21.5 -8t8.5 -22q0 -13 -8.5 -21.5t-21.5 -8.5q-12 0 -21.5 8.5t-9.5 21.5zM78 95q0 14 8.5 22t21.5 8q12 0 21.5 -8t9.5 -22q0 -13 -9.5 -21.5t-21.5 -8.5q-13 0 -21.5 8.5
t-8.5 21.5zM144 620q0 12 9 21t21 9q13 0 21.5 -9t8.5 -21q0 -14 -8.5 -22.5t-21.5 -8.5q-12 0 -21 8.5t-9 22.5zM78 489q0 12 8.5 20.5t21.5 8.5q12 0 21.5 -8.5t9.5 -20.5q0 -13 -9.5 -22t-21.5 -9q-13 0 -21.5 9t-8.5 22zM275 489q0 12 8.5 20.5t21.5 8.5q12 0 21.5 -8.5
t9.5 -20.5q0 -13 -9.5 -22t-21.5 -9q-13 0 -21.5 9t-8.5 22zM208 489q0 12 9.5 20.5t21.5 8.5q13 0 21.5 -8.5t8.5 -20.5q0 -13 -8.5 -22t-21.5 -9q-12 0 -21.5 9t-9.5 22zM405 489q0 12 9.5 20.5t21.5 8.5q13 0 21.5 -8.5t8.5 -20.5q0 -13 -8.5 -22t-21.5 -9q-12 0 -21.5 9
t-9.5 22zM340 489q0 12 8.5 20.5t22.5 8.5q11 0 20.5 -8.5t9.5 -20.5q0 -13 -9.5 -22t-20.5 -9q-14 0 -22.5 9t-8.5 22zM144 30q0 12 9 21.5t21 9.5q13 0 21.5 -9.5t8.5 -21.5q0 -13 -8.5 -21.5t-21.5 -8.5q-12 0 -21 8.5t-9 21.5zM78 292q0 12 8.5 21t21.5 9q12 0 21.5 -9
t9.5 -21q0 -13 -9.5 -21.5t-21.5 -8.5q-13 0 -21.5 8.5t-8.5 21.5zM78 554q0 12 8.5 21t21.5 9q12 0 21.5 -9t9.5 -21q0 -13 -9.5 -21.5t-21.5 -8.5q-13 0 -21.5 8.5t-8.5 21.5zM405 292q0 12 9.5 21t21.5 9q13 0 21.5 -9t8.5 -21q0 -13 -8.5 -21.5t-21.5 -8.5
q-12 0 -21.5 8.5t-9.5 21.5zM78 423q0 13 8.5 21.5t21.5 8.5q12 0 21.5 -8.5t9.5 -21.5t-9.5 -21t-21.5 -8q-13 0 -21.5 8t-8.5 21zM208 423q0 13 9.5 21.5t21.5 8.5q13 0 21.5 -8.5t8.5 -21.5t-8.5 -21t-21.5 -8q-12 0 -21.5 8t-9.5 21zM208 227q0 12 9.5 20.5t21.5 8.5
q13 0 21.5 -8.5t8.5 -20.5q0 -13 -8.5 -21.5t-21.5 -8.5q-12 0 -21.5 8.5t-9.5 21.5zM405 227q0 12 9.5 20.5t21.5 8.5q13 0 21.5 -8.5t8.5 -20.5q0 -13 -8.5 -21.5t-21.5 -8.5q-12 0 -21.5 8.5t-9.5 21.5zM78 227q0 12 8.5 20.5t21.5 8.5q12 0 21.5 -8.5t9.5 -20.5
q0 -13 -9.5 -21.5t-21.5 -8.5q-13 0 -21.5 8.5t-8.5 21.5zM275 227q0 12 8.5 20.5t21.5 8.5q12 0 21.5 -8.5t9.5 -20.5q0 -13 -9.5 -21.5t-21.5 -8.5q-13 0 -21.5 8.5t-8.5 21.5zM340 227q0 12 8.5 20.5t22.5 8.5q11 0 20.5 -8.5t9.5 -20.5q0 -13 -9.5 -21.5t-20.5 -8.5
q-14 0 -22.5 8.5t-8.5 21.5z" />
    <glyph glyph-name="macron.cap" 
d="M326 776h-293v76h293v-76z" />
    <glyph glyph-name="hungarumlaut.cap" 
d="M131 942l67 -68l-172 -144l-51 51zM336 942l68 -68l-172 -144l-52 51z" />
    <glyph glyph-name="ring.cap" 
d="M287 826q0 -44 -30 -73.5t-76 -29.5q-47 0 -77.5 30t-30.5 73t30.5 72.5t76.5 29.5q47 0 77 -29.5t30 -72.5zM222 825q0 18 -12 31t-30 13t-30 -12.5t-12 -31.5q0 -18 12 -30.5t30 -12.5t30 12.5t12 30.5z" />
    <glyph glyph-name="dotaccent.cap" 
d="M239 758h-120v110l120 31v-141z" />
    <glyph glyph-name="breve.cap" 
d="M340 879q-11 -63 -54.5 -99t-106.5 -36t-106.5 36t-55.5 100l76 7q10 -35 30 -55t55 -20q36 0 56.5 20t30.5 55z" />
    <glyph glyph-name="caron.cap" 
d="M20 894l60 32l91 -106h10l91 106l62 -32l-112 -151h-90z" />
    <glyph glyph-name="tilde.cap" 
d="M363 849q-15 -51 -43 -76t-63 -25q-22 0 -41.5 8t-37.5 17.5t-34 17.5t-29 8q-17 0 -33 -14.5t-26 -40.5l-60 26q20 56 51 83t68 27q22 0 42 -8.5t37 -18t32.5 -18t29.5 -8.5q17 0 28.5 13.5t19.5 36.5z" />
    <glyph glyph-name="circumflex.cap" 
d="M336 765l-60 -33l-91 107h-10l-91 -107l-62 33l112 150h91z" />
    <glyph glyph-name="grave.cap" 
d="M272 733l-220 105l48 80l210 -125z" />
    <glyph glyph-name="dieresis.cap" 
d="M334 758h-109v92l109 28v-120zM131 758h-109v92l109 28v-120z" />
    <glyph glyph-name="acute.cap" 
d="M261 918l48 -80l-220 -105l-36 61z" />
    <glyph glyph-name="afii10017" unicode="&#x410;" horiz-adv-x="673" 
d="M482 157h-289l-62 -157h-113l278 678h85l274 -678h-111zM228 247h219l-105 272h-8z" />
    <glyph glyph-name="afii10019" unicode="&#x412;" horiz-adv-x="629" 
d="M595 192q0 -48 -18 -84t-50 -60t-77 -36t-100 -12h-266v676h244q226 0 226 -170q0 -57 -24.5 -92t-67.5 -53v-2q61 -13 97 -55t36 -112zM351 90q65 0 100.5 25t35.5 82q0 106 -139 106h-160v-213h163zM188 392h146q55 0 85.5 24.5t30.5 75.5q0 50 -29.5 72t-87.5 22h-145
v-194z" />
    <glyph glyph-name="afii10022" unicode="&#x415;" horiz-adv-x="580" 
d="M215 0q-71 0 -102 33t-31 101v542h451l-31 -90h-316v-213h277l-4 -89h-273v-125q0 -25 5.5 -39t18.5 -20.5t33.5 -8t49.5 -1.5h241l-31 -90h-288z" />
    <glyph glyph-name="afii10028" unicode="&#x41a;" horiz-adv-x="628" 
d="M188 394h59q17 0 25.5 5t19.5 22l122 198q12 19 25 30.5t28 17.5t32.5 7.5t37.5 1.5h69l-30 -90h-27q-22 0 -33 -5t-23 -25l-100 -162q-15 -24 -25 -33.5t-23 -12.5v-2q14 -5 25.5 -18.5t23.5 -30.5l218 -297h-127l-212 289q-8 11 -13.5 13t-16.5 2h-55v-304h-104v676
h104v-282z" />
    <glyph glyph-name="afii10030" unicode="&#x41c;" horiz-adv-x="865" 
d="M436 213l258 463h87v-676h-100v453l-215 -366h-68l-214 370v-457h-100v676h89l259 -463h4z" />
    <glyph glyph-name="afii10032" unicode="&#x41e;" horiz-adv-x="786" 
d="M393 78q46 0 88 17.5t74.5 50.5t51.5 81t19 110q0 63 -18.5 111.5t-50.5 81.5t-74.5 50.5t-89.5 17.5t-89.5 -17.5t-74.5 -50.5t-50.5 -81.5t-18.5 -111.5q0 -62 19 -110t51.5 -81t74.5 -50.5t88 -17.5zM393 -10q-70 0 -132 23.5t-108.5 68t-73.5 109t-27 146.5
q0 83 27.5 148t74.5 109.5t109 68t130 23.5t130 -23.5t109 -68t74.5 -109.5t27.5 -148q0 -82 -27 -146.5t-73.5 -109t-108.5 -68t-132 -23.5z" />
    <glyph glyph-name="afii10034" unicode="&#x420;" horiz-adv-x="600" 
d="M572 464q0 -46 -13 -88t-42 -74t-76 -51t-115 -19h-138v-232h-104v676h237q118 0 184.5 -50t66.5 -162zM318 322q76 0 111.5 33.5t35.5 100.5q0 70 -36.5 100t-107.5 30h-133v-264h130z" />
    <glyph glyph-name="afii10036" unicode="&#x422;" horiz-adv-x="597" 
d="M560 586h-214v-586h-104v586h-228v90h577z" />
    <glyph glyph-name="afii10039" unicode="&#x425;" horiz-adv-x="647" 
d="M384 345l247 -345h-125l-187 265l-180 -265h-123l242 341l-241 335h123l182 -254l174 254h125z" />
    <glyph glyph-name="afii10031" unicode="&#x41d;" horiz-adv-x="722" 
d="M188 0h-104v676h104v-282h346v282h104v-676h-104v304h-346v-304z" />
    <glyph glyph-name="afii10054" unicode="&#x405;" horiz-adv-x="562" 
d="M261 79q77 0 114 31t37 79q0 27 -11 44.5t-31 30t-48 22t-62 19.5q-33 10 -68 22.5t-63.5 33.5t-47 53.5t-18.5 82.5q0 48 18.5 84t50.5 59t76.5 34.5t96.5 11.5q49 0 93 -8.5t86 -19.5l-7 -91q-45 14 -88 22t-82 8q-69 0 -102.5 -24t-33.5 -69q0 -25 9.5 -41.5
t27.5 -28.5t44.5 -21t60.5 -19q41 -12 78.5 -25.5t66 -34.5t45.5 -53t17 -81q0 -52 -19 -91t-53 -65.5t-81 -40t-102 -13.5q-56 0 -114 12.5t-105 34.5l12 95q48 -25 100 -39t103 -14z" />
    <glyph glyph-name="uni04AE" unicode="&#x4ae;" horiz-adv-x="611" 
d="M310 354l176 322h117l-244 -429v-247h-104v249l-247 427h120l179 -322h3z" />
    <glyph glyph-name="afii10035" unicode="&#x421;" horiz-adv-x="653" 
d="M411 -10q-89 0 -156 27t-112 73.5t-68 110t-23 136.5q0 76 24.5 140t71 110.5t113.5 72.5t152 26q60 0 112 -11.5t84 -28.5l-10 -92q-43 20 -89 31t-93 11q-60 0 -107.5 -18t-81 -51.5t-51 -81t-17.5 -105.5q0 -59 18.5 -107t52 -82t82 -52.5t108.5 -18.5q45 0 94 10
t86 28l10 -89q-38 -18 -91 -28.5t-109 -10.5z" />
    <glyph glyph-name="afii10020" unicode="&#x413;" horiz-adv-x="535" 
d="M188 586v-586h-104v676h443l-30 -90h-309z" />
    <glyph glyph-name="afii10049" unicode="&#x42f;" horiz-adv-x="668" 
d="M480 586h-125q-77 0 -116 -27.5t-39 -95.5q0 -67 37 -94.5t105 -27.5h138v245zM75 0l-31 90h60q16 0 26 5.5t22 22.5l100 147q-82 18 -120 70t-38 125q0 57 17 98t48.5 67.5t77 38.5t101.5 12h246v-676h-104v252h-85q-18 0 -26 -4t-16 -15l-125 -185q-17 -25 -36.5 -36.5
t-57.5 -11.5h-59z" />
    <glyph glyph-name="afii10055" unicode="&#x406;" horiz-adv-x="276" 
d="M190 0h-104v676h104v-676z" />
    <glyph glyph-name="afii10057" unicode="&#x408;" horiz-adv-x="408" 
d="M222 676h104v-485q0 -93 -49.5 -142t-144.5 -49h-71l-31 90h97q51 0 73 25t22 76v485z" />
    <glyph glyph-name="uni0400" unicode="&#x400;" horiz-adv-x="580" 
d="M215 0q-71 0 -102 33t-31 101v542h451l-31 -90h-316v-213h277l-4 -89h-273v-125q0 -25 5.5 -39t18.5 -20.5t33.5 -8t49.5 -1.5h241l-31 -90h-288zM365 733l-220 105l48 80l210 -125z" />
    <glyph glyph-name="afii10023" unicode="&#x401;" horiz-adv-x="580" 
d="M215 0q-71 0 -102 33t-31 101v542h451l-31 -90h-316v-213h277l-4 -89h-273v-125q0 -25 5.5 -39t18.5 -20.5t33.5 -8t49.5 -1.5h241l-31 -90h-288zM466 758h-109v92l109 28v-120zM263 758h-109v92l109 28v-120z" />
    <glyph glyph-name="afii10056" unicode="&#x407;" horiz-adv-x="276" 
d="M190 0h-104v676h104v-676zM296 758h-109v92l109 28v-120zM93 758h-109v92l109 28v-120z" />
    <glyph glyph-name="afii10053" unicode="&#x404;" horiz-adv-x="653" 
d="M411 -10q-89 0 -156 27t-112 73.5t-68 110t-23 136.5q0 76 24.5 140t71 110.5t113.5 72.5t152 26q60 0 112 -11.5t84 -28.5l-10 -92q-43 20 -89 31t-93 11q-111 0 -177.5 -59t-77.5 -159h308l-18 -90h-288q15 -97 82.5 -152.5t174.5 -55.5q45 0 94 10t86 28l10 -89
q-38 -18 -91 -28.5t-109 -10.5z" />
    <glyph glyph-name="afii00208" unicode="&#x2015;" horiz-adv-x="1000" 
d="M945 218h-913v86h944z" />
    <glyph glyph-name="afii10052" unicode="&#x403;" horiz-adv-x="535" 
d="M188 586v-586h-104v676h443l-30 -90h-309zM418 918l48 -80l-220 -105l-36 61z" />
    <glyph glyph-name="afii10065" unicode="&#x430;" horiz-adv-x="547" 
d="M40 163q0 68 47 104.5t154 36.5h32q61 0 105 -9v42q0 60 -32.5 84.5t-100.5 24.5q-32 0 -70.5 -5.5t-80.5 -16.5l-9 84q89 23 173 23q112 0 167.5 -45t55.5 -139v-251v-49t2 -47h-88l-8 58h-2q-24 -32 -63 -50t-90 -18q-42 0 -77.5 12.5t-61 35t-39.5 54.5t-14 71z
M378 228h-155q-35 0 -56.5 -14.5t-21.5 -52.5q0 -43 28.5 -66.5t76.5 -23.5q54 0 91 28.5t37 76.5v52z" />
    <glyph glyph-name="afii10070" unicode="&#x435;" horiz-adv-x="565" 
d="M316 -10q-131 0 -201.5 68t-70.5 196q0 61 17 112t50 88t81 57t109 20q58 0 100 -18t69 -50.5t40 -76t13 -94.5q0 -17 -1.5 -34t-3.5 -31h-367q3 -70 45.5 -111t130.5 -41q36 0 78 7t74 18l11 -79q-38 -14 -82.5 -22.5t-91.5 -8.5zM296 452q-67 0 -104 -41.5t-40 -107.5
h268v11q0 21 -5 45t-18.5 44.5t-37.5 34.5t-63 14z" />
    <glyph glyph-name="afii10080" unicode="&#x43e;" horiz-adv-x="620" 
d="M310 73q71 0 116 49t45 139q0 89 -44.5 138t-116.5 49t-116.5 -49t-44.5 -138q0 -90 45 -139t116 -49zM310 -10q-64 0 -113.5 20t-83.5 55.5t-51.5 85t-17.5 108.5q0 60 18 110t52.5 86t83.5 56t112 20t112 -20t83.5 -56t52.5 -86t18 -110q0 -59 -17.5 -108.5t-51.5 -85
t-83.5 -55.5t-113.5 -20z" />
    <glyph glyph-name="afii10082" unicode="&#x440;" horiz-adv-x="640" 
d="M179 142q24 -29 65 -47.5t87 -18.5q39 0 68.5 13.5t50 38.5t31 59t10.5 75q0 46 -12.5 80.5t-34.5 57t-52 34t-65 11.5q-33 0 -60 -9.5t-46.5 -26.5t-30.5 -41t-11 -52v-174zM343 531q54 0 100.5 -17.5t80 -51.5t53 -83.5t19.5 -113.5q0 -65 -20 -116t-54.5 -86t-82 -54
t-101.5 -19q-51 0 -92 15t-67 38v-245l-103 -28v752h83l11 -69h3q32 42 75 60t95 18z" />
    <glyph glyph-name="afii10102" unicode="&#x455;" horiz-adv-x="460" 
d="M215 75q57 0 82.5 19t25.5 49q0 18 -8 30t-23 21t-35.5 16.5t-44.5 16.5q-25 9 -52.5 21t-50.5 30t-38 44t-15 64q0 37 15.5 64.5t42.5 45.5t63.5 26.5t77.5 8.5q37 0 73.5 -6t68.5 -16l-9 -84q-29 11 -60.5 17t-66.5 6q-48 0 -75 -13.5t-27 -45.5t29.5 -48t82.5 -33
q37 -12 65.5 -25.5t48 -31t29.5 -41t10 -56.5q0 -42 -16 -73t-44 -51t-66 -30t-81 -10t-88.5 9t-82.5 24l9 89q35 -17 77 -27t83 -10z" />
    <glyph glyph-name="afii10085" unicode="&#x443;" horiz-adv-x="544" 
d="M218 -239l-94 25l105 234l-219 502h115l154 -377h3l140 377h112z" />
    <glyph glyph-name="afii10087" unicode="&#x445;" horiz-adv-x="552" 
d="M402 522h120l-189 -253l205 -269h-121l-144 194h-2l-137 -194h-120l198 267l-191 255h121l131 -180h2z" />
    <glyph glyph-name="uni0450" unicode="&#x450;" horiz-adv-x="565" 
d="M316 -10q-131 0 -201.5 68t-70.5 196q0 61 17 112t50 88t81 57t109 20q58 0 100 -18t69 -50.5t40 -76t13 -94.5q0 -17 -1.5 -34t-3.5 -31h-367q3 -70 45.5 -111t130.5 -41q36 0 78 7t74 18l11 -79q-38 -14 -82.5 -22.5t-91.5 -8.5zM296 452q-67 0 -104 -41.5t-40 -107.5
h268v11q0 21 -5 45t-18.5 44.5t-37.5 34.5t-63 14zM364 585l-220 105l48 81l210 -126z" />
    <glyph glyph-name="afii10071" unicode="&#x451;" horiz-adv-x="565" 
d="M316 -10q-131 0 -201.5 68t-70.5 196q0 61 17 112t50 88t81 57t109 20q58 0 100 -18t69 -50.5t40 -76t13 -94.5q0 -17 -1.5 -34t-3.5 -31h-367q3 -70 45.5 -111t130.5 -41q36 0 78 7t74 18l11 -79q-38 -14 -82.5 -22.5t-91.5 -8.5zM296 452q-67 0 -104 -41.5t-40 -107.5
h268v11q0 21 -5 45t-18.5 44.5t-37.5 34.5t-63 14zM455 622h-109v92l109 28v-120zM252 622h-109v92l109 28v-120z" />
    <glyph glyph-name="afii10104" unicode="&#x457;" horiz-adv-x="263" 
d="M80 522h103v-522h-103v522zM287 622h-109v92l109 28v-120zM84 622h-109v92l109 28v-120z" />
    <glyph glyph-name="afii10103" unicode="&#x456;" horiz-adv-x="263" 
d="M80 522h103v-522h-103v522zM185 611h-107v101l107 28v-129z" />
    <glyph glyph-name="afii10105" unicode="&#x458;" horiz-adv-x="259" 
d="M80 522h103v-543q0 -108 -42 -163t-132 -55q-26 0 -49 4t-43 11l7 82q33 -11 68 -11q50 0 69 29t19 99v547zM185 611h-106v101l106 28v-129z" />
    <glyph glyph-name="afii10018" unicode="&#x411;" horiz-adv-x="616" 
d="M188 307v-217h139q32 0 59 4t47 15.5t31 33t11 56.5q0 36 -12 57.5t-32.5 32.5t-47 14.5t-55.5 3.5h-140zM527 676l-30 -90h-309v-190h146q58 0 104.5 -10.5t78 -34t48.5 -61t17 -92.5q0 -59 -20 -97.5t-54 -61t-79.5 -31t-97.5 -8.5h-247v676h443z" />
    <glyph glyph-name="afii10021" unicode="&#x414;" horiz-adv-x="715" 
d="M497 93v493h-200l-68 -432q-4 -22 -10 -39.5t-18 -21.5h296zM18 93h36q18 0 29.5 2.5t19.5 9t13 18.5t8 32l83 521h394v-583h80v-251l-100 -17v179h-463v-162l-100 -17v268z" />
    <glyph glyph-name="afii10024" unicode="&#x416;" horiz-adv-x="922" 
d="M410 304h-54q-11 0 -17.5 -2.5t-13.5 -12.5l-182 -289h-127l187 297q13 20 23 31.5t25 16.5v2q-15 4 -26.5 16.5t-19.5 30.5l-70 163q-8 19 -20 24t-35 5h-28l-30 90h69q42 0 74 -9t50 -48l91 -198q8 -17 18 -22t27 -5h59v282h102v-282h59q17 0 27 5t18 22l91 198
q18 39 50 48t74 9h69l-30 -90h-28q-23 0 -35 -5t-20 -24l-70 -163q-8 -18 -19.5 -30.5t-26.5 -16.5v-2q15 -5 25 -16.5t23 -31.5l187 -297h-127l-182 289q-7 10 -13.5 12.5t-17.5 2.5h-54v-304h-102v304z" />
    <glyph glyph-name="afii10025" unicode="&#x417;" horiz-adv-x="569" 
d="M516 512q0 -57 -24.5 -97.5t-82.5 -59.5v-3q60 -14 93 -52t33 -102q0 -50 -19.5 -89t-55 -65.5t-84.5 -40t-107 -13.5q-68 0 -128 13t-102 33l13 90q46 -23 100.5 -35t104.5 -12q81 0 125.5 31t44.5 91q0 56 -38 79.5t-125 23.5h-74l-11 87h72q80 0 120.5 22t40.5 88
q0 45 -38 70t-101 25q-45 0 -96.5 -12.5t-96.5 -32.5l-16 88q44 20 104 33.5t120 13.5q107 0 167.5 -47t60.5 -127z" />
    <glyph glyph-name="afii10026" unicode="&#x418;" horiz-adv-x="733" 
d="M156 0h-72v676h98v-497l389 497h78v-676h-98v504z" />
    <glyph glyph-name="afii10029" unicode="&#x41b;" horiz-adv-x="702" 
d="M314 586l-71 -452q-5 -33 -14 -58.5t-25 -42t-41.5 -25t-63.5 -8.5h-50l-31 90h64q16 0 26 2.5t16 9.5t9.5 19t6.5 31l84 524h394v-676h-104v586h-200z" />
    <glyph glyph-name="afii10033" unicode="&#x41f;" horiz-adv-x="711" 
d="M627 676v-676h-104v586h-335v-586h-104v676h543z" />
    <glyph glyph-name="afii10037" unicode="&#x423;" horiz-adv-x="620" 
d="M260 61q-12 -21 -25 -33t-28 -18t-32.5 -8t-36.5 -2h-64l-31 90h77q28 0 39.5 7t24.5 29l75 133l-243 417h120l179 -322h4l175 322h118z" />
    <glyph glyph-name="afii10038" unicode="&#x424;" horiz-adv-x="786" 
d="M442 640q60 -6 113 -25.5t93 -56t63 -91.5t23 -130t-22.5 -129t-62 -90.5t-93 -56.5t-114.5 -25v-88h-98v88q-62 5 -115 25t-92.5 56.5t-62 90.5t-22.5 129t23 130t62.5 91.5t93 56t113.5 25.5v89h98v-89zM626 337q0 54 -14.5 93.5t-39 66.5t-58 41.5t-72.5 18.5v-439
q38 4 71.5 19t58.5 41.5t39.5 65.5t14.5 93zM160 337q0 -54 14.5 -93t39.5 -65.5t58.5 -41.5t71.5 -19v439q-39 -4 -72.5 -18.5t-58.5 -41.5t-39 -66.5t-14 -93.5z" />
    <glyph glyph-name="afii10040" unicode="&#x426;" horiz-adv-x="731" 
d="M188 90h325v586h104v-586h80v-248l-100 -17v175h-513v676h104v-586z" />
    <glyph glyph-name="afii10041" unicode="&#x427;" horiz-adv-x="684" 
d="M496 270q-21 -16 -66 -33t-108 -17q-128 0 -196 65.5t-68 192.5v198h104v-175q0 -47 8 -83t27.5 -60t52 -36.5t80.5 -12.5q54 0 96 15t70 38v314h104v-676h-104v270z" />
    <glyph glyph-name="afii10042" unicode="&#x428;" horiz-adv-x="865" 
d="M381 676h104v-586h192v586h104v-676h-697v676h104v-586h193v586z" />
    <glyph glyph-name="afii10043" unicode="&#x429;" horiz-adv-x="895" 
d="M381 676h104v-586h192v586h104v-586h80v-248l-100 -17v175h-677v676h104v-586h193v586z" />
    <glyph glyph-name="afii10044" unicode="&#x42a;" horiz-adv-x="700" 
d="M272 307v-217h139q32 0 59 4t47 15.5t31 33t11 56.5q0 36 -12 57.5t-32.5 32.5t-47 14.5t-55.5 3.5h-140zM13 676h259v-280h146q58 0 104.5 -10.5t78 -34t48.5 -61t17 -92.5q0 -59 -20 -97.5t-54 -61t-79.5 -31t-97.5 -8.5h-247v588h-125z" />
    <glyph glyph-name="afii10045" unicode="&#x42b;" horiz-adv-x="872" 
d="M188 307v-217h139q32 0 59 4t47 15.5t31 33t11 56.5q0 36 -12 57.5t-32.5 32.5t-47 14.5t-55.5 3.5h-140zM188 676v-280h146q58 0 104.5 -10.5t78 -34t48.5 -61t17 -92.5q0 -59 -20 -97.5t-54 -61t-79.5 -31t-97.5 -8.5h-247v676h104zM788 0h-104v676h104v-676z" />
    <glyph glyph-name="afii10046" unicode="&#x42c;" horiz-adv-x="616" 
d="M188 307v-217h139q32 0 59 4t47 15.5t31 33t11 56.5q0 36 -12 57.5t-32.5 32.5t-47 14.5t-55.5 3.5h-140zM188 676v-280h146q58 0 104.5 -10.5t78 -34t48.5 -61t17 -92.5q0 -59 -20 -97.5t-54 -61t-79.5 -31t-97.5 -8.5h-247v676h104z" />
    <glyph glyph-name="afii10047" unicode="&#x42d;" horiz-adv-x="653" 
d="M242 -10q-56 0 -109 10.5t-91 28.5l10 89q37 -18 86 -28t94 -10q53 0 97 14.5t77 41.5t54 65.5t29 86.5h-288l-18 90h308q-11 100 -73 159t-172 59q-47 0 -95.5 -11t-91.5 -31l-10 92q32 17 86.5 28.5t114.5 11.5q85 0 150.5 -26t110 -72.5t67.5 -110.5t23 -140
q0 -73 -23 -136.5t-68 -110t-112.5 -73.5t-155.5 -27z" />
    <glyph glyph-name="afii10048" unicode="&#x42e;" horiz-adv-x="1095" 
d="M702 -10q-66 0 -125.5 21t-105.5 61.5t-74.5 99t-34.5 132.5h-174v-304h-104v676h104v-282h176q9 70 40 124t76.5 91.5t102.5 57t119 19.5q68 0 130 -23.5t109 -68t74.5 -109.5t27.5 -148q0 -82 -27 -146.5t-73.5 -109t-108.5 -68t-132 -23.5zM702 78q46 0 88 17.5
t74.5 50.5t51.5 81t19 110q0 63 -18.5 111.5t-50.5 81.5t-74.5 50.5t-89.5 17.5t-89.5 -17.5t-74.5 -50.5t-50.5 -81.5t-18.5 -111.5q0 -62 19 -110t51.5 -81t74.5 -50.5t88 -17.5z" />
    <glyph glyph-name="afii10050" unicode="&#x490;" horiz-adv-x="535" 
d="M188 0h-104v676h345v159l98 17v-266h-339v-586z" />
    <glyph glyph-name="afii10051" unicode="&#x402;" horiz-adv-x="755" 
d="M603 211q0 72 -35.5 106t-113.5 34q-52 0 -95.5 -14.5t-69.5 -31.5v-305h-104v586h-171v90h524l-31 -90h-218v-193q23 14 69 30.5t113 16.5q122 0 179 -56.5t57 -165.5v-27q0 -93 -49.5 -142t-144.5 -49h-71l-31 90h97q51 0 73 25t22 76v20z" />
    <glyph glyph-name="afii10058" unicode="&#x409;" horiz-adv-x="1046" 
d="M618 307v-217h139q32 0 59 4t47 15.5t31 33t11 56.5q0 36 -12 57.5t-32.5 32.5t-47 14.5t-55.5 3.5h-140zM314 586l-71 -452q-5 -33 -14 -58.5t-25 -42t-41.5 -25t-63.5 -8.5h-50l-31 90h64q16 0 26 2.5t16.5 9.5t9.5 19t6 31l84 524h394v-280h146q58 0 104.5 -10.5
t78 -34t48.5 -61t17 -92.5q0 -59 -20 -97.5t-54 -61t-79.5 -31t-97.5 -8.5h-247v586h-200z" />
    <glyph glyph-name="afii10059" unicode="&#x40a;" horiz-adv-x="1066" 
d="M188 0h-104v676h104v-280h346v280h104v-280h146q58 0 104.5 -10.5t78 -34t48.5 -61t17 -92.5q0 -59 -20 -97.5t-54 -61t-79.5 -31t-97.5 -8.5h-247v306h-346v-306zM638 307v-217h139q32 0 59 4t47 15.5t31 33t11 56.5q0 36 -12 57.5t-32.5 32.5t-47 14.5t-55.5 3.5h-140z
" />
    <glyph glyph-name="afii10060" unicode="&#x40b;" horiz-adv-x="766" 
d="M698 0h-104v211q0 71 -31.5 105.5t-108.5 34.5q-52 0 -95.5 -14.5t-69.5 -31.5v-305h-104v586h-171v90h524l-31 -90h-218v-193q23 14 69 30.5t113 16.5q121 0 174 -57t53 -165v-218z" />
    <glyph glyph-name="afii10145" unicode="&#x40f;" horiz-adv-x="701" 
d="M301 0h-217v676h104v-586h325v586h104v-676h-217v-158l-99 -17v175z" />
    <glyph glyph-name="afii10027" unicode="&#x419;" horiz-adv-x="733" 
d="M531 879q-11 -63 -54.5 -99t-106.5 -36t-106.5 36t-55.5 100l76 7q10 -35 30 -55t55 -20q36 0 56.5 20t30.5 55zM156 0h-72v676h98v-497l389 497h78v-676h-98v504z" />
    <glyph glyph-name="uni040D" unicode="&#x40d;" horiz-adv-x="733" 
d="M156 0h-72v676h98v-497l389 497h78v-676h-98v504zM458 733l-220 105l48 80l210 -125z" />
    <glyph glyph-name="afii10061" unicode="&#x40c;" horiz-adv-x="628" 
d="M188 394h59q17 0 25.5 5t19.5 22l122 198q12 19 25 30.5t28 17.5t32.5 7.5t37.5 1.5h69l-30 -90h-27q-22 0 -33 -5t-23 -25l-100 -162q-15 -24 -25 -33.5t-23 -12.5v-2q14 -5 25.5 -18.5t23.5 -30.5l218 -297h-127l-212 289q-8 11 -13.5 13t-16.5 2h-55v-304h-104v676
h104v-282zM424 918l48 -80l-220 -105l-36 61z" />
    <glyph glyph-name="afii10062" unicode="&#x40e;" horiz-adv-x="620" 
d="M260 61q-12 -21 -25 -33t-28 -18t-32.5 -8t-36.5 -2h-64l-31 90h77q28 0 39.5 7t24.5 29l75 133l-243 417h120l179 -322h4l175 322h118zM471 879q-11 -63 -54.5 -99t-106.5 -36t-106.5 36t-55.5 100l76 7q10 -35 30 -55t55 -20q36 0 56.5 20t30.5 55z" />
    <glyph glyph-name="uni0492" unicode="&#x492;" horiz-adv-x="593" 
d="M6 366h136v310h443l-30 -90h-309v-220h271v-89h-271v-277h-104v277h-136v89z" />
    <glyph glyph-name="uni049A" unicode="&#x49a;" horiz-adv-x="651" 
d="M539 1q-27 2 -47.5 10t-41.5 37l-177 241q-6 8 -12.5 11.5t-17.5 3.5h-55v-304h-104v676h104v-282h84l220 282h124l-259 -328l167 -228q12 -17 25 -23.5t36 -6.5h54v-248l-100 -17v176z" />
    <glyph glyph-name="uni04A2" unicode="&#x4a2;" horiz-adv-x="752" 
d="M188 0h-104v676h104v-282h346v282h104v-586h80v-248l-100 -17v175h-84v304h-346v-304z" />
    <glyph glyph-name="uni04B0" unicode="&#x4b0;" horiz-adv-x="611" 
d="M310 354l176 322h117l-207 -354h116l-4 -88h-149v-234h-104v234h-151v88h113l-209 354h120l179 -322h3z" />
    <glyph glyph-name="uni04BA" unicode="&#x4ba;" horiz-adv-x="665" 
d="M597 0h-104v211q0 71 -31 105.5t-108 34.5q-52 0 -95.5 -14.5t-70.5 -31.5v-305h-104v676h104v-283q23 14 69.5 30.5t112.5 16.5q122 0 174.5 -57t52.5 -165v-218z" />
    <glyph glyph-name="uni04D8" unicode="&#x4d8;" horiz-adv-x="729" 
d="M353 78q47 0 85 15.5t65 43t43 67t19 87.5h-405v-14q0 -46 14 -83t39.5 -62.5t61 -39.5t78.5 -14zM352 -10q-64 0 -119 18t-95 54.5t-63 91.5t-23 128q0 32 2 57.5t4 40.5h508q-5 49 -22.5 89.5t-46.5 69t-70 44t-93 15.5q-50 0 -102 -10.5t-95 -31.5l-10 90q34 16 90 28
t119 12q82 0 146 -26t107 -72.5t65.5 -111.5t22.5 -142q0 -72 -19 -134.5t-58.5 -109t-101 -73.5t-146.5 -27z" />
    <glyph glyph-name="uni04E8" unicode="&#x4e8;" horiz-adv-x="786" 
d="M393 -10q-70 0 -132 23.5t-108.5 68t-73.5 109t-27 146.5q0 83 27.5 148t74.5 109.5t109 68t130 23.5t130 -23.5t109 -68t74.5 -109.5t27.5 -148q0 -82 -27 -146.5t-73.5 -109t-108.5 -68t-132 -23.5zM393 598q-43 0 -82 -14.5t-70 -42t-52 -68.5t-27 -93h461
q-6 52 -26.5 93t-51.5 68.5t-70 42t-82 14.5zM393 78q42 0 80.5 14t69 41t52 67t28.5 91h-460q7 -51 28 -91t52 -67t69.5 -41t80.5 -14z" />
    <glyph glyph-name="afii10066" unicode="&#x431;" horiz-adv-x="616" 
d="M318 73q72 0 110.5 47.5t38.5 137.5t-39 135t-111 45q-71 0 -110.5 -45t-39.5 -135t40.5 -137.5t110.5 -47.5zM315 -10q-65 0 -114 22t-82 63.5t-49.5 100.5t-16.5 134q0 98 17 168t48 118t74 77t94.5 44t109.5 20t120 5l-8 -86q-62 0 -119 -5.5t-103.5 -25.5t-79 -60
t-44.5 -110h2q8 10 23 21.5t35.5 21.5t47 16.5t57.5 6.5q62 0 108 -19.5t76.5 -54.5t45.5 -83t15 -106q0 -56 -16 -105t-48 -85t-80.5 -57t-112.5 -21z" />
    <glyph glyph-name="afii10066.locl" horiz-adv-x="611" 
d="M147 231q0 -39 12.5 -69t34.5 -49.5t51 -29.5t62 -10q27 0 54.5 8.5t50 27t36.5 48.5t14 73q0 51 -36 87t-95 67l-50 26q-67 -29 -100.5 -74.5t-33.5 -104.5zM337 661q-61 0 -87.5 -15.5t-26.5 -52.5q0 -26 19.5 -43.5t67.5 -43.5l71 -37q45 -24 79.5 -47.5t58.5 -51
t36 -60.5t12 -75q0 -61 -20.5 -107t-56 -76.5t-82.5 -46t-101 -15.5q-57 0 -106 15t-84 45t-55 75t-20 106q0 43 12 79t34 64.5t52 49t65 32.5q-42 29 -63 61t-21 75q0 80 55 115t163 35h22q32 0 64 2t73 10l-16 -87q-38 -5 -73.5 -5.5t-58.5 -0.5h-13z" />
    <glyph glyph-name="afii10067" unicode="&#x432;" horiz-adv-x="544" 
d="M500 158q0 -84 -50 -121t-139 -37h-235v522h217q38 0 70.5 -6t56 -22t37 -42.5t13.5 -66.5q0 -41 -17.5 -69.5t-44.5 -39.5v-2q41 -8 66.5 -38t25.5 -78zM179 309h113q32 0 54 14t22 52q0 64 -77 64h-112v-130zM306 83q45 0 67.5 17t22.5 58q0 43 -27.5 57t-69.5 14h-120
v-146h127z" />
    <glyph glyph-name="afii10068" unicode="&#x433;" horiz-adv-x="431" 
d="M76 0v522h350l-28 -86h-219v-436h-103z" />
    <glyph glyph-name="afii10069" unicode="&#x434;" horiz-adv-x="588" 
d="M391 88v348h-144l-49 -310q-2 -14 -7 -24t-12 -14h212zM12 88h43q23 0 30 10t11 33l61 391h337v-434h71v-204l-92 -16v136h-369v-120l-92 -16v220z" />
    <glyph glyph-name="afii10072" unicode="&#x436;" horiz-adv-x="735" 
d="M318 313v209h99v-209h35q14 0 20.5 4.5t12.5 17.5l61 134q15 34 38 43.5t67 9.5h62l-29 -86h-15q-21 0 -30 -3.5t-16 -19.5l-51 -110q-7 -14 -16 -21.5t-18 -9.5v-2q16 -4 31 -29l154 -241h-117l-134 213q-7 11 -11 12.5t-12 1.5h-32v-227h-99v227h-32q-8 0 -12 -1.5
t-11 -12.5l-134 -213h-117l154 241q15 25 31 29v2q-9 2 -18 9.5t-16 21.5l-51 110q-8 16 -16.5 19.5t-29.5 3.5h-15l-29 86h62q44 0 67 -9.5t38 -43.5l61 -134q6 -13 12.5 -17.5t20.5 -4.5h35z" />
    <glyph glyph-name="afii10073" unicode="&#x437;" horiz-adv-x="484" 
d="M430 390q0 -47 -18.5 -77.5t-50.5 -40.5v-2q32 -9 55.5 -36t23.5 -77q0 -41 -16.5 -72t-45.5 -52t-68.5 -32t-85.5 -11q-52 0 -103.5 12t-86.5 29l12 82q19 -9 41 -16.5t44.5 -13t44 -8t39.5 -2.5q55 0 88 20.5t33 64.5q0 41 -26.5 54.5t-85.5 13.5h-60l-28 86h86
q28 0 48 2t33 9t19 21t6 38q0 37 -29 52t-72 15q-16 0 -36 -3t-41.5 -8t-43 -12t-39.5 -15l-14 81q37 17 88 28t98 11q41 0 76 -9t60.5 -26.5t40 -44t14.5 -61.5z" />
    <glyph glyph-name="afii10074" unicode="&#x438;" horiz-adv-x="594" 
d="M148 0h-72v522h95v-351l272 351h75v-522h-96v354z" />
    <glyph glyph-name="afii10075" unicode="&#x439;" horiz-adv-x="594" 
d="M148 0h-72v522h95v-351l272 351h75v-522h-96v354zM461 736q-11 -63 -54.5 -99t-106.5 -36t-106.5 36t-55.5 99l76 7q10 -34 30 -54.5t55 -20.5q36 0 56.5 20.5t30.5 54.5z" />
    <glyph glyph-name="afii10076" unicode="&#x43a;" horiz-adv-x="542" 
d="M179 313h46q13 0 19.5 4t14.5 18l74 123q12 20 21.5 32.5t21.5 19.5t28.5 9.5t43.5 2.5h70l-29 -86h-25q-17 0 -24.5 -3.5t-15.5 -14.5l-67 -110q-8 -14 -17 -23.5t-19 -12.5v-2q8 -2 16 -10t19 -23l172 -237h-124l-148 205q-11 14 -15 18t-17 4h-45v-227h-103v522h103
v-209z" />
    <glyph glyph-name="afii10077" unicode="&#x43b;" horiz-adv-x="573" 
d="M258 436l-52 -329q-4 -28 -11.5 -48t-21 -33t-34.5 -19.5t-52 -6.5h-46l-29 86h56q17 0 25.5 7t12.5 32l62 397h331v-522h-103v436h-138z" />
    <glyph glyph-name="afii10078" unicode="&#x43c;" horiz-adv-x="698" 
d="M159 522l189 -333h2l189 333h83v-522h-95v329l-149 -262h-59l-148 262v-329h-95v522h83z" />
    <glyph glyph-name="afii10079" unicode="&#x43d;" horiz-adv-x="609" 
d="M179 522v-213h251v213h103v-522h-103v227h-251v-227h-103v522h103z" />
    <glyph glyph-name="afii10081" unicode="&#x43f;" horiz-adv-x="599" 
d="M523 522v-522h-103v436h-241v-436h-103v522h447z" />
    <glyph glyph-name="afii10084" unicode="&#x442;" horiz-adv-x="474" 
d="M178 0v436h-173v86h464l-28 -86h-160v-436h-103z" />
    <glyph glyph-name="afii10083" unicode="&#x441;" horiz-adv-x="514" 
d="M480 22q-33 -14 -72 -23t-84 -9q-63 0 -114.5 18.5t-88.5 53.5t-57 85t-20 113q0 64 21 114.5t59 85.5t90.5 53t115.5 18q40 0 76 -7t68 -19l-14 -84q-26 11 -56.5 18t-65.5 7q-88 0 -138.5 -49t-50.5 -135q0 -40 12 -74.5t35.5 -59.5t58.5 -39t81 -14q36 0 70.5 8
t61.5 20z" />
    <glyph glyph-name="afii10086" unicode="&#x444;" horiz-adv-x="672" 
d="M286 -13q-55 7 -99.5 30t-76 58.5t-49 82t-17.5 100.5q0 55 17.5 102t49.5 83t76.5 59.5t98.5 31.5v171l101 28v-199q54 -8 98 -31.5t76 -59.5t49.5 -83t17.5 -102q0 -54 -17.5 -100.5t-49 -82t-76 -58.5t-98.5 -30v-189l-101 -28v217zM524 261q0 37 -11 69t-29.5 56.5
t-43.5 40.5t-53 22v-377q28 6 53 22t43.5 40.5t29.5 56.5t11 70zM149 261q0 -38 10.5 -70t29.5 -56.5t43.5 -40.5t53.5 -22v377q-29 -6 -53.5 -22t-43.5 -40.5t-29.5 -56.5t-10.5 -69z" />
    <glyph glyph-name="afii10088" unicode="&#x446;" horiz-adv-x="607" 
d="M76 0v522h103v-436h231v436h103v-436h71v-202l-92 -16v132h-416z" />
    <glyph glyph-name="afii10089" unicode="&#x447;" horiz-adv-x="552" 
d="M373 194q-17 -11 -46.5 -21t-73.5 -10q-103 0 -152.5 51t-49.5 151v157h102v-157q0 -60 24.5 -90t84.5 -30q39 0 66.5 9.5t44.5 22.5v245h103v-522h-103v194z" />
    <glyph glyph-name="afii10090" unicode="&#x448;" horiz-adv-x="715" 
d="M306 522h103v-436h127v436h103v-522h-563v522h103v-436h127v436z" />
    <glyph glyph-name="afii10091" unicode="&#x449;" horiz-adv-x="733" 
d="M306 522h103v-436h127v436h103v-436h71v-202l-92 -16v132h-542v522h103v-436h127v436z" />
    <glyph glyph-name="afii10092" unicode="&#x44a;" horiz-adv-x="592" 
d="M237 337h126q37 0 72 -5.5t62.5 -23t44 -51t16.5 -89.5q0 -55 -16 -88t-43 -51t-62.5 -23.5t-75.5 -5.5h-227v437h-92l-29 85h224v-185zM237 256v-173h105q26 0 47 2t35.5 10.5t22 25.5t7.5 48q0 30 -8.5 47.5t-23.5 26.5t-35.5 11t-43.5 2h-106z" />
    <glyph glyph-name="afii10093" unicode="&#x44b;" horiz-adv-x="758" 
d="M682 0h-103v522h103v-522zM179 256v-173h105q26 0 47 2t35.5 10.5t22 25.5t7.5 48q0 30 -8.5 47.5t-23.5 26.5t-35.5 11t-43.5 2h-106zM179 522v-185h126q37 0 72 -5.5t62.5 -23t44 -51t16.5 -89.5q0 -55 -16 -88t-43 -51t-62.5 -23.5t-75.5 -5.5h-227v522h103z" />
    <glyph glyph-name="afii10094" unicode="&#x44c;" horiz-adv-x="534" 
d="M179 256v-173h105q26 0 47 2t35.5 10.5t22 25.5t7.5 48q0 30 -8.5 47.5t-23.5 26.5t-35.5 11t-43.5 2h-106zM179 522v-185h126q37 0 72 -5.5t62.5 -23t44 -51t16.5 -89.5q0 -55 -16 -88t-43 -51t-62.5 -23.5t-75.5 -5.5h-227v522h103z" />
    <glyph glyph-name="afii10095" unicode="&#x44d;" horiz-adv-x="514" 
d="M46 103q27 -12 61.5 -20t70.5 -8q78 0 123.5 38t58.5 100h-200l-28 86h230q-9 69 -53.5 108t-122.5 39q-35 0 -65.5 -7t-56.5 -18l-14 84q32 12 68 19t76 7q63 0 114 -18t87 -53t55.5 -85.5t19.5 -114.5q0 -63 -20 -113t-57 -85t-88.5 -53.5t-114.5 -18.5q-45 0 -84 9
t-72 23z" />
    <glyph glyph-name="afii10096" unicode="&#x44e;" horiz-adv-x="876" 
d="M566 -10q-59 0 -106 17t-81 48.5t-53.5 75t-24.5 96.5h-122v-227h-103v522h103v-213h124q7 50 28 91t54.5 70t79 45t101.5 16q63 0 112 -20t83.5 -56t52.5 -86t18 -110q0 -59 -17.5 -108.5t-51.5 -85t-83.5 -55.5t-113.5 -20zM566 73q71 0 116 49t45 139q0 89 -44.5 138
t-116.5 49t-116.5 -49t-44.5 -138q0 -90 45 -139t116 -49z" />
    <glyph glyph-name="afii10097" unicode="&#x44f;" horiz-adv-x="517" 
d="M50 352q0 90 52 130t140 40h199v-522h-103v190h-53q-14 0 -23 -13l-79 -116q-12 -18 -21 -29.5t-18.5 -18.5t-21 -10t-27.5 -3h-54l-29 86h53q9 0 15 2.5t15 15.5l67 99q-56 14 -84 54t-28 95zM338 439h-84q-52 0 -78 -20t-26 -66q0 -45 25 -64t71 -19h92v169z" />
    <glyph glyph-name="afii10100" unicode="&#x453;" horiz-adv-x="431" 
d="M76 0v522h350l-28 -86h-219v-436h-103zM339 771l48 -81l-220 -105l-36 62z" />
    <glyph glyph-name="afii10098" unicode="&#x491;" horiz-adv-x="444" 
d="M179 0h-103v522h258v126l92 16v-228h-247v-436z" />
    <glyph glyph-name="afii10099" unicode="&#x452;" horiz-adv-x="601" 
d="M533 76q0 -108 -42 -163t-132 -55q-29 0 -51 4t-37 9l7 83q10 -3 29 -7t35 -4q50 0 69 29.5t19 99.5v257q0 53 -20 80q-14 20 -36.5 28t-48.5 8q-38 0 -77.5 -13.5t-68.5 -33.5v-398h-103v577h-70v72h70v56l103 28v-84h121l-24 -72h-97v-99q44 26 87.5 39.5t90.5 13.5
q89 0 133 -50q21 -23 32 -58t11 -83v-264z" />
    <glyph glyph-name="afii10101" unicode="&#x454;" horiz-adv-x="514" 
d="M480 22q-33 -14 -72 -23t-84 -9q-63 0 -114.5 18.5t-88.5 53.5t-57 85t-20 113q0 64 21 114.5t59 85.5t90.5 53t115.5 18q40 0 76 -7t68 -19l-14 -84q-26 11 -56.5 18t-65.5 7q-78 0 -126.5 -39t-59.5 -108h230l-28 -86h-200q13 -62 58.5 -100t123.5 -38q36 0 70.5 8
t61.5 20z" />
    <glyph glyph-name="afii10106" unicode="&#x459;" horiz-adv-x="854" 
d="M499 256v-173h105q26 0 47 2t35.5 10.5t22 25.5t7.5 48q0 30 -8.5 47.5t-23.5 26.5t-35.5 11t-43.5 2h-106zM258 436l-52 -329q-4 -28 -11.5 -48t-20.5 -33t-34 -19.5t-52 -6.5h-47l-29 86h56q17 0 25.5 7t12.5 32l62 397h331v-185h126q37 0 72 -5.5t62.5 -23t44 -51
t16.5 -89.5q0 -55 -16 -88t-43 -51t-62.5 -23.5t-75.5 -5.5h-227v436h-138z" />
    <glyph glyph-name="afii10107" unicode="&#x45a;" horiz-adv-x="888" 
d="M659 337q37 0 72 -5.5t62.5 -23t44 -51t16.5 -89.5q0 -55 -16 -88t-43 -51t-62.5 -23.5t-75.5 -5.5h-227v231h-251v-231h-103v522h103v-210h251v210h103v-185h126zM533 256v-173h105q26 0 47 2t35.5 10.5t22 25.5t7.5 48q0 30 -8.5 47.5t-23.5 26.5t-35.5 11t-43.5 2
h-106z" />
    <glyph glyph-name="afii10193" unicode="&#x45f;" horiz-adv-x="589" 
d="M249 0h-173v522h103v-436h231v436h103v-522h-173v-116l-91 -16v132z" />
    <glyph glyph-name="uni0493" unicode="&#x493;" horiz-adv-x="454" 
d="M99 522h350l-28 -86h-219v-147h195l-4 -82h-191v-207h-103v207h-106v82h106v233z" />
    <glyph glyph-name="uni049B" unicode="&#x49b;" horiz-adv-x="563" 
d="M453 0q-14 1 -24.5 4t-20 9t-19 16t-22.5 26l-122 155q-7 8 -12 10t-14 2h-40v-222h-103v522h103v-214h58l170 214h125l-207 -252l120 -153q16 -20 26 -25.5t29 -5.5h45v-202l-92 -16v132v0z" />
    <glyph glyph-name="uni04A3" unicode="&#x4a3;" horiz-adv-x="622" 
d="M430 0v227h-251v-227h-103v522h103v-213h251v213h103v-436h71v-202l-92 -16v132h-82z" />
    <glyph glyph-name="uni04AF" unicode="&#x4af;" horiz-adv-x="553" 
d="M281 121l151 401h111l-214 -522v-202l-103 -28v230l-216 522h112l156 -401h3z" />
    <glyph glyph-name="uni04B1" unicode="&#x4b1;" horiz-adv-x="553" 
d="M281 121l151 401h111l-189 -437h106l-27 -82h-104v-205l-103 -28v233h-119v82h93l-190 437h112l156 -401h3z" />
    <glyph glyph-name="uni04BB" unicode="&#x4bb;" horiz-adv-x="601" 
d="M357 531q89 0 133 -50q21 -23 32 -58t11 -83v-340h-103v329q0 53 -20 80q-14 20 -36.5 28t-48.5 8q-38 0 -77.5 -13.5t-68.5 -33.5v-398h-103v705l103 28v-255q44 26 87.5 39.5t90.5 13.5z" />
    <glyph glyph-name="afii10846" unicode="&#x4d9;" horiz-adv-x="567" 
d="M248 448q-22 0 -44.5 -2.5t-43 -7t-38 -9.5t-29.5 -9l-12 80q38 14 83 22.5t89 8.5q132 0 201 -67.5t69 -202.5q0 -58 -15.5 -107.5t-46.5 -86t-78 -57t-109 -20.5q-115 0 -172.5 65.5t-57.5 185.5q0 14 1 26.5t3 26.5h368q-1 31 -10.5 59t-30 49t-51.5 33.5t-76 12.5z
M147 218v-6q0 -69 33.5 -106t96.5 -37q67 0 101 42t37 107h-268z" />
    <glyph glyph-name="uni04E9" unicode="&#x4e9;" horiz-adv-x="620" 
d="M310 -10q-64 0 -113.5 20t-83.5 55.5t-51.5 85t-17.5 108.5q0 60 18 110t52.5 86t83.5 56t112 20t112 -20t83.5 -56t52.5 -86t18 -110q0 -59 -17.5 -108.5t-51.5 -85t-83.5 -55.5t-113.5 -20zM310 73q63 0 106.5 39.5t52.5 112.5h-318q9 -73 52.5 -112.5t106.5 -39.5z
M310 448q-62 0 -104 -37t-53 -104h315q-11 67 -53.5 104t-104.5 37z" />
    <glyph glyph-name="uni045D" unicode="&#x45d;" horiz-adv-x="594" 
d="M148 0h-72v522h95v-351l272 351h75v-522h-96v354zM389 585l-220 105l48 81l210 -126z" />
    <glyph glyph-name="afii10109" unicode="&#x45c;" horiz-adv-x="542" 
d="M179 313h46q13 0 19.5 4t14.5 18l74 123q12 20 21.5 32.5t21.5 19.5t28.5 9.5t43.5 2.5h70l-29 -86h-25q-17 0 -24.5 -3.5t-15.5 -14.5l-67 -110q-8 -14 -17 -23.5t-19 -12.5v-2q8 -2 16 -10t19 -23l172 -237h-124l-148 205q-11 14 -15 18t-17 4h-45v-227h-103v522h103
v-209zM372 771l48 -81l-220 -105l-36 62z" />
    <glyph glyph-name="afii10108" unicode="&#x45b;" horiz-adv-x="601" 
d="M6 649h70v56l103 28v-84h121l-24 -72h-97v-99q44 26 87.5 39.5t90.5 13.5q89 0 133 -50q21 -23 32 -58t11 -83v-340h-103v329q0 53 -20 80q-14 20 -36.5 28t-48.5 8q-38 0 -77.5 -13.5t-68.5 -33.5v-398h-103v577h-70v72z" />
    <glyph glyph-name="afii10110" unicode="&#x45e;" horiz-adv-x="544" 
d="M218 -239l-94 25l105 234l-219 502h115l154 -377h3l140 377h112zM431 736q-11 -63 -54.5 -99t-106.5 -36t-106.5 36t-55.5 99l76 7q10 -34 30 -54.5t55 -20.5q36 0 56.5 20.5t30.5 54.5z" />
    <glyph glyph-name="afii61352" horiz-adv-x="1087" 
d="M753 293h292v-72h-292v72zM649 0h-72l-395 500v-500h-98v676h79l388 -488v488h98v-676zM900 345q-85 0 -129.5 45.5t-44.5 123.5q0 76 43 121.5t131 45.5t130.5 -45.5t42.5 -121.5q0 -78 -44 -123.5t-129 -45.5zM900 614q-42 0 -64.5 -26t-22.5 -74t22.5 -75.5
t64.5 -27.5t64.5 27.5t22.5 75.5t-22.5 74t-64.5 26z" />
    </font>
</defs>
</svg>
