<svg width="57" height="75" viewBox="0 0 57 75" fill="none" xmlns="http://www.w3.org/2000/svg">
<path d="M54.8224 1.92645C53.5757 1.35226 52.1069 1.57552 51.0871 2.494L46.2463 6.78032L39.6603 0.889008C38.3371 -0.296336 36.3339 -0.296336 35.0108 0.889008L28.4302 6.77474L21.848 0.889008C20.5245 -0.296336 18.5212 -0.296336 17.1977 0.889008L10.6099 6.78032L5.76459 2.49418C4.33489 1.22337 2.1456 1.35226 0.874789 2.78197C0.305837 3.42208 -0.00584712 4.25039 8.30916e-05 5.10678V69.3798C-0.0112541 71.2954 1.53252 72.8575 3.44815 72.8688C4.30472 72.8739 5.13303 72.5617 5.77331 71.9925L10.6141 67.7062L17.2001 73.5975C18.5233 74.7829 20.5264 74.7829 21.8496 73.5975L28.4302 67.7111L35.0119 73.5968C36.3353 74.782 38.3387 74.782 39.6622 73.5968L46.2499 67.7057L51.0953 71.9919C52.5248 73.263 54.7141 73.1346 55.9851 71.7051C56.5546 71.0648 56.8662 70.236 56.8603 69.3791V5.10678C56.8776 3.73464 56.0761 2.48406 54.8224 1.92645ZM48.5538 65.0929C47.2305 63.9207 45.2387 63.9259 43.9216 65.1053L37.3358 70.9964L30.755 65.1107C29.4317 63.9254 27.4283 63.9254 26.105 65.1107L19.5235 70.9964L12.9349 65.1053C11.6229 63.9261 9.63458 63.9207 8.31615 65.0928L3.48844 69.3778V60.0805L3.471 5.10765L8.30656 9.39293C9.62987 10.5652 11.6217 10.56 12.9387 9.38054L19.5246 3.4894L26.1054 9.37513C27.4287 10.5605 29.4321 10.5605 30.7554 9.37513L37.3368 3.4894L43.9255 9.38054C45.2374 10.5598 47.2258 10.5652 48.5442 9.3931L53.3719 5.10678V49.2889L53.3894 69.3782L48.5538 65.0929Z" fill="#4A3024"/>
<path d="M44.9638 35.7047H11.8966C10.9333 35.7047 10.1525 36.4856 10.1525 37.4489C10.1525 38.4122 10.9333 39.1931 11.8966 39.1931H44.9638C45.9271 39.1931 46.708 38.4122 46.708 37.4489C46.708 36.4856 45.927 35.7047 44.9638 35.7047Z" fill="#4A3024"/>
<path d="M29.2662 25.2396H11.8966C10.9333 25.2396 10.1525 26.0205 10.1525 26.9838C10.1525 27.9471 10.9333 28.728 11.8966 28.728H29.2662C30.2295 28.728 31.0104 27.9471 31.0104 26.9838C31.0104 26.0205 30.2294 25.2396 29.2662 25.2396Z" fill="#4A3024"/>
<path d="M44.3533 25.2396H39.1964C38.2331 25.2396 37.4523 26.0205 37.4523 26.9838C37.4523 27.9471 38.2331 28.728 39.1964 28.728H44.3533C45.3166 28.728 46.0975 27.9471 46.0975 26.9838C46.0975 26.0205 45.3165 25.2396 44.3533 25.2396Z" fill="#4A3024"/>
<path d="M44.9638 46.1698H11.8966C10.9333 46.1698 10.1525 46.9507 10.1525 47.914C10.1525 48.8773 10.9333 49.6582 11.8966 49.6582H44.9638C45.9271 49.6582 46.708 48.8773 46.708 47.914C46.708 46.9507 45.927 46.1698 44.9638 46.1698Z" fill="#4A3024"/>
</svg>
