<svg width="91" height="95" viewBox="0 0 91 95" fill="none" xmlns="http://www.w3.org/2000/svg">
<path d="M89.2227 21.58H77.8432C77.6522 9.73123 68.3204 0.153076 56.875 0.153076C45.4296 0.153076 36.0979 9.73123 35.9068 21.58H24.5273C23.5459 21.58 22.75 22.407 22.75 23.4272V46.7028H1.77734C0.795895 46.7028 0 47.5298 0 48.55V92.883C0 93.9032 0.795895 94.7302 1.77734 94.7302H89.2227C90.2041 94.7302 91 93.9032 91 92.883V23.4272C91 22.407 90.2041 21.58 89.2227 21.58ZM39.457 21.9502C39.457 11.9682 47.2708 3.8475 56.875 3.8475C66.4792 3.8475 74.293 11.9682 74.293 21.9502V35.0653C74.293 36.0839 73.4957 36.9126 72.5156 36.9126C71.5356 36.9126 70.7383 36.0839 70.7383 35.0653V21.9502C70.7383 14.0055 64.5194 7.54192 56.875 7.54192C49.2306 7.54192 43.0117 14.0055 43.0117 21.9502V35.0653C43.0117 36.0839 42.2144 36.9126 41.2344 36.9126C40.2543 36.9126 39.457 36.0839 39.457 35.0653V21.9502ZM67.1745 21.58H46.5755C46.7642 15.8435 51.3101 11.2363 56.875 11.2363C62.4399 11.2363 66.9858 15.8435 67.1745 21.58ZM87.4453 91.0358H43.3672V79.0289C43.3672 78.0087 42.5713 77.1817 41.5898 77.1817C40.6084 77.1817 39.8125 78.0087 39.8125 79.0289V91.0358H3.55469V50.3972H39.8125V62.4041C39.8125 63.4243 40.6084 64.2513 41.5898 64.2513C42.5713 64.2513 43.3672 63.4243 43.3672 62.4041V48.55C43.3672 47.5298 42.5713 46.7028 41.5898 46.7028H26.3047V25.2744H35.9023V35.0653C35.9023 38.121 38.2943 40.607 41.2344 40.607C44.1745 40.607 46.5664 38.121 46.5664 35.0653V25.2744H67.1836V35.0653C67.1836 38.121 69.5755 40.607 72.5156 40.607C75.4557 40.607 77.8477 38.121 77.8477 35.0653V25.2744H87.4453V91.0358Z" fill="#4A3024"/>
</svg>
