<svg width="88" height="84" viewBox="0 0 88 84" fill="none" xmlns="http://www.w3.org/2000/svg">
<path d="M86.171 45.9228C87.1819 45.9228 87.9998 45.0848 87.9998 44.0492V34.6816C87.9998 30.5486 84.7192 27.1875 80.6847 27.1875H66.9195C66.3944 25.9958 66.0544 24.7526 66.0544 23.4405C66.0544 20.0483 67.8921 16.9124 70.8513 15.2566C71.2816 15.0151 71.6014 14.6054 71.7336 14.1204C71.8675 13.6374 71.8051 13.1178 71.5621 12.6805L67.1062 4.70704C66.1329 2.96888 64.5612 1.72656 62.6806 1.2107C60.8089 0.698352 58.8517 0.967436 57.1765 1.96631L3.84583 33.7741C0.384645 35.8379 -0.806401 40.4229 1.18839 43.9907L5.79604 52.2422C6.0407 52.6813 6.44789 52.9997 6.92468 53.1258C7.39977 53.2521 7.90691 53.1771 8.3285 52.9172C9.80363 52.006 11.3825 51.5431 13.0202 51.5431C17.0121 51.5431 20.4994 54.2375 21.6865 58.135C20.5026 61.9043 17.0876 64.6578 13.0202 64.6578C12.0093 64.6578 11.1913 65.4958 11.1913 66.5314V75.8989C11.1913 80.032 14.472 83.3931 18.5065 83.3931H80.6849C84.7192 83.3931 88 80.0322 88 75.8989V66.5314C88 65.4958 87.182 64.6578 86.1712 64.6578C81.1296 64.6578 77.0274 60.4552 77.0274 55.2903C77.0272 50.1253 81.1294 45.9228 86.171 45.9228ZM59.018 5.20481C59.8449 4.71073 60.8165 4.57355 61.7344 4.82981C62.6685 5.0859 63.4472 5.70434 63.9312 6.56973L67.5263 13.0026C64.3241 15.4634 62.3971 19.3149 62.3971 23.4405C62.3971 24.7111 62.6012 25.9708 62.9625 27.1875H22.159L59.018 5.20481ZM13.02 47.7963C11.3467 47.7963 9.67676 48.1513 8.10699 48.8356L4.36377 42.1301C3.36183 40.3407 3.95658 38.0447 5.68529 37.0128L11.2913 33.6694C11.2467 34.0038 11.1913 34.3351 11.1913 34.6818V44.0494C11.1913 45.0849 12.0093 45.9229 13.0202 45.9229C16.385 45.9229 19.2989 47.8158 20.8867 50.5966C18.6968 48.8314 15.9535 47.7963 13.02 47.7963ZM73.3695 55.2903C73.3695 61.886 78.1469 67.3603 84.3422 68.2713V75.8989C84.3422 77.9645 82.7009 79.6459 80.6847 79.6459H36.7941V76.3672C36.7941 75.3316 35.9761 74.4936 34.9653 74.4936C33.9544 74.4936 33.1364 75.3316 33.1364 76.3672V79.6459H18.5063C16.4901 79.6459 14.8488 77.9645 14.8488 75.8989V68.2713C21.0441 67.3601 25.8215 61.886 25.8215 55.2903C25.8215 48.6946 21.0441 43.2203 14.8488 42.3093V34.6816C14.8488 32.6161 16.4901 30.9347 18.5063 30.9347H33.1364V35.1501C33.1364 36.1857 33.9544 37.0237 34.9653 37.0237C35.9761 37.0237 36.7941 36.1857 36.7941 35.1501V30.9347H80.6847C82.7009 30.9347 84.3422 32.6161 84.3422 34.6816V42.3093C78.1469 43.2203 73.3695 48.6946 73.3695 55.2903Z" fill="#4A3024"/>
</svg>
