<svg width="71" height="84" viewBox="0 0 71 84" fill="none" xmlns="http://www.w3.org/2000/svg">
<path d="M2.62963 36.6411V79.2972C2.62963 81.5771 4.39562 83.4252 6.57407 83.4252H65.7223C67.9008 83.4252 69.262 81.5771 69.262 79.2972L68.3704 40.1651V36.6411C69.8227 36.6411 71 35.409 71 33.8891V27.0091C71 24.7293 69.234 22.8811 67.0556 22.8811H64.1222C67.1526 20.7023 69.1655 17.288 69.6668 13.4761C69.7399 13.0185 69.5877 12.5531 69.262 12.2383C68.9363 11.9236 68.481 11.8017 68.0509 11.9143L64.0683 12.956L63.0717 8.78669C62.9565 8.30603 62.6033 7.92729 62.1469 7.79515C61.6906 7.66301 61.2016 7.79787 60.8667 8.14823C59.7972 9.17802 58.6075 10.062 57.3259 10.7791C56.6492 7.03052 54.596 3.70858 51.6065 1.52553C50.807 0.978004 49.8419 0.760312 48.898 0.91458C42.9116 2.0039 37.8645 6.20249 35.5 12.0602C33.1378 6.20456 28.0945 2.00619 22.1112 0.91458C21.1669 0.760625 20.2015 0.97828 19.4014 1.52553C16.4104 3.70543 14.3544 7.02483 13.6741 10.7723C12.3906 10.0536 11.198 9.16975 10.1241 8.14135C9.78898 7.79173 9.30022 7.65752 8.84427 7.7899C8.38833 7.92229 8.03552 8.30086 7.92045 8.78119L6.92382 12.9505L2.94913 11.9143C2.51904 11.8017 2.06369 11.9236 1.738 12.2383C1.4123 12.5531 1.26012 13.0185 1.33322 13.4761C1.83447 17.288 3.84735 20.7023 6.8778 22.8811H3.94444C1.76599 22.8811 0 24.7293 0 27.0091V33.8891C0 35.409 1.17733 36.6411 2.62963 36.6411ZM5.25926 79.2972V36.6411H28.9259V80.6732H6.57407C5.84792 80.6732 5.25926 80.0572 5.25926 79.2972ZM31.5556 18.7531C31.5556 17.9931 32.1442 17.3771 32.8704 17.3771H38.1296C38.8558 17.3771 39.4444 17.9931 39.4444 18.7531V22.8811H31.5556V18.7531ZM30.2407 25.6331H40.7593V33.8891H30.2407V25.6331ZM31.5556 80.6732V36.6411H39.4444V80.6732H31.5556ZM65.7407 41.5067L66.5284 78.6308C66.5522 79.7517 65.65 80.6732 64.5288 80.6732H42.0741V36.6411H65.7407V41.5067ZM67.0556 25.6331C67.7817 25.6331 68.3704 26.2492 68.3704 27.0091V33.8891H43.3889V25.6331H67.0556ZM57.2852 17.439C57.6777 16.7671 57.8746 15.9901 57.8519 15.203C57.837 14.6618 57.8072 14.1398 57.7624 13.6371C58.9098 13.0582 60.0035 12.3696 61.0298 11.58L61.8371 14.9594C62.0135 15.6966 62.7276 16.1444 63.4319 15.9598L66.5717 15.1342C64.7349 20.802 59.6768 22.8811 55.2222 22.8811H51.383C53.7821 21.6553 55.821 19.7753 57.2852 17.439ZM49.3161 3.63219C49.6167 3.58594 49.9231 3.65801 50.176 3.83446C51.6223 4.82105 55.0237 7.9088 55.2222 15.2801C55.2292 15.5339 55.1667 15.7845 55.0421 16.0025C54.0363 17.7225 50.7624 21.8147 42.0741 22.8701V18.7531C42.0727 17.9675 41.8554 17.199 41.4482 16.5391C42.6061 14.4613 44.3474 12.8071 46.4353 11.8015C46.8816 11.6457 47.2145 11.2525 47.3086 10.7702C47.4028 10.2878 47.2439 9.78949 46.8918 9.46296C46.5398 9.13643 46.048 9.03127 45.6017 9.18711C43.0044 10.3388 40.821 12.3195 39.3629 14.8466C38.966 14.7033 38.5495 14.6285 38.1296 14.6251H37.2882C38.3821 11.4878 41.5587 4.93801 49.3161 3.63219ZM20.8319 3.83446C21.0849 3.65718 21.392 3.58505 21.6931 3.63219C29.4519 4.93801 32.6258 11.4878 33.7211 14.6251H32.8704C32.4502 14.6303 32.0337 14.707 31.6371 14.8521C30.179 12.325 27.9956 10.3443 25.3983 9.19261C24.952 9.03678 24.4602 9.14193 24.1082 9.46846C23.7561 9.79499 23.5972 10.2933 23.6914 10.7757C23.7855 11.258 24.1184 11.6512 24.5647 11.807C26.6526 12.8126 28.3939 14.4668 29.5518 16.5446C29.1455 17.2029 28.9283 17.9694 28.9259 18.7531V22.8687C20.2481 21.8119 16.9716 17.7211 15.9671 16.0025C15.8413 15.7851 15.7787 15.534 15.787 15.2801C15.9842 7.9088 19.3817 4.82105 20.8319 3.83446ZM4.42961 15.1383L7.56939 15.9639C8.27375 16.1486 8.98779 15.7007 9.16426 14.9636L9.97156 11.5827C11.0003 12.3747 12.0967 13.0656 13.2468 13.6467C13.2038 14.1485 13.1744 14.67 13.1587 15.2113C13.1348 15.9988 13.3313 16.7764 13.724 17.4486C15.1891 19.7818 17.228 21.6584 19.6262 22.8811H15.7778C11.3232 22.8811 6.26509 20.802 4.42961 15.1383ZM2.62963 27.0091C2.62963 26.2492 3.21829 25.6331 3.94444 25.6331H27.6111V33.8891H2.62963V27.0091Z" fill="#4A3024"/>
</svg>
