<svg width="215" height="215" viewBox="0 0 215 215" fill="none" xmlns="http://www.w3.org/2000/svg">
<g clip-path="url(#clip0_102_24)">
<path d="M89.6785 76.5357C89.6785 63.115 94.4483 51.6348 103.988 42.0952C113.528 32.5555 125.008 27.7857 138.428 27.7857C151.849 27.7857 163.329 32.5555 172.869 42.0952C182.409 51.6348 187.178 63.115 187.178 76.5357C187.178 89.9565 182.409 101.437 172.869 110.976C163.329 120.516 151.849 125.286 138.428 125.286C125.008 125.286 113.528 120.516 103.988 110.976C94.4483 101.437 89.6785 89.9565 89.6785 76.5357ZM-0.170822 201.206C-0.170822 204.979 1.20752 208.243 3.96422 211C6.72091 213.757 9.98543 215.135 13.7578 215.135C17.6752 215.135 20.9397 213.757 23.5513 211L95.0105 139.65C107.996 148.645 122.469 153.143 138.428 153.143C148.802 153.143 158.723 151.13 168.19 147.104C177.657 143.077 185.818 137.636 192.674 130.781C199.529 123.926 204.97 115.764 208.996 106.297C213.023 96.8301 215.036 86.9096 215.036 76.5357C215.036 66.1619 213.023 56.2414 208.996 46.7743C204.97 37.3072 199.529 29.1459 192.674 22.2905C185.818 15.435 177.657 9.99416 168.19 5.96793C158.723 1.9417 148.802 -0.0714111 138.428 -0.0714111C128.055 -0.0714111 118.134 1.9417 108.667 5.96793C99.2 9.99416 91.0387 15.435 84.1832 22.2905C77.3278 29.1459 71.8869 37.3072 67.8607 46.7743C63.8345 56.2414 61.8214 66.1619 61.8214 76.5357C61.8214 92.4956 66.3191 106.968 75.3147 119.954L3.85541 191.413C1.17126 194.097 -0.170822 197.362 -0.170822 201.206Z" fill="#F50005"/>
</g>
<defs>
<clipPath id="clip0_102_24">
<rect width="215" height="215" fill="white" transform="matrix(-1 0 0 1 215 0)"/>
</clipPath>
</defs>
</svg>
